<?xml version="1.0" encoding="UTF-8" standalone="no"?>
<!-- Created with Inkscape (http://www.inkscape.org/) -->

<svg
   width="250"
   height="250"
   viewBox="0 0 66.145832 66.145834"
   version="1.1"
   id="svg1"
   inkscape:version="1.4.1 (1:1.4.1+202503302257+93de688d07)"
   sodipodi:docname="logo_h_fundo_escuro.svg"
   xml:space="preserve"
   xmlns:inkscape="http://www.inkscape.org/namespaces/inkscape"
   xmlns:sodipodi="http://sodipodi.sourceforge.net/DTD/sodipodi-0.dtd"
   xmlns="http://www.w3.org/2000/svg"
   xmlns:svg="http://www.w3.org/2000/svg"><sodipodi:namedview
     id="namedview1"
     pagecolor="#ffffff"
     bordercolor="#666666"
     borderopacity="1.0"
     inkscape:showpageshadow="2"
     inkscape:pageopacity="0.0"
     inkscape:pagecheckerboard="0"
     inkscape:deskcolor="#d1d1d1"
     inkscape:document-units="px"
     inkscape:export-bgcolor="#ffffffff"
     inkscape:zoom="1.5026019"
     inkscape:cx="130.10765"
     inkscape:cy="218.62078"
     inkscape:window-width="1920"
     inkscape:window-height="1016"
     inkscape:window-x="0"
     inkscape:window-y="27"
     inkscape:window-maximized="1"
     inkscape:current-layer="g38" /><defs
     id="defs1" /><g
     inkscape:label="Camada 1"
     inkscape:groupmode="layer"
     id="layer1"><g
       id="g38"
       transform="translate(-4.4020863,-1.3206259)"><path
         style="font-weight:bold;font-size:64px;line-height:1;font-family:'Metro Nova Pro';-inkscape-font-specification:'Metro Nova Pro Bold';text-align:center;letter-spacing:3.59301px;word-spacing:0px;text-anchor:middle;fill:#f9f9f9;stroke-width:4.7779"
         d="m -239.89428,54.411291 c -4.288,-2.944 -9.408,-4.416 -15.872,-4.416 -14.72,0 -24.96,11.84 -24.96,25.408 0,15.552 10.176,25.663999 24.768,25.663999 5.632,0 11.456,-1.727999 15.68,-4.863999 l 0.96,-12.224 h -0.192 c -4.288,5.504 -9.536,8.128 -15.616,8.128 -9.536,0 -15.936,-6.848 -15.936,-16.576 0,-9.28 6.336,-16.64 16,-16.64 6.08,0 11.136,2.496 14.08,6.464 h 0.192 z m 13.19289,45.823999 h 32.064 v -8.511999 h -22.848 v -40.896 h -9.216 z m 40.58495,-49.407999 v 31.104 c 0,13.44 8.448,19.199999 19.52,19.199999 11.008,0 19.456,-5.951999 19.456,-19.647999 v -30.656 h -9.28 v 30.144 c 0,7.68 -4.608,11.072 -10.176,11.072 -5.632,0 -10.24,-3.392 -10.24,-11.072 v -30.144 z m 84.74491,11.712 c 0,-6.656 -5.504,-11.712 -16,-11.712 h -14.976 v 49.407999 h 14.208 c 11.392,0 18.944,-5.887999 18.944,-14.655999 0,-6.144 -3.136,-10.304 -9.216,-12.352 4.672,-2.176 7.04,-6.272 7.04,-10.688 z m -21.76,15.808 h 5.632 c 5.696,0 8.768,3.008 8.768,7.04 0,4.16 -2.944,7.424 -9.536,7.424 h -4.864 z m 0,-20.16 h 5.184 c 5.056,0 7.552,2.88 7.552,6.208 0,3.84 -2.496,7.104 -8.32,7.104 h -4.416 z m 45.51294,0.768 h 19.136 v -8.128 h -28.352 v 49.407999 h 28.544 v -8.127999 h -19.328 v -13.696 h 16.384 v -7.616 h -16.384 z m 63.44195,41.279999 c 17.7280002,0 27.328,-9.151999 27.328,-25.343999 0,-14.208 -9.8559998,-24.064 -27.2,-24.064 h -13.696 v 49.407999 z m -4.352,-40.959999 h 4.864 c 11.2000002,0 17.2800002,6.976 17.2800002,15.616 0,10.88 -6.08,16.832 -17.4080002,16.832 h -4.736 z m 81.096922,16.256 c 0,9.856 -6.208,17.152 -14.848,17.152 -8.64,0 -14.912,-7.296 -14.912,-17.152 0,-9.856 6.208,-17.152 14.912,-17.152 8.576,0 14.848,7.296 14.848,17.152 z m 9.536,0 c 0,-14.912 -10.112,-25.664 -24.384,-25.664 -14.272,0 -24.384,10.752 -24.384,25.664 0,14.912 10.048,25.663999 24.384,25.663999 14.208,0 24.384,-10.751999 24.384,-25.663999 z m 30.033878,24.703999 h 32.064 v -8.511999 h -22.848 v -40.896 h -9.216 z m 51.721,0 V 50.827291 h -9.216 v 49.407999 z m 9.54488,-49.407999 20.672,49.407999 h 7.744 l 21.824,-49.407999 h -10.752 l -14.848,36.544 -13.888,-36.544 z M 223.189,100.23529 h 9.216 V 80.971291 h 3.008 l 14.592,19.263999 h 11.712 L 244.949,79.243291 c 6.72,-2.368 10.88,-7.168 10.88,-13.76 0,-9.344 -6.848,-14.656 -18.304,-14.656 h -14.336 z m 9.216,-41.471999 h 4.032 c 6.272,0 9.856,2.624 9.856,7.68 0,5.312 -4.288,8.384 -12.992,8.384 h -0.896 z m 73.6089,16.768 c 0,9.856 -6.208,17.152 -14.848,17.152 -8.64,0 -14.912,-7.296 -14.912,-17.152 0,-9.856 6.208,-17.152 14.912,-17.152 8.576,0 14.848,7.296 14.848,17.152 z m 9.536,0 c 0,-14.912 -10.112,-25.664 -24.384,-25.664 -14.272,0 -24.384,10.752 -24.384,25.664 0,14.912 10.048,25.663999 24.384,25.663999 14.208,0 24.384,-10.751999 24.384,-25.663999 z"
         id="text43"
         transform="matrix(0.05537653,0,0,0.05537653,36.049377,4.6812421)"
         aria-label="CLUBE DO LIVRO" /><path
         style="font-weight:bold;font-size:64px;line-height:1;font-family:'Metro Nova Pro';-inkscape-font-specification:'Metro Nova Pro Bold';text-align:center;letter-spacing:3.59301px;word-spacing:0px;text-anchor:middle;fill:#f9f9f9;stroke-width:4.7779"
         d="m -94.391095,75.531291 c 0,9.856 -6.207995,17.152 -14.847995,17.152 -8.64,0 -14.912,-7.296 -14.912,-17.152 0,-9.856 6.208,-17.152 14.912,-17.152 8.576,0 14.847995,7.296 14.847995,17.152 z m 9.536,0 c 0,-14.912 -10.112,-25.664 -24.383995,-25.664 -14.272,0 -24.384,10.752 -24.384,25.664 0,14.912 10.048,25.663999 24.384,25.663999 14.207995,0 24.383995,-10.751999 24.383995,-25.663999 z m 48.456894,-24.704 v 34.368 l -28.608,-34.368 h -7.488 v 49.407999 h 9.024 V 65.739291 l 28.608,34.495999 h 7.488 V 50.827291 Z m 36.87298938,28.48 H -15.781212 v 7.552 H 0.47478838 Z M 12.131753,100.23529 h 32.064 v -8.511999 h -22.848 v -40.896 h -9.216 z m 51.721004,0 V 50.827291 h -9.216 V 100.23529 Z M 115.18967,50.827291 v 34.368 l -28.608003,-34.368 h -7.488 v 49.407999 h 9.024 V 65.739291 l 28.608003,34.495999 h 7.488 V 50.827291 Z m 33.41696,8.128 h 19.136 v -8.128 h -28.352 v 49.407999 h 28.544 v -8.127999 h -19.328 v -13.696 h 16.384 v -7.616 h -16.384 z"
         id="text44"
         transform="matrix(0.05537653,0,0,0.05537653,36.063556,8.3043144)"
         aria-label="ON-LINE" /><path
         d="M 26.33431,6.0967855 22.147485,8.5136922 V 17.11265 l 4.186825,-2.416906 z"
         style="baseline-shift:baseline;display:inline;overflow:visible;vector-effect:none;fill:#e3d7f4;stroke-width:0.628947;stroke-linejoin:round;enable-background:accumulate;stop-color:#000000"
         id="path35"
         transform="matrix(1.9245898,0,0,1.8835267,-4.2974507,5.169275)" /><path
         d="m 16.856335,6.0967855 v 8.5989585 l 4.186308,2.416906 V 8.5136922 Z"
         style="baseline-shift:baseline;display:inline;overflow:visible;vector-effect:none;fill:#e3d7f4;stroke-width:0.628947;stroke-linejoin:round;enable-background:accumulate;stop-color:#000000"
         id="path34"
         transform="matrix(1.9245898,0,0,1.8835267,-4.2974507,5.169275)" /><path
         d="m 26.886214,4.5873169 a 0.55243551,0.55243551 0 0 0 -0.275952,0.073897 L 21.595064,7.5571614 16.580383,4.6612142 a 0.55243551,0.55243551 0 0 0 -0.276469,-0.073381 0.55243551,0.55243551 0 0 0 -0.275952,0.073381 0.55243551,0.55243551 0 0 0 -0.276469,0.4790405 v 9.8743323 a 0.55243551,0.55243551 0 0 0 0.276469,0.478524 l 5.29115,3.055111 a 0.55238027,0.55238027 0 0 1 5.17e-4,0 0.55238027,0.55238027 0 0 0 0.06408,0.03204 0.55238027,0.55238027 0 0 0 5.16e-4,0 0.55238027,0.55238027 0 0 0 0.13901,0.03721 0.55238027,0.55238027 0 0 0 0.144177,0 0.55238027,0.55238027 0 0 0 0.0708,-0.01395 0.55238027,0.55238027 0 0 0 0.06873,-0.02325 0.55238027,0.55238027 0 0 0 0.0646,-0.03204 l 5.29115,-3.055111 a 0.55243551,0.55243551 0 0 0 0.275952,-0.478524 V 5.1402547 A 0.55243551,0.55243551 0 0 0 27.162683,4.6612142 0.55243551,0.55243551 0 0 0 26.886214,4.5873169 Z M 16.856335,6.0967855 21.042643,8.5136922 V 17.11265 l -4.186308,-2.416906 z m 9.477975,0 V 14.695744 L 22.147485,17.11265 V 8.5136922 Z"
         style="baseline-shift:baseline;display:inline;overflow:visible;vector-effect:none;fill:#aa87de;stroke-width:0.672604;stroke-linejoin:round;enable-background:accumulate;stop-color:#000000"
         id="path31"
         transform="matrix(1.9245898,0,0,1.646909,-4.2974507,7.9925116)" /><path
         d="M 43.089359,7.1029256 C 42.445354,6.9354148 41.863764,7.8560057 41.30221,8.3457444 40.778116,8.8190285 40.161598,9.226557 39.469032,9.3723846 c -0.383584,0.1154767 -0.760926,0.3634212 -1.035448,0.6736544 -0.122719,0.277539 0.185328,0.498682 0.36873,0.660395 0.627353,0.487314 1.389913,0.778125 2.163198,0.935551 0.210316,0.03862 0.496595,0.193762 0.639437,0.03284 0.217749,-0.24531 0.160715,-0.637361 0.288103,-0.941398 0.402381,-1.1099812 0.918063,-2.185414 1.178883,-3.3419044 0.01692,-0.095039 0.0922,-0.1173027 0.122906,-0.1543586 0.0307,-0.037056 -0.105482,-0.1342384 -0.105482,-0.1342384 z"
         style="baseline-shift:baseline;display:inline;overflow:visible;vector-effect:none;fill:#ddafe9;stroke-width:0.468352;stroke-linecap:round;stroke-linejoin:round;enable-background:accumulate;stop-color:#000000"
         id="path22"
         transform="matrix(2.138732,0,0,2.131564,-38.639821,3.245681)"
         sodipodi:nodetypes="ccccccsccsc" /><path
         d="m 41.08018,12.86123 c -0.580921,0.02726 -1.43052,0.1173 -2.076876,0.445968 0.0061,0.03668 0.02523,0.120415 0.0987,0.245463 0.165415,0.281525 0.512503,0.666354 0.885217,0.991671 0.339013,0.295902 0.687228,0.518424 0.930693,0.637687 -0.10577,-0.966357 -0.03851,-1.705604 0.102836,-2.183329 0.01768,-0.05976 0.0399,-0.08382 0.05943,-0.13746 z"
         style="baseline-shift:baseline;display:inline;overflow:visible;vector-effect:none;fill:#ddafe9;fill-opacity:1;stroke-width:0.447136;stroke-linecap:round;stroke-linejoin:round;enable-background:accumulate;stop-color:#000000"
         id="path26"
         transform="matrix(2.2401944,0.00829618,-0.00832406,2.2326864,-42.547727,1.17821)" /><path
         style="font-size:64px;line-height:1.25;font-family:Condiment;-inkscape-font-specification:Condiment;text-align:center;letter-spacing:0px;word-spacing:0px;text-anchor:middle;fill:#892ca0;stroke-width:1.2297"
         d="m 210.94051,172.83011 q -10.56,0 -10.56,-10.752 0,-3.136 1.472,-7.616 1.536,-4.48 4.48,-9.28 2.944,-4.864 6.656,-9.024 3.712,-4.16 8.704,-6.848 4.992,-2.688 10.048,-2.688 2.368,0 3.648,0.576 1.28,0.512 1.344,0.512 0.128,0 1.6,-0.64 1.536,-0.64 3.584,-0.64 2.112,0 2.112,1.216 0,1.152 -2.496,5.12 -2.432,3.968 -5.888,7.616 -3.456,3.648 -5.504,3.648 -0.256,0.064 -0.64,0.064 -1.216,0 -1.216,-0.704 0,-0.128 0.896,-1.408 0.896,-1.344 1.792,-3.52 0.896,-2.24 0.896,-3.584 0,-1.344 -0.128,-1.92 -0.128,-0.576 -0.896,-1.344 -0.704,-0.768 -1.984,-0.768 -3.456,0 -8.256,5.248 -4.736,5.248 -8.192,12.352 -3.392,7.04 -3.392,11.968 0,5.888 5.376,5.888 6.4,0 12.416,-8.256 0.256,-0.512 0.512,-0.512 0.32,0 0.448,0.064 0.192,0 0.448,0.384 0.32,0.32 0.32,1.28 0,0.96 -1.344,3.2 -1.28,2.24 -3.456,4.608 -2.176,2.368 -5.632,4.096 -3.456,1.664 -7.168,1.664 z m 45.05588,-25.216 q 2.752,0 2.752,3.2 0,3.2 -2.24,8.064 -3.264,6.848 -7.424,11.84 -1.984,2.368 -4.992,2.368 -0.96,0 -0.96,-0.512 l 0.256,-0.704 q 3.008,-4.416 5.312,-9.088 2.368,-4.736 2.368,-6.848 0,-0.384 -0.256,-0.64 -0.192,-0.256 -0.704,-0.32 -2.624,0 -7.104,4.288 -4.416,4.288 -7.68,8.64 -3.2,4.352 -4.16,6.016 -0.896,1.728 -1.856,2.048 -0.96,0.384 -3.136,0.384 -2.176,0 -2.176,-0.768 0,-0.256 0.64,-1.216 0.576,-0.96 4.544,-8.64 4.032,-7.68 8.448,-15.616 4.48,-8 9.728,-16.32 5.312,-8.32 10.56,-13.568 5.312,-5.312 9.216,-5.312 3.008,0 3.008,3.52 0,6.784 -6.208,14.528 -6.144,7.744 -11.264,10.112 -1.152,0.512 -2.432,0.512 -1.216,0 -1.216,-0.576 l 0.384,-0.64 q 6.272,-4.352 9.92,-10.048 3.712,-5.696 3.712,-8 0,-0.768 -0.192,-1.024 -0.192,-0.32 -0.896,-0.32 -2.304,0 -7.552,7.488 -5.184,7.488 -9.344,15.424 -4.16,7.936 -4.16,9.664 0,0.704 0.448,0.704 0.512,0 1.344,-0.64 0.96,-0.896 2.432,-2.24 1.536,-1.344 5.056,-3.52 3.584,-2.24 5.824,-2.24 z m 15.0399,21.44 0.128,-1.344 q 0,-0.512 -0.384,-0.512 -0.576,0 -2.368,1.664 -1.728,1.664 -4.416,3.328 -2.624,1.728 -5.312,1.728 -2.624,0 -2.624,-3.904 0,-4.864 4.224,-11.2 2.176,-3.2 4.992,-5.888 2.88,-2.752 6.976,-4.48 4.096,-1.792 8.576,-1.792 2.368,0 4.032,1.28 1.664,1.216 1.664,3.072 0,1.792 -1.088,1.792 -0.576,0 -1.536,-0.704 -1.792,-1.216 -5.632,-1.216 -5.056,0 -9.6,4.608 -4.48,4.544 -4.48,9.024 0,0.576 0.32,1.088 0.384,0.512 1.024,0.512 1.92,0 4.928,-2.624 3.008,-2.688 5.888,-7.68 0.192,-0.576 1.408,-1.088 1.216,-0.512 2.88,-0.512 2.368,0.192 2.368,1.024 0,0.064 -0.512,0.832 -0.448,0.704 -1.664,2.624 -1.216,1.92 -3.456,6.336 -2.176,4.352 -2.56,6.912 -0.064,0.768 -0.64,0.768 -3.136,0 -3.136,-3.648 z m 32.57597,-5.888 q -1.216,0 -1.856,-1.216 -0.64,-1.28 -0.64,-2.432 0,-1.216 0.768,-2.752 0,-0.832 -0.64,-0.832 -2.496,0 -5.696,3.008 -3.2,2.944 -5.376,6.144 -2.176,3.136 -3.968,6.336 -1.088,1.92 -4.48,1.92 -1.728,0 -1.728,-0.768 0,-1.728 6.272,-12.864 6.336,-11.2 8.384,-11.968 1.408,-0.704 3.136,-0.704 1.792,0 1.792,0.768 0,0.704 -1.472,2.816 -1.472,2.112 -1.472,2.688 0,0.576 0.448,0.576 0.256,0 1.408,-0.768 2.816,-2.112 6.912,-4.352 l 0.576,-0.768 q 1.536,-1.92 4.416,-1.92 2.944,0 2.944,1.152 -0.128,0.32 -0.64,1.024 -5.056,6.912 -8.512,14.464 -0.256,0.448 -0.576,0.448 z m 36.28788,11.328 q -1.088,0 -1.664,-1.344 -0.576,-1.28 -0.576,-2.176 0,-3.392 5.184,-11.712 1.728,-2.816 1.728,-3.776 0,-0.96 -0.896,-0.96 -2.368,0 -6.208,3.648 -3.84,3.584 -6.528,7.232 l -2.688,3.584 q -1.088,1.536 -3.392,1.536 -2.24,0 -2.24,-0.832 0,-1.28 3.072,-6.336 3.136,-5.12 3.136,-6.848 0,-0.512 -0.32,-0.768 -0.256,-0.32 -0.576,-0.32 -2.048,0 -4.544,1.664 -2.496,1.6 -4.672,3.968 -4.288,4.672 -6.912,8.704 l -1.024,1.6 q -1.344,1.92 -4.864,1.92 -1.6,0 -1.6,-0.832 0,-1.728 6.592,-13.44 6.592,-11.712 8.576,-12.48 1.088,-0.64 2.944,-0.64 1.92,0 1.92,0.64 0,0.576 -2.24,3.904 -2.176,3.264 -2.176,4.352 0.192,0.448 0.64,0.448 0.448,0 0.96,-0.448 0.512,-0.448 1.664,-1.408 1.152,-1.024 4.224,-2.624 3.136,-1.664 5.632,-1.664 2.56,0 2.56,2.176 0,1.536 -0.64,2.816 -0.64,1.28 -0.64,1.536 0,0.512 0.512,0.512 0.576,0 1.024,-0.576 0.96,-0.96 2.496,-2.368 1.6,-1.408 5.248,-3.712 3.712,-2.368 6.016,-2.368 3.136,0 3.136,2.752 0,2.304 -1.664,5.376 -1.6,3.008 -2.176,4.096 -0.576,1.024 -2.432,3.968 -1.792,2.944 -2.432,4.032 -0.64,1.024 -1.792,3.2 -1.088,2.112 -1.6,3.008 -0.512,0.96 -0.768,0.96 z m 18.75198,0.448 q -3.712,0 -5.44,-2.24 -1.728,-2.176 -1.728,-5.376 0,-3.264 1.408,-6.784 1.408,-3.584 3.84,-6.912 2.496,-3.328 6.464,-5.568 4.032,-2.304 8.64,-2.304 2.112,0 3.2,1.344 1.088,1.28 1.088,3.072 0,3.712 -2.624,6.912 -2.624,3.2 -5.824,4.864 -3.2,1.664 -5.696,1.92 -2.432,0.192 -3.264,0.896 -0.832,0.704 -0.832,2.816 0,2.112 0.96,3.2 0.96,1.088 1.92,1.472 0.96,0.384 0.96,0.768 0,0.896 -0.96,1.408 -0.96,0.512 -2.112,0.512 z m 11.264,-23.168 q 0,-1.984 -1.792,-1.984 -2.56,0 -5.696,3.584 -3.072,3.584 -3.072,6.464 0,0.704 1.088,0.704 2.624,0 6.016,-2.688 3.456,-2.688 3.456,-6.08 z m -2.0481,22.528 q 0,-0.512 0.704,-0.64 4.48,0 9.536,-2.88 5.12,-2.88 5.12,-6.016 0,-2.304 -3.072,-4.416 -3.072,-2.176 -3.072,-4.544 0,-3.52 4.48,-6.08 4.48,-2.624 10.176,-2.624 1.024,0 1.344,0.064 0.32,0 0.576,-0.384 0.32,-0.448 0.704,-0.96 0.384,-0.512 1.408,-0.896 1.024,-0.448 2.432,-0.448 3.264,0 3.264,0.96 0,0.192 -0.064,0.32 -1.024,0.896 -3.648,4.416 -2.624,3.52 -3.84,6.592 -0.256,0.576 -1.152,0.576 -0.832,0 -1.664,-0.96 -0.832,-1.024 -0.832,-1.92 0,-0.96 0.32,-1.984 0.32,-1.088 0.32,-1.28 0,-0.832 -1.024,-0.832 -1.984,0 -4.16,1.216 -2.112,1.152 -2.112,3.392 0,2.176 3.2,4.416 1.216,0.896 2.176,2.304 1.024,1.408 1.024,2.944 0,4.352 -5.696,7.872 -5.696,3.584 -12.352,3.584 -3.776,0 -4.096,-1.792 z"
         id="text39"
         transform="matrix(0.21516022,0,0,0.21516022,-31.366118,8.840651)"
         aria-label="Charmes " /><path
         style="font-size:64px;line-height:1.25;font-family:Condiment;-inkscape-font-specification:Condiment;text-align:center;letter-spacing:0px;word-spacing:0px;text-anchor:middle;fill:#892ca0;stroke-width:1.2297"
         d="m 198.45687,245.2706 q 0,1.28 0.128,1.92 0.192,0.64 0.192,0.96 0,1.472 -6.272,1.472 -6.208,0 -6.208,-1.472 l 0.384,-0.768 q 2.176,-1.28 8.704,-11.84 6.528,-10.624 13.248,-23.936 1.408,-2.816 1.408,-5.312 v -1.024 q 0,-1.664 6.848,-1.664 3.456,0 3.456,1.28 0,0.512 -0.512,1.024 -4.352,5.632 -12.864,21.12 -8.512,15.424 -8.512,18.24 z m 23.61599,5.952 q -1.792,0 -1.792,-0.832 l 0.128,-0.384 q 3.84,-5.76 6.592,-11.072 2.752,-5.376 2.752,-6.976 0,-0.512 -0.256,-0.768 -0.256,-0.32 -0.768,-0.384 -2.496,0 -6.72,3.2 -4.16,3.2 -7.36,6.592 -3.136,3.392 -4.672,5.568 -1.536,2.112 -4.608,2.112 -1.664,0 -1.664,-0.832 0,-1.664 6.272,-11.712 6.272,-10.112 8.32,-10.88 1.088,-0.64 2.752,-0.64 1.728,0 1.728,0.704 0,0.64 -1.536,2.88 -1.536,2.24 -1.536,2.88 0.128,0.512 0.512,0.512 0.448,0 0.768,-0.256 9.472,-7.36 15.104,-7.36 2.368,0 2.368,2.752 0,1.792 -2.688,7.744 -2.624,5.952 -6.72,11.584 -4.032,5.568 -6.976,5.568 z m 45.11985,-43.648 3.136,-0.128 q 0.64,0 0.64,0.256 0,0.256 -0.128,0.64 -0.128,0.384 -0.576,0.96 -0.384,0.576 -0.96,1.024 -1.536,1.216 -3.84,1.216 -2.24,0 -3.328,0.128 -1.024,0.128 -1.792,0.64 -0.768,0.512 -1.024,0.768 -0.256,0.256 -0.896,1.28 -0.64,1.024 -0.896,1.408 -3.392,4.736 -11.008,17.856 -7.552,13.12 -9.408,20.288 -0.192,0.64 -1.216,0.64 -0.96,0 -2.688,-1.664 -1.728,-1.664 -1.728,-3.392 0,-1.728 5.184,-10.304 5.248,-8.576 10.496,-16.832 5.248,-8.32 5.248,-9.216 0,-0.96 -0.768,-1.152 -0.768,-0.256 -2.688,-0.256 h -2.112 q -0.832,0 -0.832,-0.768 0,-0.768 0.704,-1.6 0.768,-0.896 2.24,-1.536 1.536,-0.64 3.072,-1.28 1.6,-0.64 4.096,-2.88 2.56,-2.24 5.12,-5.76 1.6,-2.176 5.504,-2.176 1.344,0 1.344,0.832 0,0.512 -2.88,4.672 -2.88,4.16 -2.88,5.248 0,1.024 1.92,1.024 0.768,0.064 2.944,0.064 z m 1.53595,32.768 q -1.216,0 -1.856,-1.216 -0.64,-1.28 -0.64,-2.432 0,-1.216 0.768,-2.752 0,-0.832 -0.64,-0.832 -2.496,0 -5.696,3.008 -3.2,2.944 -5.376,6.144 -2.176,3.136 -3.968,6.336 -1.088,1.92 -4.48,1.92 -1.728,0 -1.728,-0.768 0,-1.728 6.272,-12.864 6.336,-11.2 8.384,-11.968 1.408,-0.704 3.136,-0.704 1.792,0 1.792,0.768 0,0.704 -1.472,2.816 -1.472,2.112 -1.472,2.688 0,0.576 0.448,0.576 0.256,0 1.408,-0.768 2.816,-2.112 6.912,-4.352 l 0.576,-0.768 q 1.536,-1.92 4.416,-1.92 2.944,0 2.944,1.152 -0.128,0.32 -0.64,1.024 -5.056,6.912 -8.512,14.464 -0.256,0.448 -0.576,0.448 z m 5.69584,11.392 q -0.896,0 -1.984,-1.152 -1.088,-1.088 -1.088,-2.688 0,-0.896 4.16,-9.024 4.224,-8.192 4.352,-11.072 0,-0.896 1.152,-1.664 2.048,-1.216 6.08,-1.216 0.768,0 1.6,0.32 0.896,0.256 0.896,0.768 0,0.256 -0.192,0.448 -2.432,3.072 -7.104,11.072 -4.672,8 -7.04,12.992 -0.32,1.216 -0.832,1.216 z m 14.016,-30.4 q -2.816,0 -2.944,-2.24 v -0.064 q 0,-1.92 1.856,-3.136 1.92,-1.216 3.776,-1.216 2.816,0 2.944,2.24 0,1.92 -1.856,3.2 -1.856,1.216 -3.776,1.216 z m -12.03204,59.328 q 2.752,0 8.64,-8.896 5.952,-8.832 10.56,-17.664 4.608,-8.832 4.608,-9.728 0,-0.96 -0.512,-0.96 -0.512,0 -1.728,1.024 -1.216,0.96 -2.624,2.176 -1.344,1.216 -3.52,2.176 -2.112,1.024 -4.224,1.024 -2.624,0 -2.624,-3.904 0,-3.136 1.728,-7.04 1.728,-3.968 4.736,-7.616 3.008,-3.712 7.872,-6.208 4.864,-2.496 10.432,-2.496 1.408,0 3.072,0.512 3.328,1.024 3.328,3.712 0,1.92 -1.088,1.92 -0.32,0 -1.088,-0.448 -2.304,-1.536 -7.104,-1.536 -4.8,0 -9.344,4.8 -4.48,4.736 -4.48,9.28 0,1.6 1.344,1.6 2.048,0 5.632,-2.88 3.648,-2.944 7.232,-8.64 0.192,-0.896 2.944,-0.896 2.752,0 2.752,0.96 0,0.704 -4.48,9.216 -4.416,8.448 -7.488,13.888 -3.072,5.504 -7.424,12.16 -4.288,6.656 -8.128,11.456 -3.84,4.8 -8,8.064 -4.16,3.328 -7.424,3.328 -2.688,0 -2.688,-4.48 0,-4.48 2.624,-9.984 2.624,-5.44 6.336,-10.048 3.648,-4.544 7.808,-7.744 4.16,-3.2 6.976,-3.2 h 0.192 q 0.768,0 0.768,0.448 0,0.448 -0.768,0.832 -2.432,1.216 -6.208,5.376 -3.712,4.224 -6.72,9.664 -3.072,5.44 -3.072,9.152 v 0.064 q 0,1.536 1.152,1.536 z m 52.73591,-37.952 q 0,-0.448 -0.32,-0.448 h -0.128 l -0.96,0.448 q -4.16,4.032 -6.784,5.568 -2.624,1.472 -5.44,1.472 -1.28,0 -2.304,-0.768 -1.024,-0.768 -1.024,-2.944 0,-2.176 2.24,-7.68 2.24,-5.504 5.568,-10.496 3.328,-5.056 5.824,-5.696 0.832,-0.256 2.24,-0.256 1.408,0 1.408,0.768 0,0.256 -2.304,3.584 -2.304,3.264 -4.608,7.488 -2.24,4.224 -2.24,6.336 0,2.112 1.472,2.112 2.752,0 6.336,-3.584 3.584,-3.584 9.408,-11.328 1.6,-2.304 5.12,-2.304 1.92,0 1.92,0.768 0,0.192 -0.192,0.512 -10.048,15.488 -12.096,22.208 -0.256,0.768 -0.64,0.768 h -0.192 q -2.56,0 -2.56,-4.096 z m 18.6239,9.408 q -3.712,0 -5.44,-2.24 -1.728,-2.176 -1.728,-5.376 0,-3.264 1.408,-6.784 1.408,-3.584 3.84,-6.912 2.496,-3.328 6.464,-5.568 4.032,-2.304 8.64,-2.304 2.112,0 3.2,1.344 1.088,1.28 1.088,3.072 0,3.712 -2.624,6.912 -2.624,3.2 -5.824,4.864 -3.2,1.664 -5.696,1.92 -2.432,0.192 -3.264,0.896 -0.832,0.704 -0.832,2.816 0,2.112 0.96,3.2 0.96,1.088 1.92,1.472 0.96,0.384 0.96,0.768 0,0.896 -0.96,1.408 -0.96,0.512 -2.112,0.512 z m 11.264,-23.168 q 0,-1.984 -1.792,-1.984 -2.56,0 -5.696,3.584 -3.072,3.584 -3.072,6.464 0,0.704 1.088,0.704 2.624,0 6.016,-2.688 3.456,-2.688 3.456,-6.08 z m -2.0481,22.528 q 0,-0.512 0.704,-0.64 4.48,0 9.536,-2.88 5.12,-2.88 5.12,-6.016 0,-2.304 -3.072,-4.416 -3.072,-2.176 -3.072,-4.544 0,-3.52 4.48,-6.08 4.48,-2.624 10.176,-2.624 1.024,0 1.344,0.064 0.32,0 0.576,-0.384 0.32,-0.448 0.704,-0.96 0.384,-0.512 1.408,-0.896 1.024,-0.448 2.432,-0.448 3.264,0 3.264,0.96 0,0.192 -0.064,0.32 -1.024,0.896 -3.648,4.416 -2.624,3.52 -3.84,6.592 -0.256,0.576 -1.152,0.576 -0.832,0 -1.664,-0.96 -0.832,-1.024 -0.832,-1.92 0,-0.96 0.32,-1.984 0.32,-1.088 0.32,-1.28 0,-0.832 -1.024,-0.832 -1.984,0 -4.16,1.216 -2.112,1.152 -2.112,3.392 0,2.176 3.2,4.416 1.216,0.896 2.176,2.304 1.024,1.408 1.024,2.944 0,4.352 -5.696,7.872 -5.696,3.584 -12.352,3.584 -3.776,0 -4.096,-1.792 z"
         id="text40"
         transform="matrix(0.21516022,0,0,0.21516022,-20.835923,0.74050071)"
         aria-label="Intrigues" /><path
         id="path12"
         style="baseline-shift:baseline;display:inline;overflow:visible;vector-effect:none;fill:#892ca0;stroke-width:0.519591;stroke-linecap:round;stroke-linejoin:round;enable-background:accumulate;stop-color:#000000"
         d="m 127.46862,52.045398 c -0.31816,-0.550692 -0.47531,-1.145892 -0.57161,-1.820832 -0.46197,-3.238904 0.4672,-6.000036 1.09506,-8.615315 0.6279,-2.615279 1.03229,-5.073281 0.0352,-8.214242 -0.76512,-2.410298 -1.09197,-4.323107 -1.00197,-5.926692 0.09,-1.603585 0.68322,-3.001091 1.78545,-3.821551 1.10222,-0.820463 2.46362,-0.954406 3.75559,-0.782986 1.29196,0.17142 2.6058,0.643809 3.92556,1.289049 1.802,0.881014 3.61069,2.09034 5.20895,3.434578 -0.72979,-1.87595 -1.32329,-3.996493 -1.45597,-6.129879 -0.0694,-1.11525 0.61401,-2.279378 1.48659,-2.789721 0.87258,-0.510344 1.81031,-0.63194 2.81005,-0.651518 1.99947,-0.03917 4.33976,0.445373 6.56871,1.140133 2.22896,0.694761 4.28568,1.573137 5.71318,2.592121 0.71375,0.509497 1.3899,0.985005 1.66279,2.077929 0.13645,0.546462 0.0188,1.291117 -0.33041,1.78521 -0.34924,0.494102 -0.79751,0.7575 -1.24933,0.949552 -4.1428,1.760932 -6.41603,3.638033 -7.6476,5.004514 -1.23157,1.36649 -1.37357,2.031949 -1.37357,2.031949 -0.1511,0.518638 -0.5602,0.921 -1.08071,1.062926 0.012,0.09394 0.0204,0.188718 0.0255,0.283628 0.797,-0.657099 1.69933,-1.110882 2.51406,-1.523054 1.28995,-0.65258 2.42148,-1.06478 2.42148,-1.06478 0.83479,-0.304872 1.70478,0.09551 1.94258,0.893993 0.23816,0.797977 -0.24539,1.691698 -1.07995,1.996014 0,0 -0.96162,0.352424 -2.04554,0.900775 -1.04927,0.530828 -2.15495,1.370555 -2.36778,1.646428 0.002,-0.0016 0.005,-0.0031 0.006,-0.0039 l 9e-4,-5.52e-4 8.9e-4,-5.51e-4 5.5e-4,8.95e-4 9e-4,-5.52e-4 5.5e-4,8.95e-4 5.5e-4,8.95e-4 9e-4,-5.52e-4 5.5e-4,8.95e-4 -3.5e-4,0.0014 5.5e-4,8.95e-4 c 0.0162,0.05721 -0.1578,0.620045 -0.17654,1.095998 -0.0223,0.567228 0.0152,1.047392 0.0152,1.047392 0.0671,0.842663 -0.58006,1.638725 -1.44531,1.777893 -0.86502,0.139236 -1.62056,-0.430797 -1.68761,-1.273252 0,0 -0.0526,-0.635004 -0.0223,-1.403889 0.0206,-0.523281 0.005,-1.091557 0.20949,-1.738165 -0.38048,0.344634 -1.02687,1.07437 -1.76122,1.991303 -1.49493,1.866647 -3.43304,4.54267 -5.3849,7.037284 -1.95186,2.494614 -3.8456,4.792056 -5.68347,6.113138 -0.91894,0.660541 -1.96576,1.275963 -3.28877,0.869924 -0.6615,-0.20302 -1.21503,-0.715018 -1.53319,-1.26571 z m 2.61913,-1.839962 c 0.0185,-0.0287 -0.0261,0.0079 0.38708,-0.289067 1.19879,-0.861703 3.14731,-3.075928 5.04854,-5.505829 1.90122,-2.429901 3.8263,-5.092386 5.40619,-7.065119 0.78994,-0.986366 1.47396,-1.792109 2.14024,-2.386276 0.13027,-0.116167 0.32495,-0.192411 0.46167,-0.296623 -0.0407,-0.187485 0.0141,-0.192985 -0.15059,-0.513615 -0.35567,-0.692364 -1.01515,-1.581534 -1.86563,-2.476992 -1.70094,-1.790916 -4.16574,-3.63699 -6.39078,-4.72483 -1.11252,-0.54392 -2.16737,-0.893971 -2.96842,-1.000256 -0.80105,-0.106285 -1.25758,0.0255 -1.48656,0.195939 -0.22898,0.170443 -0.47953,0.48704 -0.53633,1.500117 -0.0568,1.013077 0.16618,2.620487 0.86114,4.809763 1.22182,3.849074 0.68821,7.113416 0.0233,9.882885 -0.66487,2.76947 -1.38227,5.055613 -1.04089,7.449019 0.0359,0.251814 0.071,0.30242 0.111,0.420884 z m 16.38684,-20.061987 c 0.18475,-0.240761 0.24469,-0.411967 0.47379,-0.666149 1.43261,-1.58954 3.98062,-3.511763 7.84269,-5.297792 -0.9556,-0.637865 -2.6855,-1.453368 -4.59771,-2.049398 -2.00867,-0.626099 -4.17623,-1.029048 -5.58366,-1.001479 -0.67201,0.01316 -1.10809,0.151043 -1.24652,0.21995 0.17034,2.444631 1.22865,5.159529 2.26053,7.273361 0.43385,0.888779 0.4999,0.911238 0.85088,1.521507 z"
         transform="matrix(0.25727399,0.4174469,0.4195854,-0.25620744,-1.0394838,-23.033769)"
         sodipodi:nodetypes="sccssssscssssssssscccscccsccccccccccccscccscssssscsssscsssssccssccccsscsc" /><path
         style="font-weight:bold;font-size:64px;line-height:1.25;font-family:'Metro Nova Pro';-inkscape-font-specification:'Metro Nova Pro Bold';text-align:center;letter-spacing:0px;word-spacing:0px;text-anchor:middle;fill:#e26cb5;stroke-width:3.10033"
         d="m 259.25652,207.1906 h 19.136 v -8.128 h -28.352 v 49.408 h 28.544 v -8.128 h -19.328 v -13.696 h 16.384 v -7.616 h -16.384 z m 49.47198,41.28 v -40.896 h 16.256 v -8.512 h -41.792 v 8.512 h 16.256 v 40.896 z"
         id="text42"
         transform="matrix(0.08534022,0,0,0.08534022,-8.4864978,30.959763)"
         aria-label="ET" /><path
         id="path47"
         style="baseline-shift:baseline;display:inline;overflow:visible;vector-effect:none;fill:#e26cb5;stroke-width:0.720179;stroke-linecap:round;stroke-linejoin:round;enable-background:accumulate;stop-color:#000000"
         d="m 8.5218552,15.57018 a 0.36012552,0.36012552 0 0 0 -0.3461118,0.47488 c 0.053711,0.156697 0.1349186,0.306506 0.2285082,0.457017 0.075801,0.121904 0.1367878,0.219658 0.191292,0.314478 C 8.4201048,16.599884 8.2398734,16.370592 8.0838191,16.244168 7.8591513,16.062157 7.6748232,15.959167 7.4764486,15.921874 c -0.053718,-0.0101 -0.098204,0.02066 -0.1503539,0.02345 a 0.36012552,0.36012552 0 0 0 -0.027168,-0.02717 h -0.00223 l -0.036844,0.03684 c -0.053467,0.0101 -0.1148992,-0.0066 -0.1604023,0.02345 l 0.090064,0.04689 a 0.36012552,0.36012552 0 0 0 -0.2519546,0.250093 0.36012552,0.36012552 0 0 0 0.00186,0.0019 0.36012552,0.36012552 0 0 0 -0.00186,0 c -4.47e-4,0.02313 -6.73e-5,0.04208 0.00186,0.0588 0.00399,0.03455 0.0114,0.06108 0.019725,0.09155 0.1649102,0.603597 0.096701,1.022286 -0.00782,1.292895 -0.052865,0.136876 -0.1171996,0.241621 -0.1682178,0.314478 -0.018756,0.0268 -0.030901,0.04236 -0.050614,0.06848 a 0.36012552,0.36012552 0 0 0 -0.068478,0.156309 c -0.017925,0.107521 -0.0216,0.201967 -0.015631,0.283216 0.00298,0.04062 0.00786,0.07732 0.017492,0.117232 0.00963,0.03992 0.0061,0.07254 0.078154,0.165984 0.016928,0.02195 0.138471,0.134993 0.246372,0.160031 0.107901,0.02504 0.1830903,0.01212 0.271307,-0.0037 0.2346867,-0.04214 0.45649,-0.16355 0.7246019,-0.367325 0.051354,-0.03903 0.1126146,-0.124611 0.1659848,-0.170079 -0.074192,0.123015 -0.1421273,0.243492 -0.1972465,0.349834 a 0.36012552,0.36012552 0 0 0 0.542614,0.449573 h 3.722e-4 v -3.72e-4 c 0.00266,-0.0011 0.023938,-0.01406 0.070339,-0.05285 0.2612161,-0.21831 0.4793513,-0.445507 0.5057699,-0.472647 A 0.36012552,0.36012552 0 0 0 9.1522998,18.60145 L 9.5099487,17.704908 A 0.36012552,0.36012552 0 0 0 9.531162,17.525526 L 9.4139306,16.628984 A 0.36012552,0.36012552 0 0 0 9.3651772,16.490168 C 9.3449129,16.456504 9.1673883,16.155544 8.9435162,15.863445 8.8702785,15.76789 8.8153885,15.723018 8.7831138,15.687411 A 0.36012552,0.36012552 0 0 0 8.5218552,15.57018 Z m -0.8682568,0.675104 c 2.667e-4,0.0019 4.489e-4,0.0041 7.443e-4,0.0067 5.663e-4,0.0049 0.00152,0.01556 0.00186,0.02345 5.65e-5,0.0013 -3.95e-5,0.0023 0,0.0037 l -0.00372,0.0041 c -0.00105,-0.0041 0.00107,-0.0056 0,-0.0097 l -3.722e-4,-3.73e-4 v -3.72e-4 l 3.722e-4,-3.72e-4 v -3.72e-4 -3.72e-4 -3.72e-4 c -0.00296,-0.01135 0.00144,-0.0168 0.00112,-0.02605 z m -0.4551557,0.29252 a 0.36012552,0.36012552 0 0 0 0.157425,0.0048 c 0.00213,0.01031 0.00395,0.02067 0.00595,0.03089 l -0.062896,0.06327 h -0.00223 z"
         transform="matrix(1.388542,0,0,1.388542,17.731937,10.762963)" /><path
         id="path46"
         style="baseline-shift:baseline;display:inline;overflow:visible;vector-effect:none;fill:#e26cb5;stroke-width:0.720179;stroke-linecap:round;stroke-linejoin:round;enable-background:accumulate;stop-color:#000000"
         d="m 4.677781,8.5154533 c -0.059666,-0.00142 -0.1187499,0.012005 -0.1719395,0.039077 -0.047136,0.00138 -0.093542,0.011999 -0.1365839,0.031262 l 0.029029,-0.046893 c -2.713e-4,1.363e-4 -0.038409,0.023403 -0.046893,0.029401 -0.00848,0.006 -0.015233,0.010802 -0.021213,0.015631 -0.00635,0.00513 -0.012115,0.010462 -0.017864,0.015631 -0.00249,5.938e-4 -0.00497,0.00121 -0.00744,0.00186 h -0.00223 c -6.493e-4,0.0026 -0.00127,0.0052 -0.00186,0.00782 -0.00132,0.00127 -0.00239,0.00279 -0.00372,0.00409 -0.021269,0.020821 -0.043757,0.044574 -0.064756,0.07406 C 4.1903025,8.7463667 4.1520781,8.826313 4.1269793,8.9218556 3.8839319,9.8470471 3.4651028,10.36696 3.1035304,10.658369 c -0.2286749,0.184301 -0.3131511,0.210646 -0.4335702,0.25977 -0.1178975,0.04809 -0.3185513,0.18071 -0.4413856,0.382584 l 0.00372,-0.01377 c -0.0036,0.0053 -0.00205,0.0105 -0.00558,0.01563 -2.55e-4,4.25e-4 -0.00119,0.0012 -0.00149,0.0015 l -3.722e-4,3.72e-4 c -0.00134,8.78e-4 -0.00351,0.0017 -0.00484,0.0026 l -3.722e-4,3.72e-4 c -1.488e-4,1.57e-4 -6.068e-4,9.31e-4 -7.443e-4,0.0011 -0.00307,0.0103 -0.00568,0.02073 -0.00782,0.03126 -0.098559,0.142832 -0.1788968,0.244256 -0.1894311,0.451434 -9.176e-4,0.01805 -0.00442,0.04031 -0.00223,0.08783 0.00219,0.04752 0.017706,0.132474 0.062523,0.205062 0.089634,0.145178 0.1717423,0.162213 0.2344629,0.195385 0.2594871,0.137238 0.5405379,0.143505 0.9728347,0.09751 0.4322968,-0.046 0.985853,-0.177341 1.6483111,-0.451062 0.01365,-0.0056 0.022038,0.0029 0.031262,0.0097 0.00137,0.0069 0.00233,0.01229 0.00372,0.01935 0.00209,0.01063 0.00394,0.01916 0.00595,0.0294 -2.861e-4,3.35e-4 -0.00183,0.0018 -0.00261,0.0026 -8.532e-4,8.83e-4 -0.00185,0.0021 -0.00223,0.0026 v 3.72e-4 c -0.00271,0.0018 -0.00257,0.0017 -0.0067,0.0045 -0.012512,0.0085 -0.014501,0.0099 -0.015259,0.01042 -3.589e-4,1.9e-4 -0.00114,3.11e-4 -0.00261,0.0011 -0.013388,0.0073 -0.028848,0.01403 -0.06029,0.0294 -0.052229,0.02555 -0.1305498,0.06255 -0.2229258,0.107183 -0.1837548,0.08879 -0.4280137,0.210775 -0.6754763,0.347973 -0.1876565,0.104044 -0.3388765,0.209788 -0.4767411,0.30443 -0.3125246,0.213919 -0.1254368,0.703354 0.2500937,0.654263 0.033322,-0.0044 0.084742,-0.0016 0.1875703,-0.01935 0.4931745,-0.08596 0.9562108,-0.21912 0.9959089,-0.230369 0.031664,-0.0089 0.061967,-0.022 0.090063,-0.03908 0.03125,-0.01926 0.2142599,-0.128388 0.4625989,-0.304802 0.2829213,-0.200956 0.5703062,-0.420088 0.7480481,-0.654635 0.1705143,-0.225011 0.2932046,-0.538309 0.4045415,-0.849277 0.095624,-0.267083 0.1475875,-0.455014 0.1581694,-0.492372 0.00884,-0.03375 0.012723,-0.0686 0.011537,-0.103461 -7.855e-4,-0.0453 -0.0057,-0.575544 -0.075921,-1.1112794 -0.024501,-0.1869195 -0.06446,-0.308223 -0.090064,-0.4142177 -0.084857,-0.3475155 -0.5696395,-0.372121 -0.6892463,-0.034983 -0.00649,0.013039 -0.013459,0.013602 -0.017864,0.027168 -0.06881,0.2118776 -0.085758,0.4377125 -0.095646,0.6661722 -0.00993,0.2294409 0.0199,0.4379779 -0.034983,0.6073699 C 5.6544883,11.002196 5.3441186,9.5693833 5.2479351,9.2869477 5.1355014,8.9888574 5.0319684,8.8389808 4.8787491,8.6974411 l -0.00782,0.04466 c -0.00921,-0.04895 -0.02847,-0.095458 -0.056569,-0.1365839 l 0.027168,0.035355 c -0.00778,-0.014735 -0.012642,-0.033981 -0.025307,-0.043171 -0.016274,-0.011807 -0.026521,-0.019141 -0.034983,-0.025307 -0.00423,-0.00308 -0.00788,-0.00656 -0.015631,-0.011909 -0.00388,-0.00267 -0.0075,-0.00544 -0.017492,-0.011537 -0.00499,-0.00305 -0.021394,-0.011808 -0.021585,-0.011909 -1.914e-4,-1.003e-4 -0.048625,-0.02154 -0.048753,-0.021585 z m 0.1637518,0.1257912 c 0.00276,0.00518 0.00597,0.00964 0.010048,0.013026 z m -0.5582449,0.085225 c -0.00495,0.019908 -0.00818,0.040203 -0.00968,0.060663 -1.6e-6,6.203e-4 -1.6e-6,0.00124 0,0.00186 -0.037219,0.069997 -0.0503,0.1503187 -0.037216,0.2285082 3.07e-5,6.09e-5 0.00429,0.00956 0.00782,0.015631 0.00195,0.00263 0.00393,0.00524 0.00595,0.00782 0.015009,0.026252 0.033264,0.05051 0.054336,0.0722 L 4.2010398,9.0078253 V 8.861193 c -1.6e-6,-6.203e-4 -1.6e-6,-0.00124 0,-0.00186 z m 0.544847,0.2813554 -0.015631,0.1016006 -0.034983,0.00782 c -0.00192,-0.00347 -0.00367,-0.00703 -0.00558,-0.010421 0.023862,-0.02981 0.042831,-0.063226 0.056197,-0.098995 z"
         sodipodi:nodetypes="ccccsscccccsssccccscccccsssssccsccccsccccsccccccssccscccsssccccsscsscccccccccccccccccccc"
         transform="matrix(1.388542,0,0,1.388542,17.731937,10.762963)" /><path
         id="path48"
         style="fill:#e26cb5;fill-opacity:1;stroke:none;stroke-width:2.95602;stroke-linecap:round;stroke-linejoin:round;stroke-dasharray:none;stroke-opacity:1;paint-order:stroke fill markers"
         d="m 106.94924,75.004113 a 4.6503709,8.5776874 24.469374 0 0 -4.41716,3.460051 8.6530199,4.748085 0 0 0 -5.705797,4.464098 8.6530199,4.748085 0 0 0 1.545261,2.708284 3.6173206,8.3770351 87.286032 0 0 -2.494796,2.625662 3.6173206,8.3770351 87.286032 0 0 8.253532,3.352761 3.6173206,8.3770351 87.286032 0 0 8.48374,-3.897529 3.6173206,8.3770351 87.286032 0 0 -0.79301,-1.559326 8.6530199,4.748085 0 0 0 2.31085,-3.229362 8.6530199,4.748085 0 0 0 -3.32087,-3.741041 4.6503709,8.5776874 24.469374 0 0 -1.88239,-3.998739 4.6503709,8.5776874 24.469374 0 0 -1.97936,-0.184859 z"
         transform="matrix(0.2700055,0.03582595,-0.03689998,0.2621466,6.7526148,-1.041479)" /><path
         id="path27"
         style="baseline-shift:baseline;display:inline;overflow:visible;vector-effect:none;fill:#6c6753;stroke-width:0.720179;stroke-linecap:round;stroke-linejoin:round;enable-background:accumulate;stop-color:#000000"
         d="M 11.133325,7.8619346 C 10.810137,7.8827172 10.568914,8.0124082 10.3756,8.2553112 10.31824,8.3254372 10.238974,8.4116644 10.123274,8.4983338 9.8918734,8.6716734 9.5156813,8.8538808 8.8501032,8.85896 8.619139,8.86072 8.3832666,8.9692458 8.2676677,9.1760431 c -0.1155993,0.2067978 -0.091924,0.460666 0.018236,0.6829196 0.074715,0.1507423 0.2016526,0.2965393 0.3554159,0.4387803 -0.2008072,0.01572 -0.4100042,0.07001 -0.5723871,0.235579 -0.1009863,0.102975 -0.1501811,0.313617 -0.098251,0.448829 0.05193,0.135212 0.1358018,0.205236 0.218832,0.26833 0.1660671,0.12618 0.3698051,0.216996 0.5824355,0.301824 0.4878045,0.245874 0.8625724,0.317599 1.368072,0.243767 C 9.9848009,12.110825 9.8918379,12.385881 9.8489894,12.657258 9.385628,12.350768 8.8467748,12.167218 8.329819,12.04691 7.8109143,11.926148 7.3077786,11.870878 6.9282522,11.845942 6.9766882,11.728003 7.0195976,11.610144 7.0596258,11.498342 7.3512607,10.860227 7.2514392,10.279849 7.1757407,9.5880278 7.1365002,9.2886545 7.0864963,8.9980136 6.9792385,8.7447059 6.9256097,8.6180522 6.8634844,8.4884925 6.7075594,8.3781251 6.5516343,8.2677584 6.2665238,8.2617112 6.1020497,8.3572839 5.8474161,8.5052463 5.6968829,8.7352441 5.5985129,8.9672595 5.457161,8.6502855 5.2864733,8.4030556 5.070041,8.2460071 4.8160405,8.0616982 4.4655599,8.0204196 4.2029006,8.1525941 3.9402412,8.2847685 3.7799753,8.5341492 3.7071792,8.8113231 3.4841324,9.6603794 3.1290665,10.082568 2.8322234,10.321934 c -0.508797,0.410277 -0.734181,0.408603 -0.9475277,0.682919 -0.1834317,0.235852 -0.2825527,0.495208 -0.2962419,0.764424 -0.018252,0.358956 0.1986249,0.721452 0.5247502,0.893936 0.1886979,0.0998 0.4116308,0.149719 0.6550073,0.172684 -0.1101284,0.119957 -0.199636,0.260181 -0.2199485,0.469297 -0.019247,0.19823 0.1298245,0.436921 0.2754008,0.519168 0.1455771,0.08225 0.2708872,0.09536 0.3982147,0.103089 0.254655,0.01545 0.5289857,-0.02117 0.804617,-0.06922 0.710561,-0.05868 1.1692935,-0.268518 1.7242323,-0.650169 0.235995,-0.167644 0.4992514,-0.361782 0.7093432,-0.587274 0.3100864,0.0054 0.9932693,0.03734 1.6899933,0.19948 0.4720154,0.10985 0.9429221,0.281085 1.2921509,0.519912 0.2115952,0.144702 0.3773894,0.304994 0.4905111,0.497582 0.00908,0.02106 0.0198,0.04148 0.032378,0.06066 0.056081,0.109203 0.096861,0.228311 0.1202089,0.360254 0.1139,0.643628 0.35833,1.252534 0.666917,1.810202 -0.122196,0.03754 -0.240468,0.08863 -0.355416,0.147749 -0.289333,0.148828 -0.5593742,0.349417 -0.7822877,0.569782 l -0.031634,-0.242651 c -0.00482,-0.03617 -0.017023,-0.07102 -0.035728,-0.102345 0,0 -0.2137362,-0.361192 -0.4625989,-0.685897 C 8.9601342,15.593164 8.832479,15.440186 8.6837455,15.327901 8.6093795,15.271761 8.5290248,15.21665 8.4001571,15.204715 8.2712895,15.192775 8.1014224,15.285715 8.037298,15.397495 7.9341891,15.577242 7.938572,15.770658 7.973658,15.94718 7.814094,15.84936 7.6580556,15.775104 7.5103147,15.747329 7.2924861,15.706379 7.0684624,15.747824 6.9185751,15.89731 6.7686883,16.046796 6.7316935,16.275827 6.786085,16.474908 c 0.1567425,0.573702 0.091591,0.941374 -0.00149,1.182363 -0.046539,0.120494 -0.1013162,0.209836 -0.1477488,0.276145 -0.023219,0.03315 -0.043835,0.05963 -0.064012,0.08671 -0.020193,0.02707 -0.047016,0.01088 -0.078526,0.152214 -0.016093,0.07218 -0.026843,0.143473 -0.032006,0.212506 -0.015488,0.207098 0.022019,0.397136 0.1399334,0.550057 0.1572184,0.203896 0.4350637,0.268772 0.6903628,0.222926 0.1162322,-0.02087 0.2363822,-0.06502 0.3591375,-0.121325 -0.014801,0.04344 -0.036018,0.08711 -0.045404,0.131373 -0.021003,0.09905 -0.036084,0.209176 0.021958,0.336808 0.055855,0.122822 0.2250256,0.212074 0.3382964,0.211017 0.1132707,-0.0011 0.1906359,-0.03658 0.2679575,-0.07518 0.1546429,-0.07719 0.3033876,-0.191437 0.4488289,-0.31299 0.290883,-0.243105 0.5548954,-0.517679 0.5548954,-0.517679 0.02422,-0.02502 0.04322,-0.05478 0.056197,-0.08709 l 0.4052858,-1.016006 c 0.115521,-0.0063 0.2224139,-0.0627 0.2928925,-0.154448 0.1630116,-0.211277 0.4815106,-0.483387 0.7674006,-0.630444 0.142945,-0.07353 0.277319,-0.114382 0.363231,-0.122814 0.04317,-0.0042 0.0689,-0.0031 0.08523,3.72e-4 0.256865,0.368795 0.531879,0.70655 0.799034,1.006702 0.401262,0.450824 0.787717,0.81641 1.082251,1.070341 0.147267,0.126966 0.270946,0.225395 0.366209,0.29587 0.04763,0.03524 0.08645,0.06261 0.126535,0.08746 0.02004,0.01243 0.03885,0.02418 0.07294,0.03982 0.01705,0.0078 0.0364,0.01731 0.07964,0.02791 0.02162,0.0053 0.04955,0.01169 0.09565,0.01191 0.02305,1.06e-4 0.05101,-0.0015 0.0856,-0.0089 0.03459,-0.0074 0.120726,-0.04751 0.120953,-0.04764 0.188275,-0.111945 0.25021,-0.354978 0.138444,-0.543359 -0.04414,-0.07457 -0.111417,-0.1329 -0.191664,-0.165612 -0.01352,-0.0093 -0.03313,-0.02311 -0.0562,-0.04019 -0.07327,-0.0542 -0.185272,-0.142835 -0.320061,-0.259026 -0.269562,-0.232402 -0.633244,-0.575859 -1.007446,-0.996281 -0.748404,-0.840844 -1.527862,-1.993846 -1.733908,-3.158177 -0.03669,-0.207304 -0.103062,-0.398206 -0.192781,-0.572387 -0.150052,-0.735269 -0.139266,-0.865805 0.334947,-1.69111 0.04056,-0.0706 0.05825,-0.15225 0.05099,-0.233346 0.767906,-0.459813 1.077838,-0.821885 1.438784,-1.58616 0.08685,-0.193539 0.165436,-0.3879668 0.201712,-0.5779697 0.01814,-0.095002 0.03201,-0.189524 -0.0011,-0.3118728 -0.0332,-0.1223482 -0.180484,-0.2770286 -0.329737,-0.2999636 -0.155097,-0.023833 -0.269215,0.025496 -0.369558,0.078154 -0.04485,0.023534 -0.08534,0.059832 -0.127652,0.088947 0.02344,-0.1493169 0.03396,-0.2927196 0.02121,-0.4242661 C 11.865287,8.3013399 11.71105,8.022355 11.443724,7.9148005 11.343477,7.8744675 11.239617,7.8579815 11.13334,7.8619535 Z m 0.2305,0.7768487 c 0.04755,0.2040776 -0.273273,1.5516427 -0.367824,1.5942067 0.06846,0.274748 0.864155,-0.4139788 0.983255,-0.5254951 -0.01338,0.03217 -0.01555,0.051202 -0.03015,0.083737 -1.009133,2.2486931 -3.1674065,1.1405281 -3.1630159,1.0971371 0.014082,-0.139173 0.232652,-0.159678 0.4049137,-0.109788 0.7704463,-0.0086 1.7494742,0.11051 0.2307412,-0.654635 C 9.0693731,9.9162465 8.8867666,9.7167786 8.8247961,9.5917494 8.7846371,9.5107282 8.7907164,9.4776934 8.7927901,9.4707964 h -0.00112 v -7.443e-4 l 3.722e-4,-3.722e-4 7.443e-4,-3.722e-4 c 0.00463,-0.00293 0.020154,-0.00862 0.062151,-0.00893 C 9.6328867,9.4544377 10.156063,9.2257703 10.484268,8.979915 10.64837,8.8569874 10.7643,8.7304768 10.841545,8.6360361 c 0.09158,-0.1594332 0.459994,-0.2645847 0.52228,0.00275 z M 4.5583166,8.8552384 c 0.00204,7.188e-4 0.011851,0.00824 0.046148,0.033123 0.1891292,0.4116624 0.8092966,1.7824286 0.9892099,1.9300386 0.1223843,0.100412 0.4024011,0.178128 0.4633433,0.07815 0.074832,-0.122752 0.098953,-0.236136 0.1161149,-0.344623 0.034323,-0.216975 0.030181,-0.433425 0.039449,-0.6475649 0.00927,-0.2141402 0.03104,-0.4197524 0.079643,-0.5694098 0.00315,-0.0097 0.010182,-0.010203 0.013398,-0.019353 0.029691,0.1229154 0.062006,0.2178703 0.08262,0.3751406 0.066628,0.5083121 0.1177681,0.7160891 0.074805,1.0714581 -0.019694,0.162893 -0.058676,0.212495 -0.150354,0.468553 -0.1029999,0.287683 -0.2587544,0.629261 -0.3524386,0.752887 -0.1021793,0.134835 -0.4059684,0.390004 -0.6695217,0.577225 -0.2386649,0.169542 -0.27951,0.22272 -0.4417577,0.29252 -0.3013059,0.129623 -0.4899805,0.140486 -0.9586926,0.222182 -0.068919,0.01201 -0.1068754,0.008 -0.1730559,0.01675 0.1403472,-0.09635 0.2793925,-0.194403 0.4469681,-0.28731 0.2378651,-0.131877 0.4781688,-0.251237 0.6591011,-0.338669 0.090466,-0.04371 0.1662639,-0.07909 0.2229258,-0.10681 0.02833,-0.01386 0.050821,-0.02453 0.075549,-0.03796 0.012363,-0.0067 0.022902,-0.01275 0.048009,-0.02977 0.012554,-0.0085 0.027617,-0.01581 0.062896,-0.05136 0.00882,-0.0089 0.018871,-0.02024 0.031262,-0.0361 0.012384,-0.01587 0.0431,-0.06797 0.043171,-0.06811 7.09e-5,-1.43e-4 0.039811,-0.139815 0.039822,-0.139934 6.4e-6,-4e-5 -0.00556,-0.02829 -0.012654,-0.06438 -0.2983474,-0.04636 -2.6768577,0.120426 -2.8500262,0.02977 -0.1129768,-0.05914 -0.1074919,-0.06564 -0.1030892,-0.152215 0.07157,-0.261288 0.1819823,-0.381161 0.3944931,-0.525494 0.1458419,-0.068 0.3440105,-0.174872 0.5545232,-0.344623 0.4210256,-0.339506 0.8844423,-0.933914 1.1451463,-1.9263174 0.028609,-0.1089033 0.080142,-0.1492873 0.084481,-0.1514705 v -7.443e-4 h 7.443e-4 V 8.8600765 8.8593322 L 4.5598052,8.85896 C 4.5591756,8.85782 4.5582952,8.85631 4.5579452,8.85561 Z m 3.9579562,7.0733346 c 0.0501,0.05527 0.088901,0.0863 0.141422,0.15482 0.9193656,0.759899 0.3151914,2.716265 -0.3196882,2.83179 -0.031353,0.0057 -0.039583,0.02648 -0.064012,0.04578 0.067087,-0.129432 0.1524301,-0.444384 0.1948822,-0.606297 0.1872709,-0.714259 -1.0618096,0.235919 -1.2715505,0.273583 -0.1301738,0.02338 -0.1515231,9.9e-4 -0.1689621,-0.02158 -0.015781,-0.02047 -0.035535,-0.125158 -0.00856,-0.286938 0.01571,-0.02082 0.033288,-0.04292 0.057685,-0.07778 0.062532,-0.0893 0.1427764,-0.219868 0.2087836,-0.390771 0.1320175,-0.341806 0.2025575,-0.847121 0.019353,-1.517682 -0.00989,-0.0362 -0.00995,-0.05077 -0.00856,-0.05545 v -3.73e-4 h 7.443e-4 v -7.44e-4 h 3.721e-4 7.444e-4 v 0.0011 c 0.00484,-0.0032 0.031396,-0.01741 0.1120211,-0.0022 0.1796559,0.05773 1.3716511,1.581507 1.2569917,0.290879 -0.014181,-0.15962 -0.1128408,-0.524836 -0.1516668,-0.638108 z"
         sodipodi:nodetypes="scssssccsccccscccssscsscssssccsccccssccccccccsssscssssscsssscssccsccccsccsssscssscccccsscsccscsscsscsccscccsccccccsccscsssscssssssscscsccccsscsccssccccccccccscsscccssccccccccscscsc"
         transform="matrix(1.388542,0,0,1.388542,17.731937,10.762963)" /></g></g></svg>
