<?xml version="1.0" encoding="UTF-8" standalone="no"?>
<!-- Created with Inkscape (http://www.inkscape.org/) -->

<svg
   width="250"
   height="80"
   viewBox="0 0 66.145832 21.166667"
   version="1.1"
   id="svg1"
   inkscape:version="1.4.2 (1:1.4.2+202505120738+ebf0e940d0)"
   sodipodi:docname="logo_banner_mono.svg"
   xml:space="preserve"
   xmlns:inkscape="http://www.inkscape.org/namespaces/inkscape"
   xmlns:sodipodi="http://sodipodi.sourceforge.net/DTD/sodipodi-0.dtd"
   xmlns="http://www.w3.org/2000/svg"
   xmlns:svg="http://www.w3.org/2000/svg"><sodipodi:namedview
     id="namedview1"
     pagecolor="#ffffff"
     bordercolor="#666666"
     borderopacity="1.0"
     inkscape:showpageshadow="2"
     inkscape:pageopacity="0.0"
     inkscape:pagecheckerboard="0"
     inkscape:deskcolor="#d1d1d1"
     inkscape:document-units="px"
     inkscape:export-bgcolor="#ffffffff"
     inkscape:zoom="1.5026019"
     inkscape:cx="76.53391"
     inkscape:cy="66.21847"
     inkscape:window-width="1920"
     inkscape:window-height="1016"
     inkscape:window-x="0"
     inkscape:window-y="27"
     inkscape:window-maximized="1"
     inkscape:current-layer="g38"
     showguides="true" /><defs
     id="defs1" /><g
     inkscape:label="Camada 1"
     inkscape:groupmode="layer"
     id="layer1"><g
       id="g38"
       transform="translate(-4.4020863,-1.3206259)"><path
         id="path31"
         style="baseline-shift:baseline;display:inline;overflow:visible;vector-effect:none;fill:#000000;stroke-width:1.13005;stroke-linejoin:round;enable-background:accumulate;stop-color:#000000"
         d="M 38.446204 3.7610837 C 38.148769 3.7610837 37.797546 3.9972001 37.392838 4.4701438 C 36.993007 4.9373902 36.590799 5.54184 36.186092 6.2825964 C 35.78626 7.0233513 35.415851 7.7497016 35.074532 8.4619678 C 34.738088 9.168534 34.415871 9.8637261 34.108684 10.547501 C 33.806372 11.231275 33.633328 11.616031 33.589444 11.701503 C 33.540684 11.786975 33.516363 11.841082 33.516363 11.863875 C 33.516363 11.932252 33.599146 11.966148 33.76493 11.966148 C 33.930714 11.966148 34.050431 11.9492 34.123571 11.915012 C 34.19671 11.886521 34.267332 11.795253 34.335597 11.641404 C 34.408737 11.493252 34.567278 11.22545 34.811078 10.837978 C 35.059753 10.450506 35.352063 10.065751 35.688506 9.6839762 C 36.029826 9.3022016 36.300606 9.1114563 36.500522 9.1114563 C 36.53953 9.1171589 36.566194 9.1313651 36.580822 9.1541581 C 36.600325 9.176951 36.610145 9.2053729 36.610145 9.2395616 C 36.610145 9.4275996 36.519885 9.7325622 36.339473 10.154223 C 36.163937 10.570186 35.961887 10.974626 35.732716 11.367796 L 35.703393 11.462162 C 35.703393 11.507746 35.739876 11.530168 35.813015 11.530168 C 36.042187 11.530168 36.232526 11.424689 36.383682 11.213859 C 36.700622 10.769406 36.983112 10.242538 37.231788 9.6328396 C 37.402448 9.1997818 37.488024 8.8407132 37.488024 8.5558062 C 37.488024 8.2709006 37.383261 8.1287886 37.173594 8.1287886 C 37.002933 8.1287886 36.780796 8.2282671 36.50774 8.4277009 C 36.23956 8.6214375 36.047331 8.7782869 35.930307 8.8979475 C 35.818158 9.0176081 35.725105 9.1170852 35.651966 9.1968598 C 35.588577 9.2538402 35.537592 9.2822634 35.498585 9.2822634 C 35.464452 9.2822634 35.447157 9.2511038 35.447157 9.1884249 C 35.447157 9.0345756 35.605698 8.6044504 35.922638 7.8978828 C 36.239577 7.1913165 36.595483 6.5043348 36.990439 5.8376545 C 37.390271 5.1709743 37.678347 4.838117 37.853883 4.838117 C 37.907518 4.838117 37.941659 4.8523286 37.956287 4.8808188 C 37.970915 4.9036117 37.977941 4.9489815 37.977941 5.017359 C 37.977941 5.2224914 37.836695 5.578825 37.553888 6.0859574 C 37.275956 6.5930911 36.89807 7.0401643 36.420223 7.4276362 L 36.376464 7.5130397 C 36.376464 7.5643228 36.422766 7.5900083 36.515409 7.5900083 C 36.61293 7.5900083 36.705532 7.5670592 36.793299 7.5214746 C 37.183379 7.3106437 37.61225 6.8608341 38.080345 6.1713609 C 38.553317 5.481889 38.789957 4.8348044 38.789957 4.230803 C 38.789957 3.9174072 38.675376 3.7610837 38.446204 3.7610837 z M 26.886251 4.5871782 A 0.55243551 0.55243551 0 0 0 26.610165 4.6609838 L 21.595063 7.557323 L 16.580411 4.6609838 A 0.55243551 0.55243551 0 0 0 16.303875 4.5877054 A 0.55243551 0.55243551 0 0 0 16.027789 4.6609838 A 0.55243551 0.55243551 0 0 0 15.751704 5.1401924 L 15.751704 8.6253943 C 15.678564 8.6263273 15.606364 8.6456233 15.552309 8.68233 C 15.368598 8.8070797 15.260128 9.0007164 15.189157 9.1963327 C 15.087175 8.9290863 14.96411 8.7209019 14.80796 8.5884915 C 14.624706 8.4330974 14.371758 8.3979755 14.182257 8.5094142 C 13.992755 8.6208528 13.877039 8.831374 13.824519 9.0650643 C 13.663596 9.7809187 13.407566 10.136923 13.193402 10.338737 C 12.826319 10.684648 12.663427 10.683139 12.509503 10.91442 C 12.377163 11.113271 12.306 11.331656 12.296124 11.558636 C 12.282955 11.861278 12.439323 12.167083 12.674613 12.312507 C 12.810754 12.39665 12.971347 12.438647 13.146936 12.458009 C 13.067482 12.559147 13.003248 12.677614 12.988593 12.853923 C 12.974707 13.021054 13.082057 13.22214 13.187086 13.291484 C 13.292116 13.360831 13.382586 13.371953 13.474449 13.378469 C 13.658176 13.391496 13.856181 13.360464 14.055041 13.319952 C 14.567691 13.270478 14.898406 13.093459 15.298779 12.771683 C 15.447586 12.648152 15.611586 12.507692 15.751704 12.347301 L 15.751704 15.014843 A 0.55243551 0.55243551 0 0 0 16.027789 15.492997 L 16.040421 15.500378 C 16.042079 15.509074 16.043829 15.517633 16.045834 15.52621 C 16.158919 16.009908 16.112087 16.319929 16.044932 16.523112 C 16.011355 16.624702 15.971516 16.70022 15.938016 16.756126 C 15.921264 16.784075 15.906559 16.806046 15.892002 16.828877 C 15.877433 16.8517 15.858346 16.838349 15.835612 16.95751 C 15.824001 17.018366 15.815879 17.078549 15.812154 17.136752 C 15.80098 17.31136 15.828133 17.471214 15.913205 17.600145 C 16.026633 17.772053 16.22705 17.827003 16.411241 17.788349 C 16.4951 17.770753 16.582071 17.733547 16.670635 17.686076 C 16.659957 17.722701 16.644475 17.759465 16.637704 17.796784 C 16.622551 17.880295 16.611617 17.973326 16.653493 18.080935 C 16.693791 18.184489 16.815827 18.259487 16.897549 18.258596 C 16.979271 18.257668 17.035294 18.227878 17.091079 18.195334 C 17.20265 18.130253 17.309601 18.033699 17.414532 17.931215 C 17.624397 17.726249 17.815127 17.494708 17.815127 17.494708 C 17.832601 17.473614 17.846365 17.448671 17.855728 17.42143 L 18.104746 16.692337 L 21.318977 18.548019 A 0.55238027 0.55238027 0 0 1 21.319428 18.548019 A 0.55238027 0.55238027 0 0 0 21.383487 18.580177 A 0.55238027 0.55238027 0 0 0 21.38439 18.580177 A 0.55238027 0.55238027 0 0 0 21.523335 18.617607 A 0.55238027 0.55238027 0 0 0 21.667242 18.617607 A 0.55238027 0.55238027 0 0 0 21.738068 18.603373 A 0.55238027 0.55238027 0 0 0 21.807089 18.580177 A 0.55238027 0.55238027 0 0 0 21.871599 18.548019 L 25.849125 16.251086 C 25.921291 16.329808 25.994834 16.407371 26.069272 16.483046 C 26.5187 16.939944 26.985296 17.32461 27.398272 17.527921 C 27.604761 17.629575 27.798395 17.726829 28.073148 17.625977 C 28.210522 17.575548 28.357223 17.430248 28.418254 17.264857 C 28.479291 17.09947 28.476932 16.944811 28.458404 16.800409 C 28.288512 15.476376 28.393697 14.608063 28.526974 14.083312 C 28.660254 13.558559 28.786368 13.419062 28.786368 13.419062 C 28.879284 13.300166 28.912412 13.133941 28.873886 12.97992 C 28.895987 12.968335 28.917455 12.955448 28.938847 12.941963 C 28.902107 13.246257 28.923852 13.545354 28.942907 13.816031 C 28.973075 14.244522 29.034485 14.595733 29.034485 14.595733 C 29.079644 14.854808 29.283317 15.013013 29.489214 14.948945 C 29.694861 14.885017 29.824901 14.623556 29.779735 14.364827 C 29.779735 14.364827 29.727943 14.06643 29.702593 13.706377 C 29.678194 13.359764 29.713442 12.952122 29.744999 12.852342 L 29.74545 12.852342 L 29.74545 12.852869 L 29.745901 12.852869 L 29.745901 12.853396 L 29.746352 12.853396 L 29.746803 12.853396 L 29.746803 12.852869 C 29.761441 12.848075 29.861181 12.716574 29.962439 12.637778 C 30.083121 12.543883 30.19251 12.478569 30.19251 12.478569 C 30.38507 12.364502 30.472105 12.076839 30.386943 11.835934 C 30.301713 11.595081 30.076558 11.492193 29.883944 11.606083 C 29.883944 11.606083 29.738503 11.69177 29.574926 11.819064 C 29.463584 11.905702 29.337617 11.9898 29.223955 12.142227 C 29.248181 11.992233 29.320655 11.715204 29.422448 11.386248 C 29.629563 10.716932 29.954232 9.8092429 30.237171 8.9264153 C 30.520109 8.0435878 30.767762 7.2059588 30.810093 6.5345895 C 30.831258 6.1989036 30.8251 5.838336 30.559722 5.5661557 C 30.427033 5.4300669 30.241416 5.3692359 30.078828 5.3742613 C 29.916239 5.3792868 29.765621 5.431793 29.605603 5.5123831 C 28.837725 5.8991582 28.359986 6.5643044 27.873752 7.1303054 C 27.731124 7.2963375 27.588875 7.4553475 27.438422 7.6031879 L 27.438422 5.1401924 A 0.55243551 0.55243551 0 0 0 27.162787 4.6609838 A 0.55243551 0.55243551 0 0 0 26.886251 4.5871782 z M 35.564448 5.2994015 C 35.408416 5.2994015 35.271855 5.3278247 35.154831 5.384805 C 35.042684 5.4417867 34.98188 5.4702085 34.972128 5.4702085 C 34.967248 5.4702085 34.915815 5.4477865 34.818296 5.402202 C 34.720776 5.3509189 34.581872 5.3252334 34.401461 5.3252334 C 34.016257 5.3252334 33.633687 5.4449234 33.25336 5.6842445 C 32.873032 5.9235656 32.541448 6.2279997 32.25864 6.5983785 C 31.975832 6.968756 31.721895 7.3704594 31.4976 7.8035172 C 31.273304 8.2308763 31.103054 8.6440536 30.98603 9.0429226 C 30.873882 9.4417903 30.817762 9.7811759 30.817762 10.060384 C 30.817762 11.017669 31.21997 11.495902 32.024509 11.495902 C 32.307317 11.495902 32.580439 11.422109 32.843743 11.273958 C 33.107046 11.120109 33.321257 10.937574 33.48704 10.726743 C 33.652824 10.515913 33.784702 10.310955 33.882221 10.111521 C 33.984617 9.9120872 34.035602 9.7694481 34.035602 9.6839762 C 34.035602 9.5985044 34.023441 9.5416607 33.999061 9.5131692 C 33.979557 9.4789805 33.962713 9.4620325 33.948085 9.4620325 C 33.938337 9.4563299 33.921037 9.4535976 33.896657 9.4535976 C 33.877153 9.4535976 33.857966 9.4760196 33.838463 9.5216041 C 33.380119 10.256662 32.906837 10.624469 32.419239 10.624469 C 32.009655 10.624469 31.804813 10.36214 31.804813 9.8379135 C 31.804813 9.3991572 31.934349 8.8662899 32.192776 8.2394969 C 32.45608 7.6070053 32.768028 7.0571887 33.128851 6.5899436 C 33.49455 6.1226972 33.808839 5.8893184 34.072143 5.8893184 C 34.169662 5.8893184 34.245421 5.9232143 34.299056 5.9915918 C 34.357568 6.0599692 34.391708 6.1200778 34.401461 6.1713609 C 34.411209 6.222644 34.415896 6.3079109 34.415896 6.4275715 C 34.415896 6.547232 34.381756 6.7068191 34.313492 6.906253 C 34.245229 7.0999896 34.177399 7.256839 34.109135 7.3764995 C 34.043005 7.4868998 34.008797 7.5489765 34.00673 7.563122 L 34.00673 7.5636492 L 34.00673 7.5641764 C 34.00673 7.6268566 34.053031 7.658542 34.145675 7.658542 C 34.174931 7.658542 34.199254 7.6558097 34.218757 7.6501071 C 34.374789 7.6501071 34.584315 7.4872565 34.847618 7.1624635 C 35.110922 6.8376706 35.335402 6.4988121 35.52069 6.145529 C 35.710853 5.7922445 35.805797 5.5643398 35.805797 5.4617736 C 35.805797 5.3535088 35.725356 5.2994015 35.564448 5.2994015 z M 16.856497 6.0970282 L 21.04244 8.5136316 L 21.04244 17.112501 L 21.029358 17.105121 L 21.028907 17.104594 C 21.009354 17.085473 20.988796 17.064838 20.967555 17.04344 C 20.773073 16.847498 20.510776 16.558104 20.2408 16.203639 C 19.700847 15.494709 19.1385 14.52251 18.989844 13.540842 C 18.963373 13.36606 18.915629 13.205325 18.850899 13.05847 C 18.742641 12.438551 18.750117 12.328271 19.092248 11.632442 C 19.121511 11.572918 19.134478 11.504176 19.12924 11.435803 C 19.683263 11.048126 19.906855 10.742715 20.167267 10.098341 C 20.229927 9.9351653 20.286356 9.7714199 20.312528 9.6112251 C 20.325616 9.5311272 20.335965 9.4513156 20.312077 9.3481611 C 20.288124 9.2450072 20.181567 9.1144506 20.073886 9.0951137 C 19.961987 9.0750196 19.879668 9.1166146 19.807274 9.1610114 C 19.774916 9.1808534 19.745772 9.2118511 19.715245 9.2363985 C 19.732156 9.1105068 19.739782 8.9893509 19.730583 8.8784418 C 19.710375 8.6348339 19.599096 8.399766 19.406228 8.3090849 C 19.333902 8.2750795 19.259148 8.2609256 19.182472 8.2642744 C 18.949301 8.2817966 18.775185 8.3916034 18.635715 8.5963993 C 18.594331 8.6555237 18.536936 8.7278735 18.453462 8.800946 C 18.286513 8.9470917 18.015178 9.1008478 17.534982 9.1051301 C 17.368347 9.106614 17.19839 9.1980571 17.114989 9.3724115 C 17.031587 9.5467664 17.048594 9.7607086 17.128071 9.9480945 C 17.181976 10.075188 17.273371 10.198251 17.384307 10.318176 C 17.239431 10.33143 17.088687 10.37733 16.971533 10.516924 C 16.898674 10.603744 16.863241 10.781441 16.900707 10.895441 C 16.938173 11.009441 16.998695 11.068407 17.058599 11.121602 C 17.178412 11.227987 17.325185 11.304184 17.478592 11.375704 C 17.830529 11.583005 18.100938 11.643554 18.465642 11.581305 C 18.353655 11.846679 18.286786 12.078432 18.255872 12.307235 C 17.921569 12.048828 17.532619 11.894139 17.15965 11.792705 C 17.05721 11.764845 16.955639 11.741207 16.856497 11.721008 L 16.856497 6.0970282 z M 26.334531 6.0970282 L 26.334531 8.3349169 C 26.255714 8.3649559 26.173596 8.3924068 26.087768 8.4171573 C 25.460013 8.5981869 24.999348 8.8128171 24.661777 9.0850972 C 24.324206 9.3573773 24.098729 9.7250578 24.067201 10.132081 C 24.035671 10.539102 24.188244 10.90514 24.398323 11.205951 C 24.608401 11.506761 24.886931 11.766271 25.204024 12.000415 C 25.547046 12.253705 25.9358 12.476235 26.334531 12.655175 L 26.334531 12.861831 C 25.923429 12.972021 25.502195 13.133962 25.118311 13.371089 C 24.865895 13.526996 24.703762 13.881326 24.709145 14.181895 C 24.714528 14.482464 24.813 14.738885 24.942374 14.995337 C 25.005963 15.12139 25.079269 15.24765 25.160265 15.373327 L 22.147685 17.112501 L 22.147685 8.5136316 L 26.334531 6.0970282 z M 30.027851 6.3242438 C 30.024073 6.3333759 30.026088 6.3162392 30.016573 6.4671102 C 29.988962 6.905025 29.766617 7.743853 29.491018 8.6037798 C 29.215418 9.4637041 28.892474 10.365747 28.673588 11.073101 C 28.564145 11.426778 28.479927 11.725391 28.439457 11.986708 C 28.431545 12.0378 28.440742 12.098741 28.436299 12.149608 C 28.389984 12.168458 28.396496 12.183659 28.304572 12.191782 C 28.106083 12.20934 27.824023 12.180538 27.515112 12.10427 C 26.897292 11.951738 26.165384 11.613885 25.630783 11.219131 C 25.363483 11.021754 25.14616 10.808871 25.015906 10.622361 C 24.885653 10.435851 24.853269 10.299932 24.859819 10.215376 C 24.866368 10.13082 24.901882 10.017821 25.115153 9.8458212 C 25.328424 9.6738209 25.708852 9.479905 26.279043 9.3154758 C 26.298456 9.3098773 26.315387 9.3018312 26.334531 9.2959701 L 26.334531 9.2970245 C 26.44435 9.2602741 26.553803 9.2227748 26.662044 9.1815716 C 26.68602 9.1724446 26.709921 9.163156 26.733772 9.1536309 C 26.984273 9.0504213 27.217993 8.9129536 27.438422 8.7508637 L 27.438422 8.7429559 C 27.834815 8.4537395 28.154614 8.1124245 28.43675 7.7840114 C 28.951653 7.1846421 29.353959 6.6474821 29.921387 6.3616737 C 29.981079 6.3316016 29.996685 6.3325369 30.027851 6.3242438 z M 53.425196 7.7096787 C 53.317924 7.7096787 53.225322 7.7298902 53.147306 7.7697775 C 53.06929 7.8039662 53.015512 7.8438633 52.986256 7.8894479 C 52.957 7.9350337 52.930336 7.9776658 52.905957 8.0175531 C 52.886452 8.0517419 52.864473 8.0686898 52.840093 8.0686898 C 52.815714 8.0629873 52.764276 8.0602549 52.686261 8.0602549 C 52.252297 8.0602549 51.864594 8.1772085 51.523274 8.4108311 C 51.181955 8.6387564 51.011703 8.9092946 51.011703 9.2226918 C 51.011703 9.4335227 51.128627 9.6357419 51.362675 9.8294785 C 51.596723 10.017517 51.713646 10.214263 51.713646 10.419395 C 51.713646 10.698603 51.518623 10.966406 51.128543 11.222821 C 50.74334 11.479237 50.379957 11.607137 50.038637 11.607137 C 49.985002 11.618529 49.958338 11.646956 49.958338 11.692541 C 49.982717 11.852088 50.138917 11.931881 50.426601 11.931881 C 50.933704 11.931881 51.404192 11.772296 51.838155 11.4532 C 52.272119 11.139804 52.489122 10.78947 52.489122 10.401998 C 52.489122 10.265244 52.449846 10.13408 52.371831 10.008721 C 52.298691 9.8833627 52.215906 9.7811465 52.123263 9.7013733 C 51.879463 9.5019381 51.757405 9.3051916 51.757405 9.1114563 C 51.757405 8.9120211 51.837846 8.761173 51.998754 8.6586068 C 52.164537 8.550342 52.323079 8.4962346 52.474235 8.4962346 C 52.552251 8.4962346 52.591526 8.5328669 52.591526 8.6069429 C 52.591526 8.6240373 52.578914 8.6814095 52.554534 8.7782771 C 52.530153 8.8694475 52.517993 8.9574508 52.517993 9.0429226 C 52.517993 9.1226959 52.549791 9.20849 52.61318 9.2996604 C 52.676567 9.3851322 52.740164 9.4277657 52.803552 9.4277657 C 52.871816 9.4277657 52.915776 9.4020802 52.93528 9.3507971 C 53.027924 9.0772872 53.173853 8.7837985 53.373768 8.4704027 C 53.573685 8.1570055 53.712587 7.960259 53.790603 7.8804858 C 53.795483 7.869094 53.798272 7.8548784 53.798272 7.837784 C 53.798272 7.7523122 53.673872 7.7096787 53.425196 7.7096787 z M 50.411714 7.8804858 C 50.060642 7.8804858 49.731399 7.9832278 49.424212 8.1883602 C 49.1219 8.3877954 48.875892 8.6359116 48.685728 8.9322143 C 48.500441 9.2285171 48.35406 9.5362161 48.246788 9.8553105 C 48.139517 10.168708 48.085738 10.470405 48.085738 10.76101 C 48.085738 11.045915 48.151677 11.285295 48.283329 11.479032 C 48.414981 11.678466 48.622164 11.777944 48.904972 11.777944 C 48.99274 11.777944 49.073182 11.755522 49.146322 11.709938 C 49.219462 11.664352 49.255944 11.601508 49.255944 11.521734 C 49.255944 11.487545 49.219462 11.453649 49.146322 11.41946 C 49.073182 11.385271 49.000217 11.31969 48.927077 11.222821 C 48.853937 11.125954 48.817455 10.983314 48.817455 10.795276 C 48.817455 10.607238 48.848802 10.482074 48.91219 10.419395 C 48.975577 10.356715 49.099979 10.316819 49.285267 10.299725 C 49.47543 10.276934 49.692434 10.191138 49.936233 10.042987 C 50.180032 9.8948366 50.402171 9.6784045 50.602086 9.3934988 C 50.802002 9.1085932 50.90163 8.8008929 50.90163 8.4704027 C 50.90163 8.3108548 50.860465 8.1742182 50.777572 8.0602549 C 50.69468 7.9405943 50.572621 7.8804858 50.411714 7.8804858 z M 44.765494 7.8978828 C 44.624091 7.8978828 44.51185 7.926306 44.428959 7.9832863 C 44.277802 8.0516638 43.950901 8.606953 43.448675 9.6497094 C 43.423344 9.7023019 43.398744 9.7538418 43.374691 9.8041738 C 43.371663 9.8087126 43.368595 9.8132299 43.365668 9.8178805 C 43.170628 10.131278 42.975606 10.387606 42.780566 10.587039 C 42.590402 10.786473 42.434653 10.914902 42.312754 10.971882 L 41.961783 11.14269 C 41.849635 11.199671 41.764058 11.26799 41.705546 11.347763 C 41.651911 11.421839 41.625247 11.492895 41.625247 11.561272 C 41.625247 11.62965 41.656595 11.664073 41.719982 11.664073 L 41.961783 11.664073 C 42.108062 11.664073 42.210032 11.675545 42.268544 11.69834 C 42.327056 11.715434 42.356513 11.766805 42.356513 11.852277 C 42.356513 11.932051 42.156806 12.341965 41.756974 13.08272 C 41.357143 13.817778 40.957276 14.567077 40.557446 15.330625 C 40.16249 16.094175 39.964674 16.553249 39.964674 16.707098 C 39.964674 16.860947 40.030613 17.011797 40.162264 17.159948 C 40.293916 17.308098 40.396337 17.381891 40.469477 17.381891 C 40.547494 17.381891 40.593794 17.35347 40.608422 17.296488 C 40.749826 16.658299 41.108074 15.755412 41.683442 14.587298 C 42.263684 13.419183 42.683188 12.623986 42.941616 12.202326 C 42.96112 12.168137 42.995259 12.105819 43.04402 12.014649 C 43.092779 11.923479 43.12692 11.866106 43.146424 11.843315 C 43.165928 11.820522 43.204752 11.786626 43.263264 11.741041 C 43.321776 11.695457 43.390056 11.667034 43.468073 11.655638 C 43.550964 11.644246 43.677708 11.638241 43.848367 11.638241 C 44.023903 11.638241 44.170283 11.584132 44.287307 11.475869 C 44.331191 11.435981 44.367673 11.390612 44.396929 11.339329 C 44.431061 11.288045 44.453041 11.245412 44.462793 11.211223 C 44.472541 11.177034 44.47768 11.148613 44.47768 11.12582 C 44.47768 11.103028 44.453357 11.091553 44.404598 11.091553 L 44.045958 11.108423 C 43.880173 11.108423 43.767934 11.10569 43.709422 11.099988 C 43.644583 11.099988 43.594357 11.090967 43.558297 11.073101 C 43.757343 10.717644 44.018103 10.334436 44.34099 9.923317 C 44.506774 9.712486 44.684953 9.5359523 44.875116 9.3934988 C 45.06528 9.2453481 45.238324 9.1715551 45.394356 9.1715551 C 45.418736 9.1715551 45.440715 9.1857667 45.460219 9.2142569 C 45.484599 9.2370498 45.49676 9.2709457 45.49676 9.3165302 C 45.49676 9.4703795 45.377495 9.7753421 45.138571 10.231191 C 44.904523 10.681344 44.787148 10.963356 44.787148 11.077319 C 44.787148 11.151394 44.872724 11.188554 45.043384 11.188554 C 45.21892 11.188554 45.348004 11.120235 45.430896 10.98348 L 45.738109 10.504799 C 45.942901 10.180006 46.191702 9.8580955 46.484262 9.5390011 C 46.776821 9.2142082 47.013012 9.0518847 47.193423 9.0518847 C 47.261687 9.0518847 47.295827 9.0945182 47.295827 9.17999 C 47.295827 9.2654618 47.230339 9.4332593 47.098687 9.6839762 C 46.703732 10.424733 46.505916 10.946126 46.505916 11.248126 C 46.505916 11.327901 46.527895 11.424641 46.571779 11.538603 C 46.615663 11.658264 46.67926 11.718373 46.762152 11.718373 C 46.781656 11.718373 46.81066 11.675739 46.849669 11.590267 C 46.888677 11.510494 46.949931 11.376592 47.032824 11.188554 C 47.120592 10.994818 47.188873 10.85218 47.237632 10.76101 C 47.286393 10.664142 47.378994 10.484871 47.515522 10.222756 C 47.656926 9.9606438 47.749528 9.7841074 47.793412 9.6929383 C 47.837296 9.5960694 47.920081 9.4135358 48.04198 9.1457232 C 48.168756 8.8722133 48.232352 8.6328333 48.232352 8.4277009 C 48.232352 8.1826812 48.112636 8.0602549 47.873712 8.0602549 C 47.698176 8.0602549 47.469013 8.1657333 47.186205 8.3765643 C 46.908273 8.5816967 46.708566 8.7467564 46.586666 8.8721156 C 46.469642 8.9974747 46.374247 9.1029531 46.301107 9.1884249 C 46.266975 9.239708 46.228151 9.2653935 46.184267 9.2653935 C 46.145259 9.2653935 46.125621 9.2424444 46.125621 9.1968598 C 46.125621 9.1740669 46.149944 9.1057493 46.198703 8.9917859 C 46.247463 8.8778239 46.272235 8.7526599 46.272235 8.615905 C 46.272235 8.4221697 46.174497 8.3249004 45.979458 8.3249004 C 45.789295 8.3249004 45.574634 8.3992192 45.33571 8.5473713 C 45.101662 8.6898235 44.940779 8.8067771 44.853011 8.8979475 C 44.765244 8.9834193 44.702097 9.0457384 44.66309 9.0856244 C 44.624082 9.1255117 44.587599 9.1457232 44.553468 9.1457232 C 44.519335 9.1457232 44.494563 9.1255117 44.479935 9.0856244 C 44.479935 8.9887568 44.563169 8.7952738 44.728953 8.5046695 C 44.899613 8.2083667 44.984739 8.0345694 44.984739 7.9832863 C 44.984739 7.926306 44.911774 7.8978828 44.765494 7.8978828 z M 43.39048 7.9231875 C 43.17106 7.9231875 43.002701 8.0089816 42.885677 8.1799253 L 42.819813 8.2821986 C 42.507749 8.4816338 42.244445 8.6756426 42.029902 8.8636807 C 41.942134 8.9320581 41.888356 8.965954 41.868852 8.965954 C 41.834721 8.965954 41.817875 8.9402685 41.817875 8.8889854 C 41.817875 8.8377023 41.873996 8.7185395 41.986143 8.5305015 C 42.098291 8.3424634 42.154411 8.2167722 42.154411 8.1540933 C 42.154411 8.0857159 42.086129 8.05182 41.949602 8.05182 C 41.817951 8.05182 41.698233 8.0829795 41.590962 8.1456584 C 41.434929 8.2140359 41.115506 8.7469032 40.632783 9.744075 C 40.154936 10.735548 39.916404 11.308313 39.916404 11.462162 C 39.916404 11.530539 39.981892 11.564435 40.113544 11.564435 C 40.371972 11.564435 40.542673 11.479168 40.625565 11.308225 C 40.762093 11.023319 40.913156 10.741306 41.078941 10.462097 C 41.244725 10.177192 41.449567 9.9033885 41.693366 9.6412745 C 41.937165 9.3734632 42.154169 9.2395616 42.344333 9.2395616 C 42.393093 9.2395616 42.417414 9.2767224 42.417414 9.3507971 C 42.358902 9.487552 42.329897 9.6099797 42.329897 9.7182431 C 42.329897 9.8208093 42.354219 9.9290254 42.402978 10.042987 C 42.451738 10.151252 42.52236 10.205359 42.615005 10.205359 C 42.639384 10.205359 42.661364 10.185675 42.680868 10.145788 C 42.944172 9.4734104 43.26828 8.8295893 43.653483 8.2141921 C 43.692492 8.1515132 43.716813 8.1056149 43.726565 8.0771247 C 43.726565 7.9745585 43.614776 7.9231875 43.39048 7.9231875 z M 40.011139 8.0001561 C 39.669819 8.0001561 39.343369 8.079949 39.031306 8.2394969 C 38.719242 8.3933462 38.453597 8.592829 38.234177 8.8378487 C 38.019633 9.0771699 37.829294 9.3394976 37.66351 9.6244046 C 37.341695 10.188519 37.180812 10.686963 37.180812 11.120021 C 37.180812 11.393153 37.242746 11.559174 37.366222 11.617681 C 37.362142 11.627566 37.357839 11.637274 37.353591 11.647203 C 36.841611 12.832413 36.336983 13.89762 35.839632 14.843509 C 35.34228 15.783699 35.010696 16.311094 34.844912 16.425056 L 34.801153 16.527329 C 34.801153 16.658385 35.037794 16.723968 35.510765 16.723968 C 35.988613 16.723968 36.227595 16.658385 36.227595 16.527329 C 36.227595 16.498839 36.220121 16.456204 36.20549 16.399224 C 36.195742 16.342242 36.191054 16.256975 36.191054 16.143013 C 36.191054 15.892296 36.515161 15.080151 37.163669 13.706904 C 37.765094 12.428069 38.230138 11.526553 38.558984 11.002459 C 38.570305 10.990278 38.581542 10.978265 38.592366 10.966083 C 38.728895 10.817933 38.819155 10.74414 38.863039 10.74414 C 38.892295 10.74414 38.906797 10.766562 38.906797 10.812146 L 38.892361 10.991915 C 38.892361 11.316708 39.011628 11.479032 39.250551 11.479032 C 39.294435 11.479032 39.318757 11.444609 39.323632 11.376231 C 39.352888 11.148306 39.450626 10.840608 39.616409 10.453135 C 39.78707 10.059965 39.918495 9.7779513 40.011139 9.6070076 C 40.103784 9.436064 40.16738 9.3196375 40.201512 9.2569586 C 40.24052 9.1885811 40.260158 9.1514217 40.260158 9.1457232 C 40.260158 9.0716485 40.169898 9.0257501 39.989485 9.0086558 C 39.86271 9.0086558 39.752811 9.0316049 39.660168 9.0771895 C 39.567524 9.1227753 39.513746 9.1714087 39.499118 9.2226918 C 39.279698 9.6671453 39.055669 10.00874 38.826498 10.248061 C 38.649854 10.428136 38.497886 10.538873 38.370415 10.580186 C 38.347365 10.579117 38.322863 10.578605 38.297334 10.578605 C 38.261777 10.578605 38.227613 10.578973 38.194479 10.579659 C 38.176274 10.568257 38.160075 10.55171 38.146209 10.530104 C 38.121829 10.484519 38.109668 10.436412 38.109668 10.385129 C 38.109668 9.9862596 38.28037 9.5845562 38.621689 9.17999 C 38.967886 8.7697252 39.333609 8.5642411 39.718813 8.5642411 C 40.011373 8.5642411 40.226035 8.6183485 40.362562 8.7266133 C 40.435702 8.7892922 40.494164 8.8209789 40.538048 8.8209789 C 40.62094 8.8209789 40.662106 8.741186 40.662106 8.5816382 C 40.662106 8.4163931 40.598959 8.2797538 40.472184 8.1714904 C 40.345407 8.057527 40.191551 8.0001561 40.011139 8.0001561 z M 49.987661 8.419266 C 50.124189 8.419266 50.192469 8.5072693 50.192469 8.6839115 C 50.192469 8.9859115 50.060592 9.2569782 49.797288 9.4962994 C 49.538861 9.7356205 49.309697 9.8553105 49.109781 9.8553105 C 49.026889 9.8553105 48.985723 9.8236237 48.985723 9.7609448 C 48.985723 9.5045294 49.102647 9.2170419 49.336694 8.8979475 C 49.575617 8.5788518 49.792621 8.419266 49.987661 8.419266 z M 19.19781 8.7814402 C 19.266799 8.7822944 19.328824 8.8209518 19.348484 8.919562 C 19.38279 9.0916234 19.151442 10.227463 19.083226 10.26335 C 19.132618 10.494994 19.70691 9.9145378 19.792838 9.8205164 C 19.783184 9.8476395 19.781266 9.863728 19.770733 9.8911589 C 19.054047 11.757448 17.533724 10.880677 17.489418 10.817945 C 17.489289 10.817722 17.48905 10.816561 17.488967 10.816364 C 17.499127 10.699024 17.65656 10.681516 17.780842 10.72358 C 18.336698 10.716329 19.043029 10.816727 17.947305 10.17162 C 17.693079 9.9965047 17.561647 9.8284021 17.516937 9.7229877 C 17.487963 9.6546773 17.491982 9.6265294 17.493479 9.6207144 L 17.493027 9.6207144 L 17.493027 9.6201872 L 17.493479 9.61966 C 17.496819 9.6171897 17.508291 9.6125408 17.538591 9.6122795 C 18.099859 9.6072713 18.477419 9.4141613 18.71421 9.2068763 C 18.832605 9.1032339 18.916069 8.9965507 18.971799 8.9169261 C 19.008965 8.8413143 19.10911 8.780342 19.19781 8.7814402 z M 14.438493 9.101967 C 14.439965 9.1025731 14.447132 9.1089284 14.471876 9.1299077 C 14.608327 9.4769876 15.055746 10.632867 15.185548 10.757319 C 15.273845 10.841978 15.47586 10.90751 15.519828 10.823217 C 15.573817 10.719723 15.591354 10.62368 15.603736 10.532212 C 15.628499 10.349277 15.62547 10.167124 15.632157 9.9865788 C 15.638845 9.8060334 15.654383 9.6324946 15.689449 9.5063158 C 15.691722 9.4981376 15.697054 9.4976877 15.699374 9.4899732 C 15.720795 9.5936053 15.744049 9.6736851 15.758922 9.8062825 C 15.806992 10.234849 15.844053 10.410255 15.813056 10.709873 C 15.798847 10.847211 15.770479 10.888845 15.704336 11.104732 C 15.630025 11.347283 15.517495 11.635229 15.449904 11.73946 C 15.376185 11.853142 15.157352 12.0682 14.967206 12.226049 C 14.795016 12.368993 14.765321 12.413921 14.648264 12.47277 C 14.43088 12.582058 14.29486 12.591041 13.956697 12.65992 C 13.906974 12.670046 13.879484 12.666777 13.831737 12.674154 C 13.932993 12.59292 14.033386 12.510509 14.154287 12.432177 C 14.3259 12.320989 14.49923 12.22016 14.629768 12.146445 C 14.695037 12.109592 14.749938 12.079668 14.790818 12.056296 C 14.811257 12.044611 14.827112 12.035988 14.844952 12.024665 C 14.853872 12.019017 14.861575 12.013711 14.879689 11.999361 C 14.888746 11.992194 14.899799 11.986105 14.925252 11.956132 C 14.931615 11.948628 14.938868 11.938927 14.947808 11.925555 C 14.956742 11.912175 14.978884 11.86821 14.978935 11.868092 C 14.978986 11.867972 15.007799 11.750104 15.007807 11.750003 C 15.007811 11.74997 15.003451 11.726132 14.998333 11.695704 C 14.783084 11.656617 13.067064 11.797442 12.942128 11.721008 C 12.860618 11.671146 12.864516 11.665896 12.867693 11.592903 C 12.919329 11.372607 12.999029 11.271233 13.15235 11.149543 C 13.25757 11.092211 13.400614 11.002186 13.552493 10.859065 C 13.856251 10.572822 14.190855 10.07153 14.378945 9.234817 C 14.399586 9.1429987 14.436716 9.1090796 14.439846 9.1072389 L 14.439846 9.1067117 L 14.440298 9.1067117 L 14.440298 9.1061845 L 14.440298 9.1056573 L 14.439846 9.1051301 C 14.439392 9.104169 14.438746 9.1030844 14.438493 9.1024942 L 14.438493 9.101967 z M 46.78155 12.057351 C 46.640147 12.057351 46.496108 12.111459 46.349828 12.219723 C 46.208425 12.327988 46.137802 12.467362 46.137802 12.638306 L 46.137802 12.64674 C 46.14755 12.846174 46.259794 12.94618 46.474337 12.94618 C 46.620617 12.94618 46.764203 12.892071 46.905608 12.783808 C 47.047011 12.669845 47.118086 12.527207 47.118086 12.356263 C 47.108337 12.156828 46.996094 12.057351 46.78155 12.057351 z M 16.856497 12.401601 C 16.913926 12.414602 16.972087 12.429032 17.030178 12.44483 C 17.370724 12.537446 17.710233 12.682086 17.962192 12.883445 C 18.114852 13.005446 18.234707 13.140181 18.316322 13.302555 C 18.322873 13.320311 18.330254 13.337521 18.339329 13.353692 C 18.37979 13.445763 18.40955 13.546633 18.426395 13.657876 C 18.508571 14.20053 18.684652 14.713889 18.907289 15.184069 C 18.819128 15.215719 18.733985 15.258639 18.651053 15.308484 C 18.538335 15.376239 18.42949 15.456757 18.328051 15.545716 L 17.945952 15.324826 C 17.884398 15.212936 17.797628 15.062478 17.704152 14.91995 C 17.614378 14.783068 17.522291 14.654027 17.414984 14.559358 C 17.361331 14.512025 17.303601 14.465565 17.210626 14.455503 C 17.117652 14.445436 16.994789 14.523631 16.948525 14.617875 C 16.931107 14.653361 16.918002 14.689529 16.908376 14.725947 L 16.856497 14.695898 L 16.856497 12.401601 z M 31.404218 12.688388 L 31.404218 15.305848 L 32.698031 15.305848 L 32.698031 14.87514 L 31.821956 14.87514 L 31.821956 14.149737 L 32.564499 14.149737 L 32.564499 13.746443 L 31.821956 13.746443 L 31.821956 13.119096 L 32.68946 13.119096 L 32.68946 12.688388 L 31.404218 12.688388 z M 32.9069 12.688388 L 32.9069 13.139129 L 33.643579 13.139129 L 33.643579 15.305848 L 34.064474 15.305848 L 34.064474 13.139129 L 34.801153 13.139129 L 34.801153 12.688388 L 32.9069 12.688388 z M 57.774445 12.988882 C 57.667173 12.988882 57.574571 13.008566 57.496555 13.048453 C 57.41854 13.082642 57.364761 13.122539 57.335505 13.168124 C 57.306249 13.21371 57.279587 13.25687 57.255206 13.296756 C 57.235703 13.330945 57.213723 13.347893 57.189342 13.347893 C 57.164963 13.34219 57.113527 13.339458 57.03551 13.339458 C 56.601547 13.339458 56.213843 13.455884 55.872523 13.689507 C 55.531203 13.917432 55.360952 14.188498 55.360952 14.501895 C 55.360952 14.712724 55.477876 14.914946 55.711924 15.108682 C 55.945972 15.29672 56.062895 15.492939 56.062895 15.698071 C 56.062895 15.97728 55.867872 16.245609 55.477793 16.502024 C 55.092589 16.75844 54.729205 16.88634 54.387886 16.88634 C 54.33425 16.897732 54.307587 16.926158 54.307587 16.971744 C 54.331967 17.13129 54.487714 17.211084 54.775399 17.211084 C 55.282502 17.211084 55.75344 17.051497 56.187404 16.732403 C 56.621368 16.419006 56.838371 16.068673 56.838371 15.681202 C 56.838371 15.544447 56.799096 15.413283 56.72108 15.287924 C 56.64794 15.162564 56.565157 15.06035 56.472512 14.980576 C 56.228713 14.781142 56.106654 14.584396 56.106654 14.390659 C 56.106654 14.191226 56.187095 14.040376 56.348003 13.93781 C 56.513787 13.829545 56.672329 13.775438 56.823484 13.775438 C 56.9015 13.775438 56.940775 13.812071 56.940775 13.886146 C 56.940775 13.90324 56.928164 13.960613 56.903783 14.05748 C 56.879404 14.148651 56.867242 14.236654 56.867242 14.322126 C 56.867242 14.4019 56.899042 14.487693 56.962429 14.578863 C 57.025817 14.664335 57.089413 14.706969 57.152802 14.706969 C 57.221065 14.706969 57.265024 14.681283 57.284529 14.63 C 57.377173 14.35649 57.523102 14.063003 57.723017 13.749606 C 57.922933 13.43621 58.061837 13.239463 58.139852 13.159689 C 58.144732 13.148297 58.147521 13.134081 58.147521 13.116987 C 58.147521 13.031515 58.023121 12.988882 57.774445 12.988882 z M 51.001779 13.023149 C 50.894508 13.023149 50.80893 13.03462 50.745542 13.057415 C 50.555379 13.114396 50.333692 13.367989 50.08014 13.818139 C 49.826589 14.262593 49.614269 14.729878 49.44361 15.219917 C 49.272949 15.709955 49.187825 16.05155 49.187825 16.245287 C 49.187825 16.439022 49.226649 16.570187 49.304665 16.638564 C 49.38268 16.706942 49.470599 16.740838 49.568119 16.740838 C 49.782663 16.740838 49.989847 16.675784 50.189762 16.544726 C 50.389679 16.407971 50.648299 16.159854 50.965238 15.800872 L 51.07486 15.7413 L 51.089296 15.7413 C 51.113676 15.7413 51.125837 15.760985 51.125837 15.800872 L 51.096514 16.125616 C 51.096514 16.490296 51.194251 16.672831 51.389291 16.672831 L 51.411396 16.672831 C 51.440652 16.672831 51.464973 16.638408 51.484477 16.570031 C 51.640509 15.971728 52.101179 14.98305 52.866709 13.604103 C 52.881337 13.575613 52.888814 13.553191 52.888814 13.536097 C 52.888814 13.467719 52.815398 13.433296 52.669119 13.433296 C 52.400939 13.433296 52.205916 13.536038 52.084016 13.741171 C 51.6403 14.430644 51.282053 14.934561 51.008997 15.253657 C 50.735941 15.572751 50.494617 15.732338 50.284949 15.732338 C 50.172801 15.732338 50.116681 15.638334 50.116681 15.450296 C 50.116681 15.262258 50.201806 14.980244 50.372466 14.604168 C 50.548002 14.228092 50.723839 13.894708 50.899374 13.604103 C 51.07491 13.307802 51.162377 13.148215 51.162377 13.125422 C 51.162377 13.057044 51.109051 13.023149 51.001779 13.023149 z M 48.909935 13.108552 C 48.485723 13.108552 48.0882 13.219505 47.717624 13.441731 C 47.347049 13.663958 47.047262 13.940497 46.818091 14.270989 C 46.588919 14.595782 46.408398 14.93464 46.276747 15.287924 C 46.145095 15.635509 46.079156 15.949208 46.079156 16.228417 C 46.079156 16.576003 46.179235 16.7498 46.379151 16.7498 C 46.540059 16.7498 46.700942 16.703902 46.861849 16.612733 C 47.027634 16.527261 47.161853 16.430519 47.264249 16.322255 C 47.37152 16.21399 47.471599 16.11725 47.564243 16.031778 C 47.656887 15.940607 47.722374 15.89471 47.761383 15.89471 C 47.80039 15.89471 47.820029 15.937871 47.820029 16.023343 C 47.820029 16.103116 47.644643 16.535979 47.293571 17.32232 C 46.9425 18.108661 46.540292 18.89512 46.086825 19.68146 C 45.638233 20.4735 45.30899 20.869202 45.099323 20.869202 C 45.011555 20.869202 44.967596 20.800883 44.967596 20.664128 L 44.967596 20.655693 C 44.967596 20.325202 45.08452 19.918024 45.318567 19.433685 C 45.547739 18.949344 45.804017 18.518691 46.086825 18.142615 C 46.374508 17.772237 46.610698 17.533385 46.795986 17.42512 C 46.854498 17.390932 46.883954 17.353772 46.883954 17.313885 C 46.883954 17.273998 46.854498 17.253786 46.795986 17.253786 L 46.774332 17.253786 C 46.559789 17.253786 46.293691 17.396425 45.976752 17.681331 C 45.659811 17.966237 45.362368 18.311095 45.084436 18.715663 C 44.801628 19.125927 44.560304 19.573001 44.360388 20.057341 C 44.160472 20.547379 44.060845 20.991716 44.060845 21.390585 C 44.060845 21.789453 44.163266 21.988937 44.368057 21.988937 C 44.616733 21.988937 44.899223 21.840824 45.216163 21.544522 C 45.533102 21.253918 45.838024 20.894848 46.130584 20.467489 C 46.423143 20.04013 46.732748 19.530211 47.05944 18.937606 C 47.391007 18.345001 47.673949 17.803923 47.907997 17.313885 C 48.142045 16.829544 48.426877 16.21141 48.763321 15.459258 C 49.10464 14.701408 49.275342 14.290966 49.275342 14.228287 C 49.275342 14.142815 49.170579 14.100182 48.960911 14.100182 C 48.751244 14.100182 48.639004 14.140078 48.624376 14.219852 C 48.35132 14.726985 48.075855 15.111213 47.797924 15.373327 C 47.524868 15.629743 47.310659 15.75817 47.154626 15.75817 C 47.05223 15.75817 47.000794 15.687115 47.000794 15.544661 C 47.000794 15.140095 47.171496 14.726918 47.512816 14.305256 C 47.859011 13.877897 48.214917 13.664202 48.580617 13.664202 C 48.946317 13.664202 49.217097 13.732521 49.392633 13.869276 C 49.451145 13.909162 49.492312 13.928848 49.516691 13.928848 C 49.599584 13.928848 49.6412 13.843581 49.6412 13.672637 C 49.6412 13.433316 49.514458 13.268256 49.260906 13.177086 C 49.134131 13.131501 49.017207 13.108552 48.909935 13.108552 z M 54.760963 13.159689 C 54.409891 13.159689 54.080648 13.262431 53.773461 13.467563 C 53.471148 13.666997 53.225141 13.914587 53.034977 14.21089 C 52.849689 14.507193 52.703308 14.814892 52.596037 15.133986 C 52.488765 15.447383 52.434987 15.749608 52.434987 16.040213 C 52.434987 16.325118 52.500926 16.564498 52.632578 16.758235 C 52.76423 16.957669 52.971413 17.057147 53.254221 17.057147 C 53.341989 17.057147 53.422431 17.034727 53.495571 16.989141 C 53.568711 16.943556 53.605193 16.88071 53.605193 16.800937 C 53.605193 16.766748 53.568711 16.732325 53.495571 16.698136 C 53.422431 16.663947 53.349466 16.598892 53.276326 16.502024 C 53.203186 16.405157 53.166704 16.262517 53.166704 16.074479 C 53.166704 15.886441 53.198051 15.760752 53.261439 15.698071 C 53.324828 15.635392 53.449228 15.596023 53.634516 15.578928 C 53.824679 15.556135 54.041683 15.470341 54.285482 15.32219 C 54.529283 15.174038 54.751419 14.957609 54.951335 14.672702 C 55.151251 14.387796 55.250879 14.080097 55.250879 13.749606 C 55.250879 13.590059 55.209713 13.45342 55.126821 13.339458 C 55.043928 13.219797 54.92187 13.159689 54.760963 13.159689 z M 44.996919 13.202391 C 44.777499 13.202391 44.609139 13.288185 44.492115 13.459128 L 44.426252 13.561402 C 44.114188 13.760836 43.850885 13.954846 43.636341 14.142884 C 43.548573 14.211261 43.495245 14.245157 43.475742 14.245157 C 43.441609 14.245157 43.424314 14.219472 43.424314 14.168188 C 43.424314 14.116905 43.480434 13.997215 43.592582 13.809177 C 43.704729 13.621139 43.76085 13.495975 43.76085 13.433296 C 43.76085 13.364919 43.692569 13.331023 43.556041 13.331023 C 43.424389 13.331023 43.304673 13.362181 43.197401 13.424861 C 43.041369 13.493239 42.722396 14.026106 42.239673 15.023278 C 41.761824 16.014751 41.522843 16.586989 41.522843 16.740838 C 41.522843 16.809215 41.58833 16.843638 41.719982 16.843638 C 41.978411 16.843638 42.149112 16.758371 42.232004 16.587428 C 42.368532 16.302522 42.520047 16.020507 42.68583 15.7413 C 42.851615 15.456393 43.056004 15.182592 43.299805 14.920478 C 43.543604 14.652666 43.760607 14.518765 43.950771 14.518765 C 43.999532 14.518765 44.024304 14.555924 44.024304 14.63 C 43.965792 14.766755 43.936335 14.889181 43.936335 14.997446 C 43.936335 15.100012 43.960658 15.208227 44.009417 15.32219 C 44.058177 15.430454 44.128799 15.484563 44.221443 15.484563 C 44.245823 15.484563 44.267802 15.464878 44.287307 15.424991 C 44.550611 14.752612 44.875169 14.108792 45.260373 13.493395 C 45.299381 13.430715 45.323702 13.384818 45.333454 13.356328 C 45.333454 13.253762 45.221215 13.202391 44.996919 13.202391 z M 40.491582 13.245092 C 40.062494 13.245092 39.486793 13.573003 38.765145 14.228287 C 38.740766 14.251079 38.711761 14.262554 38.677628 14.262554 C 38.648372 14.262554 38.628735 14.239605 38.618983 14.19402 C 38.618983 14.137039 38.677444 14.008613 38.794468 13.809177 C 38.911492 13.609744 38.969954 13.481842 38.969954 13.424861 C 38.969954 13.362181 38.904466 13.331023 38.772815 13.331023 C 38.646038 13.331023 38.541275 13.359445 38.458384 13.416427 C 38.302351 13.484804 37.98527 13.969037 37.507423 14.869341 C 37.029576 15.763945 36.790593 16.28534 36.790593 16.433491 C 36.790593 16.507567 36.85419 16.544726 36.980965 16.544726 C 37.215013 16.544726 37.390399 16.450722 37.507423 16.262684 C 37.624446 16.068948 37.802174 15.820829 38.041098 15.518829 C 38.284897 15.216828 38.565497 14.923341 38.882437 14.638435 C 39.204252 14.353529 39.460079 14.21089 39.650243 14.21089 C 39.689251 14.216593 39.718707 14.234064 39.738212 14.262554 C 39.757716 14.285347 39.767534 14.319242 39.767534 14.364827 C 39.767534 14.50728 39.662321 14.817716 39.452653 15.296358 C 39.242984 15.769302 38.992293 16.262274 38.699733 16.775105 L 38.684846 16.826769 C 38.684846 16.900843 38.753126 16.937477 38.889655 16.937477 C 39.113951 16.937477 39.379596 16.689886 39.686784 16.19415 C 39.998848 15.692716 40.255126 15.176795 40.455041 14.64687 C 40.659833 14.116945 40.762254 13.772613 40.762254 13.613066 C 40.762254 13.368046 40.671994 13.245092 40.491582 13.245092 z M 46.320505 13.424861 C 46.013318 13.424861 45.781812 13.47897 45.62578 13.587234 C 45.538012 13.655611 45.494053 13.729404 45.494053 13.809177 C 45.484305 14.065593 45.318734 14.558564 44.996919 15.287924 C 44.67998 16.011586 44.521438 16.413289 44.521438 16.493062 C 44.521438 16.635516 44.563056 16.755206 44.645947 16.852073 C 44.728839 16.954639 44.804146 17.006011 44.87241 17.006011 C 44.911418 17.006011 44.943215 16.951903 44.967596 16.843638 C 45.148007 16.399185 45.415995 15.820948 45.771943 15.108682 C 46.127891 14.396417 46.398671 13.903445 46.583959 13.629935 C 46.598587 13.612841 46.606064 13.592628 46.606064 13.569837 C 46.606064 13.524251 46.571924 13.490356 46.50366 13.467563 C 46.440272 13.439073 46.379017 13.424861 46.320505 13.424861 z M 27.844881 13.598832 C 27.817089 13.683116 27.787568 13.725273 27.762777 13.822884 C 27.607744 14.433295 27.529419 15.378094 27.656313 16.634874 C 27.394214 16.494409 26.994653 16.191027 26.615127 15.80878 L 26.627308 15.801926 C 26.620508 15.795026 26.613807 15.788336 26.607007 15.781366 C 26.347858 15.515938 26.09953 15.221452 25.901004 14.945782 L 25.890628 14.951581 C 25.784269 14.800729 25.694985 14.656942 25.630332 14.528781 C 25.543367 14.356395 25.514719 14.224013 25.511236 14.178205 C 26.066967 13.841071 26.800394 13.687214 27.399174 13.619919 C 27.650937 13.591625 27.664918 13.604809 27.844881 13.598832 z M 54.33691 13.698469 C 54.473438 13.698469 54.541718 13.786474 54.541718 13.963115 C 54.541718 14.265116 54.409841 14.535654 54.146537 14.774975 C 53.888109 15.014296 53.658945 15.133986 53.45903 15.133986 C 53.376137 15.133986 53.334972 15.102828 53.334972 15.040148 C 53.334972 14.783732 53.451896 14.496246 53.685943 14.177151 C 53.924868 13.858056 54.141871 13.698469 54.33691 13.698469 z M 17.294083 15.065453 C 17.330229 15.112052 17.358144 15.138423 17.396037 15.196194 C 18.059333 15.836878 17.623562 17.486401 17.165514 17.583802 C 17.142894 17.588608 17.137125 17.606014 17.1195 17.622287 C 17.167901 17.51316 17.22917 17.247431 17.259798 17.11092 C 17.394909 16.508715 16.493993 17.31007 16.342671 17.341826 C 16.248754 17.361538 16.23345 17.342403 16.220869 17.323374 C 16.209483 17.306116 16.195091 17.217797 16.214553 17.081398 C 16.225887 17.063844 16.238454 17.045418 16.256056 17.016027 C 16.301171 16.940737 16.359108 16.830629 16.40673 16.686538 C 16.489489 16.436141 16.531108 16.075342 16.455902 15.615831 L 16.461316 15.609505 C 16.459916 15.600905 16.458304 15.591836 16.456804 15.583146 A 0.25982057 0.30362821 0 0 1 16.450489 15.5842 C 16.440125 15.524756 16.435418 15.469957 16.420715 15.407067 C 16.41358 15.376546 16.413396 15.364093 16.414399 15.360148 L 16.415301 15.360148 L 16.415301 15.359093 L 16.415753 15.359093 L 16.415753 15.360148 C 16.419244 15.35745 16.438334 15.345742 16.496503 15.358566 C 16.62612 15.407239 17.486429 16.691857 17.403706 15.603706 C 17.393474 15.469127 17.322095 15.160954 17.294083 15.065453 z M 19.213148 15.797182 C 19.223155 15.797337 19.230716 15.798354 19.236607 15.799818 C 19.325169 15.94841 19.416588 16.091327 19.509083 16.227362 L 18.929845 15.893129 C 19.026573 15.837412 19.116683 15.806008 19.175254 15.79929 C 19.190827 15.79752 19.203142 15.797026 19.213148 15.797182 z M 33.957558 18.981362 C 33.498826 18.981362 33.173963 19.385462 33.173963 19.945579 C 33.173963 20.505696 33.496769 20.909268 33.957558 20.909268 C 34.414233 20.909268 34.741605 20.505696 34.741605 19.945579 C 34.741605 19.385462 34.41629 18.981362 33.957558 18.981362 z M 41.782688 18.981362 C 41.323956 18.981362 40.998641 19.385462 40.998641 19.945579 C 40.998641 20.505696 41.321899 20.909268 41.782688 20.909268 C 42.239363 20.909268 42.566284 20.505696 42.566284 19.945579 C 42.566284 19.385462 42.24142 18.981362 41.782688 18.981362 z M 48.545881 18.981362 C 48.087149 18.981362 47.762285 19.385462 47.762285 19.945579 C 47.762285 20.505696 48.085092 20.909268 48.545881 20.909268 C 49.002556 20.909268 49.329476 20.505696 49.329476 19.945579 C 49.329476 19.385462 49.004613 18.981362 48.545881 18.981362 z M 24.202988 18.986107 C 23.729856 18.986107 23.400445 19.4312 23.400445 19.940834 C 23.400445 20.52499 23.727655 20.904523 24.196672 20.904523 C 24.377697 20.904523 24.564805 20.839911 24.700574 20.722118 L 24.731701 20.262942 L 24.725385 20.262942 C 24.58756 20.469681 24.418712 20.568181 24.223288 20.568181 C 23.916781 20.568181 23.711267 20.310977 23.711267 19.945579 C 23.711267 19.597008 23.914923 19.320341 24.225544 19.320341 C 24.420968 19.320341 24.583391 19.414328 24.678018 19.563372 L 24.684333 19.563372 L 24.713205 19.152169 C 24.57538 19.041588 24.410755 18.986107 24.202988 18.986107 z M 25.137258 19.017738 L 25.137258 20.873419 L 26.167616 20.873419 L 26.167616 20.55342 L 25.433193 20.55342 L 25.433193 19.017738 L 25.137258 19.017738 z M 26.441446 19.017738 L 26.441446 20.185974 C 26.441446 20.6908 26.713077 20.907159 27.068954 20.907159 C 27.422774 20.907159 27.694207 20.683546 27.694207 20.169104 L 27.694207 19.017738 L 27.396016 19.017738 L 27.396016 20.149598 C 27.396016 20.43807 27.247921 20.565545 27.068954 20.565545 C 26.88793 20.565545 26.740088 20.43807 26.740088 20.149598 L 26.740088 19.017738 L 26.441446 19.017738 z M 28.169687 19.017738 L 28.169687 20.873419 L 28.626672 20.873419 C 28.992835 20.873419 29.235233 20.65238 29.235233 20.323041 C 29.235233 20.092263 29.134722 19.936047 28.939298 19.859121 C 29.089466 19.777387 29.165309 19.623279 29.165309 19.457408 C 29.165309 19.207399 28.988396 19.017738 28.651032 19.017738 L 28.169687 19.017738 z M 29.63267 19.017738 L 29.63267 20.873419 L 30.550248 20.873419 L 30.550248 20.568181 L 29.929056 20.568181 L 29.929056 20.053651 L 30.455513 20.053651 L 30.455513 19.767391 L 29.929056 19.767391 L 29.929056 19.322976 L 30.543932 19.322976 L 30.543932 19.017738 L 29.63267 19.017738 z M 31.531885 19.017738 L 31.531885 20.873419 L 31.968119 20.873419 C 32.537934 20.873419 32.84645 20.529524 32.84645 19.921328 C 32.84645 19.387655 32.529651 19.017738 31.972179 19.017738 L 31.531885 19.017738 z M 35.706551 19.017738 L 35.706551 20.873419 L 36.737361 20.873419 L 36.737361 20.55342 L 36.002937 20.55342 L 36.002937 19.017738 L 35.706551 19.017738 z M 37.072994 19.017738 L 37.072994 20.873419 L 37.36938 20.873419 L 37.36938 19.017738 L 37.072994 19.017738 z M 37.676142 19.017738 L 38.34019 20.873419 L 38.589209 20.873419 L 39.2907 19.017738 L 38.945142 19.017738 L 38.467857 20.389993 L 38.0217 19.017738 L 37.676142 19.017738 z M 39.597462 19.017738 L 39.597462 20.873419 L 39.893848 20.873419 L 39.893848 20.149598 L 39.990388 20.149598 L 40.459553 20.873419 L 40.835787 20.873419 L 40.297149 20.084755 C 40.513144 19.995809 40.646767 19.815722 40.646767 19.568116 C 40.646767 19.217142 40.426727 19.017738 40.058507 19.017738 L 39.597462 19.017738 z M 49.726913 19.017738 L 49.726913 20.873419 L 50.016983 20.873419 L 50.016983 19.577606 L 50.936366 20.873419 L 51.177264 20.873419 L 51.177264 19.017738 L 50.887194 19.017738 L 50.887194 20.30828 L 49.967811 19.017738 L 49.726913 19.017738 z M 52.447168 19.017738 L 52.447168 20.873419 L 53.477526 20.873419 L 53.477526 20.55342 L 52.743102 20.55342 L 52.743102 19.017738 L 52.447168 19.017738 z M 53.813159 19.017738 L 53.813159 20.873419 L 54.109545 20.873419 L 54.109545 19.017738 L 53.813159 19.017738 z M 54.599462 19.017738 L 54.599462 20.873419 L 54.889532 20.873419 L 54.889532 19.577606 L 55.808915 20.873419 L 56.049362 20.873419 L 56.049362 19.017738 L 55.759291 19.017738 L 55.759291 20.30828 L 54.839909 19.017738 L 54.599462 19.017738 z M 56.537474 19.017738 L 56.537474 20.873419 L 57.455052 20.873419 L 57.455052 20.568181 L 56.833408 20.568181 L 56.833408 20.053651 L 57.360317 20.053651 L 57.360317 19.767391 L 56.833408 19.767391 L 56.833408 19.322976 L 57.448736 19.322976 L 57.448736 19.017738 L 56.537474 19.017738 z M 28.466073 19.293981 L 28.632536 19.293981 C 28.795047 19.293981 28.875239 19.401991 28.875239 19.526996 C 28.875239 19.671232 28.795372 19.79375 28.608176 19.79375 L 28.466073 19.79375 L 28.466073 19.293981 z M 33.957558 19.301362 C 34.233209 19.301362 34.434843 19.575373 34.434843 19.945579 C 34.434843 20.315785 34.235266 20.589795 33.957558 20.589795 C 33.679851 20.589795 33.478469 20.315785 33.478469 19.945579 C 33.478469 19.575373 33.677794 19.301362 33.957558 19.301362 z M 41.782688 19.301362 C 42.058339 19.301362 42.259522 19.575373 42.259522 19.945579 C 42.259522 20.315785 42.060396 20.589795 41.782688 20.589795 C 41.50498 20.589795 41.303147 20.315785 41.303147 19.945579 C 41.303147 19.575373 41.502923 19.301362 41.782688 19.301362 z M 48.545881 19.301362 C 48.821531 19.301362 49.023166 19.575373 49.023166 19.945579 C 49.023166 20.315785 48.823588 20.589795 48.545881 20.589795 C 48.268173 20.589795 48.066791 20.315785 48.066791 19.945579 C 48.066791 19.575373 48.266116 19.301362 48.545881 19.301362 z M 39.893848 19.315596 L 40.023319 19.315596 C 40.224915 19.315596 40.340006 19.414054 40.340006 19.603965 C 40.340006 19.803491 40.202484 19.91922 39.92272 19.91922 L 39.893848 19.91922 L 39.893848 19.315596 z M 31.828271 19.334574 L 31.98481 19.334574 C 32.344802 19.334574 32.540139 19.596797 32.540139 19.921328 C 32.540139 20.329997 32.344405 20.55342 31.980299 20.55342 L 31.828271 20.55342 L 31.828271 19.334574 z M 28.466073 20.051015 L 28.646972 20.051015 C 28.830054 20.051015 28.928922 20.164213 28.928922 20.315661 C 28.928922 20.471916 28.834493 20.59454 28.622612 20.59454 L 28.466073 20.59454 L 28.466073 20.051015 z M 51.54989 20.087391 L 51.54989 20.371015 L 52.072287 20.371015 L 52.072287 20.087391 L 51.54989 20.087391 z "
         transform="matrix(1.1455138,0,0,0.98023847,-4.0908695,-0.71662128)" /></g></g></svg>
