<?xml version="1.0" encoding="UTF-8" standalone="no"?>
<!-- Created with Inkscape (http://www.inkscape.org/) -->

<svg
   width="250"
   height="80"
   viewBox="0 0 66.145832 21.166667"
   version="1.1"
   id="svg1"
   inkscape:version="1.4.1 (1:1.4.1+202503302257+93de688d07)"
   sodipodi:docname="logo_banner.svg"
   xml:space="preserve"
   xmlns:inkscape="http://www.inkscape.org/namespaces/inkscape"
   xmlns:sodipodi="http://sodipodi.sourceforge.net/DTD/sodipodi-0.dtd"
   xmlns="http://www.w3.org/2000/svg"
   xmlns:svg="http://www.w3.org/2000/svg"><sodipodi:namedview
     id="namedview1"
     pagecolor="#ffffff"
     bordercolor="#666666"
     borderopacity="1.0"
     inkscape:showpageshadow="2"
     inkscape:pageopacity="0.0"
     inkscape:pagecheckerboard="0"
     inkscape:deskcolor="#d1d1d1"
     inkscape:document-units="px"
     inkscape:export-bgcolor="#ffffffff"
     inkscape:zoom="1.0625"
     inkscape:cx="22.588236"
     inkscape:cy="-16.470589"
     inkscape:window-width="1920"
     inkscape:window-height="1016"
     inkscape:window-x="0"
     inkscape:window-y="27"
     inkscape:window-maximized="1"
     inkscape:current-layer="g43"
     showguides="true" /><defs
     id="defs1" /><g
     inkscape:label="Camada 1"
     inkscape:groupmode="layer"
     id="layer1"><g
       id="g38"
       transform="translate(-4.4020863,-1.3206259)"><rect
         style="fill:#a8c19c;fill-rule:evenodd;fill-opacity:1"
         id="rect42"
         width="250"
         height="80"
         x="0"
         y="0"
         transform="matrix(0.26458333,0,0,0.26458333,4.4020863,1.3206259)" /><g
         id="g43"
         transform="translate(1.8676471,-0.24828894)"><g
           id="g39"
           transform="matrix(1.1455138,0,0,1.1455138,-5.9585166,-3.546122)"
           style="stroke-width:0.872971"><path
             d="M 26.33431,6.0967855 22.147485,8.5136922 V 17.11265 l 4.186825,-2.416906 z"
             style="baseline-shift:baseline;display:inline;overflow:visible;opacity:1;vector-effect:none;fill:#e3d7f4;stroke-width:1.0567;stroke-linejoin:round;enable-background:accumulate;stop-color:#000000;stop-opacity:1"
             id="path35"
             transform="matrix(1,0,0,0.97866396,0,1.2198912)" /><path
             d="m 16.856335,6.0967855 v 8.5989585 l 4.186308,2.416906 V 8.5136922 Z"
             style="baseline-shift:baseline;display:inline;overflow:visible;opacity:1;vector-effect:none;fill:#e3d7f4;stroke-width:1.0567;stroke-linejoin:round;enable-background:accumulate;stop-color:#000000;stop-opacity:1"
             id="path34"
             transform="matrix(1,0,0,0.97866396,0,1.2198912)" /><path
             d="m 26.886214,4.5873169 a 0.55243551,0.55243551 0 0 0 -0.275952,0.073897 L 21.595064,7.5571614 16.580383,4.6612142 a 0.55243551,0.55243551 0 0 0 -0.276469,-0.073381 0.55243551,0.55243551 0 0 0 -0.275952,0.073381 0.55243551,0.55243551 0 0 0 -0.276469,0.4790405 v 9.8743323 a 0.55243551,0.55243551 0 0 0 0.276469,0.478524 l 5.29115,3.055111 a 0.55238027,0.55238027 0 0 1 5.17e-4,0 0.55238027,0.55238027 0 0 0 0.06408,0.03204 0.55238027,0.55238027 0 0 0 5.16e-4,0 0.55238027,0.55238027 0 0 0 0.13901,0.03721 0.55238027,0.55238027 0 0 0 0.144177,0 0.55238027,0.55238027 0 0 0 0.0708,-0.01395 0.55238027,0.55238027 0 0 0 0.06873,-0.02325 0.55238027,0.55238027 0 0 0 0.0646,-0.03204 l 5.29115,-3.055111 a 0.55243551,0.55243551 0 0 0 0.275952,-0.478524 V 5.1402547 A 0.55243551,0.55243551 0 0 0 27.162683,4.6612142 0.55243551,0.55243551 0 0 0 26.886214,4.5873169 Z M 16.856335,6.0967855 21.042643,8.5136922 V 17.11265 l -4.186308,-2.416906 z m 9.477975,0 V 14.695744 L 22.147485,17.11265 V 8.5136922 Z"
             style="baseline-shift:baseline;display:inline;overflow:visible;opacity:1;vector-effect:none;fill:#aa87de;stroke-width:1.13005;stroke-linejoin:round;enable-background:accumulate;stop-color:#000000;stop-opacity:1"
             id="path31"
             transform="matrix(1,0,0,0.85571948,0,2.6868202)" /><g
             id="g37"
             transform="matrix(0.72147427,0,0,0.72147427,11.446277,4.1263226)"
             style="stroke-width:1.20998" /><g
             id="g36"
             transform="translate(-6.0966175,0.70433381)"
             style="stroke-width:0.872971"><path
               d="m 43.089359,7.1029256 c -0.399427,0.034366 -0.704277,0.3216511 -0.957763,0.6063872 -0.56181,0.6487563 -1.18881,1.2968837 -2.017074,1.5898843 -0.441169,0.1512731 -0.910813,0.2310348 -1.319433,0.4677534 -0.173067,0.1061563 -0.476801,0.2470785 -0.377765,0.4985595 0.186256,0.36084 0.553336,0.580295 0.893437,0.779417 0.645151,0.342399 1.352711,0.604227 2.087668,0.642492 0.337148,0.09232 0.229445,-0.29813 0.337342,-0.497483 0.404318,-1.2343148 0.993914,-2.4056576 1.309255,-3.6693069 0.03176,-0.1367504 0.05701,-0.2768598 0.04433,-0.4177035 z"
               style="baseline-shift:baseline;display:inline;overflow:visible;opacity:1;vector-effect:none;fill:#ddafe9;stroke-width:0.786884;stroke-linecap:round;stroke-linejoin:round;enable-background:accumulate;stop-color:#000000;stop-opacity:1"
               id="path22"
               transform="matrix(1.1112664,0,0,1.107542,-11.747377,-0.48392522)" /><path
               d="m 41.08018,12.86123 c -0.580921,0.02726 -1.43052,0.1173 -2.076876,0.445968 0.0061,0.03668 0.02523,0.120415 0.0987,0.245463 0.165415,0.281525 0.512503,0.666354 0.885217,0.991671 0.339013,0.295902 0.687228,0.518424 0.930693,0.637687 -0.10577,-0.966357 -0.03851,-1.705604 0.102836,-2.183329 0.01768,-0.05976 0.0399,-0.08382 0.05943,-0.13746 z"
               style="baseline-shift:baseline;display:inline;overflow:visible;opacity:1;vector-effect:none;fill:#ddafe9;fill-opacity:1;stroke-width:0.751239;stroke-linecap:round;stroke-linejoin:round;enable-background:accumulate;stop-color:#000000;stop-opacity:1"
               id="path26"
               transform="matrix(1.1639854,0.00431062,-0.00432511,1.1600843,-13.777891,-1.558165)" /><path
               id="path12"
               style="baseline-shift:baseline;display:inline;overflow:visible;opacity:1;vector-effect:none;fill:#892ca0;stroke-width:0.872971;stroke-linecap:round;stroke-linejoin:round;enable-background:accumulate;stop-color:#000000;stop-opacity:1"
               d="m 127.4686,52.044431 c -0.31816,-0.550692 -0.47574,-1.14494 -0.57204,-1.81988 -0.46197,-3.238904 0.46747,-6.000129 1.09533,-8.615408 0.6279,-2.615279 1.03267,-5.072968 0.0356,-8.213929 -0.76512,-2.410298 -1.09215,-4.322789 -1.00215,-5.926374 0.09,-1.603585 0.68274,-3.001271 1.78497,-3.821731 1.10222,-0.820463 2.46353,-0.955333 3.7555,-0.783913 1.29196,0.17142 2.60556,0.643561 3.92532,1.288801 1.80181,0.880925 3.61096,2.091448 5.20957,3.435515 -0.72965,-1.875758 -1.32324,-3.997188 -1.45591,-6.130277 -0.0694,-1.11525 0.61465,-2.278363 1.48723,-2.788707 0.87258,-0.510343 1.80902,-0.632852 2.80876,-0.65243 1.99946,-0.03917 4.3405,0.446042 6.56946,1.140803 2.22896,0.69476 4.28599,1.57369 5.71349,2.592674 0.71375,0.509497 1.38859,0.983889 1.66149,2.076814 0.13644,0.546462 0.02,1.290751 -0.32925,1.784844 -0.34923,0.494102 -0.79737,0.758072 -1.24919,0.950124 -4.1428,1.760932 -6.41664,3.637635 -7.64821,5.004116 -1.23157,1.36649 -1.37347,2.031973 -1.37347,2.031973 -0.15076,0.518631 -0.55948,0.921196 -1.07978,1.06351 0.012,0.09402 0.019,0.188216 0.0241,0.28321 0.7971,-0.657273 1.69893,-1.1105 2.51379,-1.522739 1.28996,-0.652579 2.42231,-1.065211 2.42231,-1.065211 0.835,-0.304848 1.70509,0.09587 1.94259,0.894666 0.23739,0.797721 -0.24609,1.690653 -1.08011,1.994871 0,0 -0.96129,0.351857 -2.04522,0.900208 -1.04346,0.527892 -2.13985,1.361838 -2.36132,1.642384 l 9.2e-4,0.0015 0.002,-9.26e-4 9.3e-4,0.0015 0.002,-9.27e-4 9.2e-4,0.0015 9.2e-4,0.0015 -0.002,9.27e-4 c 0.0162,0.05721 -0.15673,0.62074 -0.17548,1.096692 -0.0223,0.567228 0.0142,1.046585 0.0142,1.046585 0.0669,0.842229 -0.57965,1.637889 -1.44439,1.777487 -0.86473,0.139281 -1.62019,-0.430255 -1.68771,-1.272355 0,0 -0.0519,-0.635314 -0.0216,-1.404199 0.0206,-0.523347 0.004,-1.090968 0.20844,-1.737676 -0.3804,0.34437 -1.02625,1.072813 -1.76098,1.990232 -1.49493,1.866647 -3.4327,4.544034 -5.38456,7.038648 -1.95186,2.494614 -3.84634,4.792188 -5.68421,6.11327 -0.91894,0.660541 -1.96509,1.273753 -3.2881,0.867714 -0.6615,-0.20302 -1.21553,-0.714707 -1.53369,-1.265399 z m 2.61882,-1.839587 c 0.0185,-0.0287 -0.0267,0.0083 0.38645,-0.288689 1.19879,-0.861703 3.14847,-3.077043 5.0497,-5.506944 1.90122,-2.429901 3.82633,-5.091614 5.40622,-7.064347 0.78994,-0.986366 1.47364,-1.791885 2.13992,-2.386052 0.13027,-0.116167 0.32376,-0.192625 0.46048,-0.296837 -0.0407,-0.187485 0.0162,-0.192503 -0.14854,-0.513133 -0.35567,-0.692364 -1.01517,-1.581762 -1.86565,-2.47722 -1.70094,-1.790916 -4.16646,-3.636332 -6.3915,-4.724172 -1.11252,-0.54392 -2.16726,-0.894025 -2.96831,-1.00031 -0.80105,-0.106285 -1.25689,0.02468 -1.48587,0.195126 -0.22898,0.170443 -0.48025,0.487407 -0.53705,1.500484 -0.0568,1.013077 0.16549,2.621757 0.86045,4.811033 1.22182,3.849074 0.68844,7.113234 0.0236,9.882703 -0.66487,2.76947 -1.38173,5.054352 -1.04035,7.447758 0.0359,0.251814 0.0705,0.302136 0.11048,0.4206 z m 16.38721,-20.061056 c 0.18475,-0.240761 0.24521,-0.413243 0.4743,-0.667424 1.43261,-1.58954 3.98064,-3.511162 7.84271,-5.297191 -0.9556,-0.637864 -2.6859,-1.453494 -4.59811,-2.049524 -2.00867,-0.626098 -4.17553,-1.028341 -5.58295,-1.000771 -0.67202,0.01316 -1.11009,0.150359 -1.24852,0.219266 0.17033,2.44463 1.22948,5.159343 2.26135,7.273175 0.43386,0.888779 0.50025,0.9122 0.85122,1.522469 z"
               transform="matrix(0.13367731,0.21690175,0.2180129,-0.13312314,7.7894288,-14.138497)"
               sodipodi:nodetypes="sccssssscsssssscsscccscccsccccccccscccscssssscsssscsssssccssccscsscsc" /></g></g><path
           id="text39"
           style="font-size:64px;line-height:1.25;font-family:'Doppio One';-inkscape-font-specification:'Doppio One';text-align:center;letter-spacing:0px;word-spacing:0px;text-anchor:middle;fill:#892ca0;fill-opacity:1;stroke-width:2.0211"
           d="M 267.13329 114.91127 C 264.53063 114.91127 261.45731 116.67927 257.91597 120.2206 C 254.41731 123.71927 250.89785 128.2453 247.35652 133.79197 C 243.85785 139.33863 240.61664 144.77743 237.62998 150.11077 C 234.68598 155.40143 231.86646 160.60692 229.17846 165.72692 C 226.53313 170.84692 225.01894 173.72791 224.63494 174.36791 C 224.20827 175.00791 223.99545 175.41306 223.99545 175.58373 C 223.99545 176.09573 224.71983 176.34953 226.1705 176.34953 C 227.62117 176.34953 228.66873 176.22263 229.30873 175.96663 C 229.94873 175.7533 230.5667 175.0699 231.16404 173.9179 C 231.80404 172.80856 233.19133 170.8033 235.32466 167.90197 C 237.50066 165.00064 240.05847 162.11965 243.00247 159.26098 C 245.98914 156.40231 248.35856 154.97404 250.1079 154.97404 C 250.44923 155.0167 250.68255 155.12311 250.81055 155.29378 C 250.98121 155.46445 251.06713 155.67727 251.06713 155.93327 C 251.06713 157.34127 250.27732 159.62478 248.69865 162.78211 C 247.16265 165.89678 245.39465 168.92517 243.38932 171.86917 L 243.13274 172.57576 C 243.13274 172.91709 243.45197 173.08498 244.09197 173.08498 C 246.0973 173.08498 247.76284 172.29517 249.08551 170.71651 C 251.85884 167.38851 254.33073 163.44341 256.50673 158.87808 C 258.00006 155.63541 258.74889 152.94675 258.74889 150.81341 C 258.74889 148.68008 257.83217 147.61597 255.99751 147.61597 C 254.50417 147.61597 252.56039 148.36085 250.17106 149.85418 C 247.82439 151.30485 246.14231 152.47932 245.11831 153.37532 C 244.13697 154.27132 243.32273 155.01619 242.68273 155.61353 C 242.12806 156.04019 241.68192 156.25301 241.34059 156.25301 C 241.04192 156.25301 240.89058 156.0197 240.89058 155.55037 C 240.89058 154.39837 242.27787 151.17765 245.0512 145.88698 C 247.82453 140.59632 250.93884 135.45231 254.39484 130.46031 C 257.89351 125.46831 260.41428 122.97593 261.95028 122.97593 C 262.41961 122.97593 262.71835 123.08234 262.84635 123.29567 C 262.97435 123.46634 263.03583 123.80606 263.03583 124.31806 C 263.03583 125.85406 261.79988 128.52223 259.32522 132.31956 C 256.89322 136.1169 253.58658 139.46452 249.40525 142.36585 L 249.02235 143.00534 C 249.02235 143.38934 249.4275 143.58167 250.23816 143.58167 C 251.0915 143.58167 251.9018 143.40983 252.6698 143.0685 C 256.08313 141.48983 259.8359 138.12172 263.9319 132.95905 C 268.07057 127.79639 270.14126 122.95112 270.14126 118.42845 C 270.14126 116.08179 269.13863 114.91127 267.13329 114.91127 z M 241.91692 126.42995 C 240.55158 126.42995 239.35662 126.64278 238.33262 127.06944 C 237.35129 127.49611 236.81924 127.70893 236.7339 127.70893 C 236.69124 127.70893 236.24115 127.54104 235.38782 127.19971 C 234.53449 126.81571 233.31903 126.62338 231.74037 126.62338 C 228.3697 126.62338 225.02208 127.5196 221.69408 129.3116 C 218.36608 131.1036 215.4646 133.38316 212.98993 136.1565 C 210.51526 138.92983 208.29323 141.93772 206.33057 145.18039 C 204.3679 148.38039 202.87815 151.4742 201.85415 154.46087 C 200.87281 157.44753 200.38174 159.9888 200.38174 162.07947 C 200.38174 169.24747 203.9012 172.8284 210.9412 172.8284 C 213.41587 172.8284 215.80579 172.27585 218.10979 171.16652 C 220.41379 170.01452 222.2882 168.64772 223.73886 167.06905 C 225.18953 165.49039 226.34351 163.9557 227.19684 162.46237 C 228.09284 160.96904 228.53898 159.90098 228.53898 159.26098 C 228.53898 158.62098 228.43256 158.19534 228.21923 157.982 C 228.04856 157.726 227.90117 157.5991 227.77317 157.5991 C 227.68784 157.55643 227.53649 157.53594 227.32316 157.53594 C 227.15249 157.53594 226.9846 157.70383 226.81394 158.04516 C 222.80327 163.54916 218.66189 166.30325 214.39523 166.30325 C 210.81123 166.30325 209.01879 164.33897 209.01879 160.41364 C 209.01879 157.1283 210.15227 153.13827 212.4136 148.44494 C 214.7176 143.70894 217.44725 139.592 220.60458 136.09334 C 223.80458 132.59467 226.55472 130.84716 228.85872 130.84716 C 229.71205 130.84716 230.37496 131.10097 230.84429 131.61297 C 231.35629 132.12497 231.65503 132.57505 231.74037 132.95905 C 231.8257 133.34305 231.86668 133.98152 231.86668 134.87752 C 231.86668 135.77352 231.56794 136.96848 230.97061 138.46181 C 230.37328 139.91248 229.77975 141.08695 229.18241 141.98295 C 228.60375 142.80961 228.30442 143.27443 228.28634 143.38035 L 228.28634 143.38429 L 228.28634 143.38824 C 228.28634 143.85758 228.69149 144.09484 229.50216 144.09484 C 229.75816 144.09484 229.97098 144.07434 230.14164 144.03168 C 231.50698 144.03168 233.3404 142.81228 235.6444 140.38028 C 237.9484 137.94828 239.91268 135.41096 241.53401 132.76563 C 243.19801 130.12029 244.02881 128.41377 244.02881 127.64577 C 244.02881 126.8351 243.32492 126.42995 241.91692 126.42995 z M 398.20476 144.47774 C 397.26609 144.47774 396.45579 144.62908 395.77312 144.92775 C 395.09045 145.18375 394.61988 145.48249 394.36388 145.82382 C 394.10788 146.16516 393.87456 146.48439 393.66123 146.78306 C 393.49056 147.03906 393.29823 147.16596 393.0849 147.16596 C 392.87157 147.12329 392.42148 147.1028 391.73882 147.1028 C 387.94148 147.1028 384.54893 147.97853 381.56226 149.72786 C 378.5756 151.43453 377.08584 153.46028 377.08584 155.80695 C 377.08584 157.38562 378.10897 158.89981 380.15697 160.35048 C 382.20497 161.75848 383.22809 163.23169 383.22809 164.76769 C 383.22809 166.85835 381.52157 168.86361 378.10824 170.78361 C 374.73757 172.70361 371.55784 173.66131 368.57117 173.66131 C 368.10184 173.74665 367.86853 173.95947 367.86853 174.3008 C 368.08186 175.49547 369.44866 176.09295 371.96599 176.09295 C 376.40332 176.09295 380.52026 174.89799 384.31759 172.50865 C 388.11492 170.16199 390.01378 167.53875 390.01378 164.63742 C 390.01378 163.61342 389.6701 162.63128 388.98744 161.69261 C 388.34744 160.75395 387.62305 159.98858 386.81239 159.39125 C 384.67905 157.89791 383.611 156.4247 383.611 154.97404 C 383.611 153.4807 384.31489 152.35117 385.72289 151.58317 C 387.17355 150.7725 388.56084 150.36735 389.88351 150.36735 C 390.56618 150.36735 390.90985 150.64165 390.90985 151.19632 C 390.90985 151.32432 390.79949 151.75391 390.58616 152.47924 C 390.37282 153.16191 390.26641 153.82087 390.26641 154.46087 C 390.26641 155.0582 390.54466 155.70061 391.09933 156.38328 C 391.65399 157.02328 392.21049 157.34251 392.76516 157.34251 C 393.36249 157.34251 393.74715 157.15018 393.91781 156.76618 C 394.72848 154.71818 396.00541 152.52059 397.75474 150.17393 C 399.50408 147.82726 400.71953 146.35405 401.4022 145.75672 C 401.44486 145.67138 401.4693 145.56497 401.4693 145.43697 C 401.4693 144.79697 400.38076 144.47774 398.20476 144.47774 z M 371.83572 145.75672 C 368.76372 145.75672 365.88273 146.52603 363.19473 148.06203 C 360.5494 149.55537 358.39674 151.41323 356.73274 153.6319 C 355.11141 155.85057 353.83053 158.15457 352.89186 160.5439 C 351.9532 162.89057 351.48262 165.14964 351.48262 167.32564 C 351.48262 169.45897 352.05961 171.25141 353.21161 172.70208 C 354.36361 174.19541 356.17654 174.94029 358.65121 174.94029 C 359.41921 174.94029 360.1231 174.7724 360.7631 174.43107 C 361.4031 174.08973 361.72233 173.61916 361.72233 173.02182 C 361.72233 172.76582 361.4031 172.51202 360.7631 172.25602 C 360.1231 172.00002 359.48463 171.50895 358.84463 170.78361 C 358.20463 170.05828 357.8854 168.99022 357.8854 167.58222 C 357.8854 166.17422 358.1597 165.23702 358.71437 164.76769 C 359.26903 164.29835 360.35758 163.99961 361.97891 163.87161 C 363.64291 163.70095 365.54177 163.05853 367.6751 161.9492 C 369.80843 160.83987 371.75222 159.21926 373.50155 157.08593 C 375.25088 154.9526 376.12266 152.64859 376.12266 150.17393 C 376.12266 148.97926 375.76245 147.95614 375.03711 147.1028 C 374.31178 146.2068 373.24372 145.75672 371.83572 145.75672 z M 322.42931 145.88698 C 321.19198 145.88698 320.20984 146.09981 319.48451 146.52647 C 318.16184 147.03847 315.30134 151.19639 310.90668 159.00439 C 306.51201 166.81239 304.31442 171.2935 304.31442 172.4455 C 304.31442 173.00016 304.85042 173.27841 305.91709 173.27841 C 308.26375 173.27841 309.88436 172.63994 310.78036 171.35994 L 311.80275 169.75728 C 313.55208 167.06928 315.85609 164.16779 318.71475 161.05313 C 320.16542 159.47446 321.72455 158.1526 323.38855 157.08593 C 325.05255 155.9766 326.56674 155.42405 327.93207 155.42405 C 328.14541 155.42405 328.33773 155.53046 328.5084 155.74379 C 328.72173 155.91446 328.82815 156.16827 328.82815 156.5096 C 328.82815 157.6616 327.78453 159.94511 325.69386 163.35844 C 323.64586 166.72911 322.61879 168.84078 322.61879 169.69412 C 322.61879 170.24878 323.36761 170.52703 324.86095 170.52703 C 326.39695 170.52703 327.52648 170.01547 328.25182 168.99147 L 330.94004 165.40717 C 332.73204 162.97517 334.90914 160.56476 337.46914 158.17543 C 340.02914 155.74343 342.09588 154.52797 343.67454 154.52797 C 344.27188 154.52797 344.57062 154.84721 344.57062 155.48721 C 344.57062 156.12721 343.99758 157.38365 342.84558 159.26098 C 339.38958 164.80765 337.65861 168.71176 337.65861 170.97309 C 337.65861 171.57043 337.85094 172.29481 338.23494 173.14814 C 338.61894 174.04414 339.17544 174.49423 339.90077 174.49423 C 340.07144 174.49423 340.32524 174.17499 340.66658 173.53499 C 341.00791 172.93766 341.54391 171.93503 342.26925 170.52703 C 343.03725 169.07636 343.63473 168.00831 344.06139 167.32564 C 344.48806 166.60031 345.29836 165.25795 346.49303 163.29528 C 347.73036 161.33262 348.54066 160.01075 348.92466 159.32809 C 349.30866 158.60275 350.03305 157.23596 351.09971 155.23062 C 352.20905 153.18262 352.76554 151.39018 352.76554 149.85418 C 352.76554 148.01951 351.71798 147.1028 349.62731 147.1028 C 348.09131 147.1028 346.08605 147.89261 343.61138 149.47128 C 341.17938 151.00728 339.43188 152.24322 338.36521 153.18189 C 337.34121 154.12056 336.50647 154.91037 335.86647 155.55037 C 335.5678 155.93437 335.22807 156.1267 334.84407 156.1267 C 334.50274 156.1267 334.3309 155.95486 334.3309 155.61353 C 334.3309 155.44286 334.54373 154.9313 334.97039 154.07796 C 335.39706 153.22463 335.61383 152.28742 335.61383 151.26342 C 335.61383 149.81276 334.75859 149.08443 333.05193 149.08443 C 331.38793 149.08443 329.50957 149.64092 327.4189 150.75026 C 325.3709 151.81692 323.96312 152.69265 323.19512 153.37532 C 322.42712 154.01532 321.87457 154.48195 321.53324 154.78061 C 321.19191 155.07928 320.87267 155.23062 320.57401 155.23062 C 320.27534 155.23062 320.05857 155.07928 319.93057 154.78061 C 319.93057 154.05528 320.6589 152.60651 322.10957 150.43051 C 323.6029 148.21184 324.34778 146.91047 324.34778 146.52647 C 324.34778 146.09981 323.70931 145.88698 322.42931 145.88698 z M 310.39745 146.07646 C 308.47745 146.07646 307.00425 146.71888 305.98025 147.99888 L 305.40392 148.76468 C 302.67325 150.25802 300.36925 151.71073 298.49192 153.11873 C 297.72392 153.63073 297.25334 153.88454 297.08267 153.88454 C 296.78401 153.88454 296.63661 153.69221 296.63661 153.30821 C 296.63661 152.92421 297.12768 152.03194 298.10901 150.62394 C 299.09034 149.21594 299.58141 148.27478 299.58141 147.80545 C 299.58141 147.29345 298.98393 147.03964 297.78927 147.03964 C 296.63727 147.03964 295.5897 147.27296 294.65104 147.74229 C 293.2857 148.25429 290.49063 152.24432 286.26663 159.71099 C 282.0853 167.13499 279.99806 171.42376 279.99806 172.57576 C 279.99806 173.08776 280.5711 173.34157 281.7231 173.34157 C 283.98444 173.34157 285.47814 172.7031 286.20347 171.4231 C 287.39814 169.28977 288.72 167.1781 290.17067 165.08743 C 291.62134 162.9541 293.41378 160.9039 295.54711 158.94123 C 297.68044 156.9359 299.57929 155.93327 301.24329 155.93327 C 301.66996 155.93327 301.88278 156.21152 301.88278 156.76618 C 301.37078 157.79018 301.11698 158.7069 301.11698 159.51756 C 301.11698 160.28556 301.3298 161.09587 301.75646 161.9492 C 302.18313 162.75987 302.8011 163.16502 303.61177 163.16502 C 303.8251 163.16502 304.01743 163.01762 304.1881 162.71895 C 306.4921 157.68429 309.32816 152.86346 312.69882 148.25546 C 313.04016 147.78613 313.25298 147.44245 313.33831 147.22912 C 313.33831 146.46112 312.36012 146.07646 310.39745 146.07646 z M 280.82703 146.65279 C 277.84036 146.65279 274.98381 147.25027 272.25315 148.44494 C 269.52248 149.59694 267.19799 151.09064 265.27799 152.92531 C 263.40065 154.71731 261.73512 156.68158 260.28445 158.81492 C 257.46845 163.03892 256.06067 166.77119 256.06067 170.01386 C 256.06067 172.61653 256.93639 173.9179 258.68573 173.9179 C 260.47773 173.9179 262.24573 173.34091 263.99506 172.18891 C 265.78706 171.07958 267.26027 169.97054 268.41227 168.8612 C 269.60694 167.75187 270.39675 167.19932 270.78075 167.19932 C 271.03675 167.19932 271.16365 167.36721 271.16365 167.70854 L 271.03733 169.05463 C 271.03733 171.48663 272.08095 172.70208 274.17161 172.70208 C 274.55561 172.70208 274.76844 172.44433 274.8111 171.93233 C 275.0671 170.22566 275.92234 167.92166 277.373 165.02032 C 278.86634 162.07632 280.01636 159.96465 280.82703 158.68465 C 281.6377 157.40465 282.19419 156.53287 282.49286 156.06354 C 282.83419 155.55154 283.00603 155.27329 283.00603 155.23062 C 283.00603 154.67596 282.21622 154.33228 280.63755 154.20428 C 279.52822 154.20428 278.56657 154.37612 277.75591 154.71745 C 276.94524 155.05879 276.47466 155.42295 276.34666 155.80695 C 274.42666 159.13495 272.46633 161.69276 270.461 163.48476 C 268.45567 165.23409 266.81062 166.10982 265.53062 166.10982 C 265.10396 166.10982 264.76423 165.93799 264.50823 165.59665 C 264.2949 165.25532 264.18849 164.8951 264.18849 164.5111 C 264.18849 161.52443 265.68219 158.51654 268.66885 155.48721 C 271.69819 152.41521 274.89841 150.87657 278.26908 150.87657 C 280.82908 150.87657 282.70744 151.28172 283.9021 152.09239 C 284.5421 152.56172 285.05366 152.79899 285.43766 152.79899 C 286.163 152.79899 286.52322 152.20151 286.52322 151.00684 C 286.52322 149.76951 285.97067 148.74638 284.86134 147.93572 C 283.752 147.08238 282.4057 146.65279 280.82703 146.65279 z M 368.12511 149.79102 C 369.31978 149.79102 369.91726 150.44998 369.91726 151.77265 C 369.91726 154.03398 368.76328 156.06368 366.45928 157.85568 C 364.19795 159.64768 362.19269 160.5439 360.44335 160.5439 C 359.71802 160.5439 359.3578 160.30664 359.3578 159.83731 C 359.3578 157.91731 360.38093 155.76465 362.42893 153.37532 C 364.51959 150.98598 366.41844 149.79102 368.12511 149.79102 z "
           transform="matrix(0.13091059,0,0,0.13091059,3.1115632,-11.824675)" /><path
           id="text40"
           style="font-size:64px;line-height:1.25;font-family:'Doppio One';-inkscape-font-specification:'Doppio One';text-align:center;letter-spacing:0px;word-spacing:0px;text-anchor:middle;fill:#892ca0;fill-opacity:1;stroke-width:2.0211"
           d="M 266.74587 195.73564 C 264.14321 195.73564 262.30583 196.46003 261.23917 197.91069 C 259.5325 200.25736 257.82598 202.17671 256.11931 203.67004 C 254.45531 205.16337 253.09246 206.12502 252.0258 206.55168 L 248.95467 207.83066 C 247.97334 208.25733 247.22451 208.76889 246.71251 209.36622 C 246.24318 209.92089 246.00987 210.45295 246.00987 210.96495 C 246.00987 211.47695 246.28417 211.7347 246.83883 211.7347 L 248.95467 211.7347 C 250.23467 211.7347 251.12694 211.82062 251.63894 211.99128 C 252.15094 212.11928 252.4087 212.50394 252.4087 213.14394 C 252.4087 213.74128 250.66119 216.81065 247.16252 222.35731 C 243.66386 227.86131 240.16489 233.47195 236.66623 239.18928 C 233.21023 244.90662 231.47927 248.3441 231.47927 249.4961 C 231.47927 250.6481 232.05625 251.77764 233.20825 252.88697 C 234.36025 253.9963 235.25647 254.54885 235.89647 254.54885 C 236.57914 254.54885 236.98429 254.33603 237.11229 253.90936 C 238.34962 249.1307 241.48442 242.37003 246.51909 233.62337 C 251.59642 224.8767 255.26722 218.92239 257.52855 215.76506 C 257.69922 215.50906 257.99796 215.04243 258.42463 214.35976 C 258.85129 213.67709 259.15003 213.2475 259.3207 213.07684 C 259.49137 212.90617 259.83109 212.65236 260.34309 212.31103 C 260.85509 211.9697 261.45257 211.75687 262.13524 211.67154 C 262.86057 211.58621 263.96962 211.54127 265.46295 211.54127 C 266.99895 211.54127 268.27983 211.13612 269.30383 210.32546 C 269.68783 210.02679 270.00706 209.68706 270.26306 209.30306 C 270.56173 208.91906 270.75406 208.59983 270.83939 208.34383 C 270.92472 208.08783 270.96966 207.87501 270.96966 207.70434 C 270.96966 207.53368 270.75683 207.44776 270.33017 207.44776 L 267.19194 207.57408 C 265.74127 207.57408 264.75913 207.55358 264.24713 207.51092 C 262.96713 207.51092 262.32867 207.17119 262.32867 206.48853 C 262.32867 205.76319 263.29031 204.01174 265.21031 201.2384 C 267.13031 198.46507 268.08801 196.90989 268.08801 196.56856 C 268.08801 196.01389 267.64187 195.73564 266.74587 195.73564 z M 216.88945 203.60688 C 212.32412 203.60688 210.04061 204.15943 210.04061 205.26876 L 210.04061 206.2951 C 210.04061 207.9591 209.57003 209.73105 208.63137 211.60838 C 204.15137 220.48305 199.73569 228.45916 195.38369 235.54183 C 191.03169 242.58183 188.13021 246.53088 186.67954 247.38421 L 186.29664 248.15002 C 186.29664 249.13135 188.36733 249.62242 192.50599 249.62242 C 196.68733 249.62242 198.77851 249.13135 198.77851 248.15002 C 198.77851 247.93669 198.71308 247.61745 198.58508 247.19079 C 198.49975 246.76412 198.45876 246.12565 198.45876 245.27232 C 198.45876 243.39499 201.29482 237.31377 206.96949 227.03111 C 212.64415 216.70577 216.93293 209.66686 219.83426 205.9122 C 220.17559 205.57086 220.34348 205.22719 220.34348 204.88586 C 220.34348 204.03252 219.19345 203.60688 216.88945 203.60688 z M 291.12933 214.67951 C 289.892 214.67951 288.63161 215.08466 287.35161 215.89532 C 286.11428 216.70599 285.49631 217.74961 285.49631 219.02961 L 285.49631 219.09277 C 285.58164 220.5861 286.56378 221.33492 288.44111 221.33492 C 289.72111 221.33492 290.97755 220.92977 292.21489 220.11911 C 293.45222 219.26577 294.07414 218.19772 294.07414 216.91772 C 293.98881 215.42438 293.00667 214.67951 291.12933 214.67951 z M 387.32104 221.65467 C 386.38237 221.65467 385.57207 221.80206 384.8894 222.10073 C 384.20674 222.35673 383.73616 222.65547 383.48016 222.9968 C 383.22416 223.33814 382.99085 223.66132 382.77751 223.95998 C 382.60685 224.21598 382.41452 224.34289 382.20118 224.34289 C 381.98785 224.30022 381.53777 224.27973 380.8551 224.27973 C 377.05777 224.27973 373.66522 225.15151 370.67855 226.90084 C 367.69188 228.60751 366.20213 230.63721 366.20213 232.98388 C 366.20213 234.56254 367.22525 236.07674 369.27325 237.5274 C 371.32125 238.9354 372.34438 240.40466 372.34438 241.94066 C 372.34438 244.03133 370.63785 246.04054 367.22452 247.96054 C 363.85385 249.88054 360.67412 250.83824 357.68746 250.83824 C 357.21812 250.92357 356.98481 251.13639 356.98481 251.47773 C 357.19814 252.67239 358.56099 253.26987 361.07833 253.26987 C 365.51566 253.26987 369.63654 252.07491 373.43388 249.68558 C 377.23121 247.33891 379.13006 244.71568 379.13006 241.81435 C 379.13006 240.79035 378.78639 239.80821 378.10372 238.86954 C 377.46372 237.93087 376.73934 237.1655 375.92867 236.56817 C 373.79534 235.07484 372.72728 233.60163 372.72728 232.15096 C 372.72728 230.65763 373.43117 229.5281 374.83917 228.7601 C 376.28984 227.94943 377.67713 227.54428 378.99979 227.54428 C 379.68246 227.54428 380.02613 227.81858 380.02613 228.37324 C 380.02613 228.50124 379.91578 228.93084 379.70244 229.65617 C 379.48911 230.33884 379.3827 230.99779 379.3827 231.63779 C 379.3827 232.23513 379.66095 232.87754 380.21561 233.56021 C 380.77028 234.20021 381.32677 234.51944 381.88144 234.51944 C 382.47877 234.51944 382.86343 234.32711 383.0341 233.94311 C 383.84477 231.89511 385.1217 229.69752 386.87103 227.35085 C 388.62036 225.00419 389.83582 223.53098 390.51848 222.93364 C 390.56115 222.84831 390.58559 222.7419 390.58559 222.6139 C 390.58559 221.9739 389.49704 221.65467 387.32104 221.65467 z M 328.05782 221.91125 C 327.11916 221.91125 326.37033 221.99717 325.81567 222.16784 C 324.15167 222.5945 322.21183 224.49336 319.99316 227.86402 C 317.7745 231.19202 315.91663 234.69098 314.4233 238.36032 C 312.92996 242.02965 312.18509 244.58746 312.18509 246.03813 C 312.18509 247.48879 312.52481 248.47093 313.20748 248.98293 C 313.89014 249.49493 314.65946 249.74874 315.51279 249.74874 C 317.39013 249.74874 319.20306 249.26162 320.95239 248.28028 C 322.70173 247.25628 324.96475 245.39842 327.73808 242.71042 L 328.69731 242.26436 L 328.82363 242.26436 C 329.03696 242.26436 329.14337 242.41175 329.14337 242.71042 L 328.88679 245.14205 C 328.88679 247.87272 329.74202 249.23952 331.44869 249.23952 L 331.64212 249.23952 C 331.89812 249.23952 332.11094 248.98176 332.28161 248.46976 C 333.64694 243.98976 337.67796 236.58669 344.37662 226.26135 C 344.50462 226.04802 344.57005 225.88013 344.57005 225.75213 C 344.57005 225.24013 343.92764 224.98238 342.64764 224.98238 C 340.30097 224.98238 338.59445 225.75169 337.52778 227.28769 C 333.64511 232.45036 330.51032 236.22362 328.12098 238.61296 C 325.73165 241.00229 323.61998 242.19725 321.78531 242.19725 C 320.80398 242.19725 320.31291 241.49336 320.31291 240.08536 C 320.31291 238.67736 321.05778 236.56568 322.55112 233.74968 C 324.08712 230.93368 325.62575 228.43735 327.16175 226.26135 C 328.69775 224.04269 329.46312 222.84773 329.46312 222.67706 C 329.46312 222.16506 328.99649 221.91125 328.05782 221.91125 z M 309.75345 222.55074 C 306.04145 222.55074 302.56298 223.38154 299.32031 225.04554 C 296.07765 226.70954 293.45441 228.78022 291.44908 231.25489 C 289.44375 233.68689 287.86413 236.22421 286.71213 238.86954 C 285.56013 241.47221 284.98314 243.82114 284.98314 245.91181 C 284.98314 248.51448 285.85887 249.81585 287.6082 249.81585 C 289.0162 249.81585 290.42398 249.47217 291.83198 248.78951 C 293.28265 248.14951 294.45712 247.42512 295.35312 246.61446 C 296.29178 245.80379 297.16751 245.07941 297.97818 244.43941 C 298.78884 243.75674 299.36188 243.41307 299.70322 243.41307 C 300.04455 243.41307 300.21639 243.73625 300.21639 244.37625 C 300.21639 244.97358 298.6817 248.21479 295.6097 254.10279 C 292.5377 259.99079 289.01825 265.87967 285.05025 271.76767 C 281.12491 277.69834 278.24392 280.6613 276.40926 280.6613 C 275.64126 280.6613 275.2566 280.14974 275.2566 279.12574 L 275.2566 279.06258 C 275.2566 276.58791 276.27972 273.53903 278.32772 269.91237 C 280.33305 266.2857 282.57558 263.06104 285.05025 260.24504 C 287.56758 257.4717 289.63432 255.68321 291.25565 254.87254 C 291.76765 254.61654 292.02541 254.3383 292.02541 254.03963 C 292.02541 253.74096 291.76765 253.58962 291.25565 253.58962 L 291.06617 253.58962 C 289.18884 253.58962 286.8604 254.65768 284.08707 256.79101 C 281.31373 258.92434 278.71099 261.50659 276.27899 264.53593 C 273.80432 267.60793 271.69265 270.95554 269.94332 274.58221 C 268.19398 278.25154 267.3222 281.57867 267.3222 284.56534 C 267.3222 287.552 268.21842 289.0457 270.01042 289.0457 C 272.18642 289.0457 274.65831 287.93666 277.43165 285.718 C 280.20498 283.542 282.87315 280.85334 285.43315 277.65334 C 287.99315 274.45334 290.7023 270.63514 293.56097 266.19781 C 296.4623 261.76047 298.93814 257.70896 300.98614 254.03963 C 303.03414 250.41296 305.52653 245.78446 308.47053 240.15246 C 311.45719 234.4778 312.95089 231.40448 312.95089 230.93515 C 312.95089 230.29515 312.03418 229.97591 310.19951 229.97591 C 308.36485 229.97591 307.38271 230.27465 307.25471 230.87199 C 304.86538 234.66932 302.45496 237.54636 300.02296 239.50903 C 297.63363 241.42903 295.75922 242.39067 294.39388 242.39067 C 293.49788 242.39067 293.0478 241.85862 293.0478 240.79195 C 293.0478 237.76262 294.5415 234.66881 297.52817 231.51147 C 300.5575 228.31147 303.6718 226.71136 306.8718 226.71136 C 310.0718 226.71136 312.44123 227.22293 313.97723 228.24693 C 314.48923 228.54559 314.84945 228.69299 315.06278 228.69299 C 315.78812 228.69299 316.15228 228.05452 316.15228 226.77452 C 316.15228 224.98252 315.04324 223.74658 312.82457 223.06391 C 311.71524 222.72258 310.69212 222.55074 309.75345 222.55074 z M 360.95201 222.93364 C 357.88001 222.93364 354.99902 223.70296 352.31102 225.23896 C 349.66568 226.73229 347.51303 228.58621 345.84903 230.80488 C 344.22769 233.02355 342.94681 235.32755 342.00815 237.71688 C 341.06948 240.06355 340.5989 242.32657 340.5989 244.50257 C 340.5989 246.6359 341.17589 248.42834 342.32789 249.87901 C 343.47989 251.37234 345.29282 252.11722 347.76749 252.11722 C 348.53549 252.11722 349.23938 251.94933 349.87938 251.60799 C 350.51938 251.26666 350.83861 250.79608 350.83861 250.19875 C 350.83861 249.94275 350.51938 249.685 349.87938 249.429 C 349.23938 249.173 348.60092 248.68587 347.96092 247.96054 C 347.32092 247.23521 347.00168 246.16715 347.00168 244.75915 C 347.00168 243.35115 347.27598 242.41 347.83065 241.94066 C 348.38532 241.47133 349.47387 241.17654 351.0952 241.04854 C 352.7592 240.87787 354.65805 240.23546 356.79138 239.12613 C 358.92472 238.01679 360.8685 236.39619 362.61784 234.26285 C 364.36717 232.12952 365.23895 229.82552 365.23895 227.35085 C 365.23895 226.15619 364.87873 225.13306 364.1534 224.27973 C 363.42806 223.38373 362.36001 222.93364 360.95201 222.93364 z M 275.51318 223.25339 C 273.59318 223.25339 272.11997 223.8958 271.09597 225.1758 L 270.51965 225.94161 C 267.78898 227.43494 265.48498 228.88766 263.60764 230.29566 C 262.83964 230.80766 262.37301 231.06146 262.20235 231.06146 C 261.90368 231.06146 261.75234 230.86914 261.75234 230.48514 C 261.75234 230.10114 262.24341 229.20491 263.22474 227.79691 C 264.20607 226.38891 264.69714 225.45171 264.69714 224.98238 C 264.69714 224.47038 264.09966 224.21657 262.90499 224.21657 C 261.75299 224.21657 260.70543 224.44988 259.76676 224.91922 C 258.40143 225.43122 255.61031 229.42125 251.38631 236.88792 C 247.20497 244.31192 245.11379 248.59674 245.11379 249.74874 C 245.11379 250.26074 245.68683 250.51849 246.83883 250.51849 C 249.10017 250.51849 250.59387 249.88003 251.3192 248.60003 C 252.51387 246.4667 253.83968 244.35502 255.29034 242.26436 C 256.74101 240.13102 258.5295 238.08083 260.66284 236.11816 C 262.79617 234.11283 264.69502 233.1102 266.35902 233.1102 C 266.78569 233.1102 267.00246 233.38844 267.00246 233.94311 C 266.49046 234.96711 266.2327 235.88382 266.2327 236.69449 C 266.2327 237.46249 266.44553 238.27279 266.87219 239.12613 C 267.29886 239.93679 267.91683 240.34194 268.7275 240.34194 C 268.94083 240.34194 269.13316 240.19455 269.30383 239.89588 C 271.60783 234.86121 274.44783 230.04039 277.8185 225.43239 C 278.15983 224.96305 278.37265 224.61938 278.45799 224.40605 C 278.45799 223.63805 277.47585 223.25339 275.51318 223.25339 z M 236.0899 223.57313 C 232.33523 223.57313 227.29764 226.02848 220.98297 230.93515 C 220.76964 231.10581 220.51583 231.19173 220.21716 231.19173 C 219.96116 231.19173 219.78933 231.01989 219.70399 230.67856 C 219.70399 230.25189 220.21555 229.29025 221.23955 227.79691 C 222.26355 226.30358 222.77512 225.34588 222.77512 224.91922 C 222.77512 224.44988 222.20208 224.21657 221.05008 224.21657 C 219.94074 224.21657 219.02403 224.42939 218.2987 224.85606 C 216.93336 225.36806 214.15878 228.99392 209.97745 235.73526 C 205.79612 242.43392 203.70494 246.33804 203.70494 247.44737 C 203.70494 248.00204 204.26143 248.28028 205.37076 248.28028 C 207.41876 248.28028 208.95345 247.57639 209.97745 246.16839 C 211.00145 244.71773 212.55663 242.85986 214.6473 240.59853 C 216.78063 238.33719 219.23598 236.1396 222.00931 234.00627 C 224.82531 231.87294 227.06389 230.80488 228.72789 230.80488 C 229.06922 230.84755 229.32697 230.9784 229.49764 231.19173 C 229.66831 231.3624 229.75423 231.6162 229.75423 231.95754 C 229.75423 233.0242 228.83357 235.3487 226.9989 238.9327 C 225.16423 242.47403 222.97059 246.16533 220.41059 250.00533 L 220.28032 250.39218 C 220.28032 250.94684 220.8778 251.22114 222.07247 251.22114 C 224.03514 251.22114 226.35963 249.36722 229.04763 245.65522 C 231.7783 241.90056 234.02082 238.03743 235.77015 234.06943 C 237.56215 230.10143 238.45837 227.52313 238.45837 226.32846 C 238.45837 224.49379 237.66857 223.57313 236.0899 223.57313 z M 287.09503 224.91922 C 284.40703 224.91922 282.38127 225.32437 281.01594 226.13503 C 280.24794 226.64703 279.86328 227.19958 279.86328 227.79691 C 279.77795 229.71691 278.32918 233.40821 275.51318 238.86954 C 272.73985 244.28821 271.35256 247.2961 271.35256 247.89343 C 271.35256 248.9601 271.71673 249.85632 272.44206 250.58165 C 273.16739 251.34965 273.82635 251.73431 274.42368 251.73431 C 274.76502 251.73431 275.04326 251.32916 275.2566 250.51849 C 276.83526 247.19049 279.18025 242.86074 282.29492 237.5274 C 285.40959 232.19407 287.77901 228.50278 289.40035 226.45478 C 289.52835 226.32678 289.59377 226.17543 289.59377 226.00477 C 289.59377 225.66343 289.29503 225.40963 288.6977 225.23896 C 288.14303 225.02563 287.60703 224.91922 287.09503 224.91922 z M 357.24139 226.96795 C 358.43606 226.96795 359.03354 227.62691 359.03354 228.94957 C 359.03354 231.21091 357.87957 233.23666 355.57557 235.02866 C 353.31423 236.82066 351.30897 237.71688 349.55964 237.71688 C 348.8343 237.71688 348.47409 237.48357 348.47409 237.01423 C 348.47409 235.09423 349.49721 232.94158 351.54521 230.55224 C 353.63588 228.16291 355.53473 226.96795 357.24139 226.96795 z "
           transform="matrix(0.13091059,0,0,0.13091059,9.5184816,-16.753074)" /><path
           id="text42"
           style="font-size:64px;line-height:1.25;font-family:'Doppio One';-inkscape-font-specification:'Doppio One';text-align:center;letter-spacing:0px;word-spacing:0px;text-anchor:middle;fill:#e26cb5;fill-opacity:1;stroke-width:5.0956"
           d="M 250.04267 199.06069 L 250.04267 248.47415 L 278.58603 248.47415 L 278.58603 240.34307 L 259.25855 240.34307 L 259.25855 226.64863 L 275.64013 226.64863 L 275.64013 219.03507 L 259.25855 219.03507 L 259.25855 207.19177 L 278.39694 207.19177 L 278.39694 199.06069 L 250.04267 199.06069 z M 283.19397 199.06069 L 283.19397 207.56996 L 299.44617 207.56996 L 299.44617 248.47415 L 308.73172 248.47415 L 308.73172 207.56996 L 324.98392 207.56996 L 324.98392 199.06069 L 283.19397 199.06069 z "
           transform="matrix(0.05192381,0,0,0.05192381,17.032281,1.633324)" /><path
           id="text43"
           style="font-size:64px;line-height:1;font-family:'Doppio One';-inkscape-font-specification:'Doppio One';text-align:center;letter-spacing:3.59301px;word-spacing:0px;text-anchor:middle;fill:#ffffff;fill-opacity:1;stroke-width:7.18602"
           d="M 47.718056 49.86482 C 33.446056 49.86482 23.338945 60.623169 23.338945 75.535169 C 23.338945 90.447169 33.382056 101.19148 47.718056 101.19148 C 61.926056 101.19148 72.111203 90.447169 72.111203 75.535169 C 72.111203 60.623169 61.990056 49.86482 47.718056 49.86482 z M 291.17233 49.86482 C 276.90033 49.86482 266.77918 60.623169 266.77918 75.535169 C 266.77918 90.447169 276.83633 101.19148 291.17233 101.19148 C 305.38033 101.19148 315.55144 90.447169 315.55144 75.535169 C 315.55144 60.623169 305.44433 49.86482 291.17233 49.86482 z M -255.76469 49.991137 C -270.48469 49.991137 -280.73328 61.840852 -280.73328 75.408852 C -280.73328 90.960852 -270.55318 101.06517 -255.96118 101.06517 C -250.32918 101.06517 -244.50788 99.344992 -240.28388 96.208992 L -239.31546 83.984348 L -239.51195 83.984348 C -243.79995 89.488348 -249.05311 92.110719 -255.13311 92.110719 C -264.66911 92.110719 -271.06304 85.263169 -271.06304 75.535169 C -271.06304 66.255169 -264.72693 58.889442 -255.06293 58.889442 C -248.98293 58.889442 -243.92964 61.391661 -240.98564 65.359661 L -240.78915 65.359661 L -239.8909 54.412219 C -244.1789 51.468219 -249.30069 49.991137 -255.76469 49.991137 z M -226.69783 50.833248 L -226.69783 100.23709 L -194.64147 100.23709 L -194.64147 91.717734 L -217.49075 91.717734 L -217.49075 50.833248 L -226.69783 50.833248 z M -186.12211 50.833248 L -186.12211 81.935212 C -186.12211 95.375212 -177.67118 101.13534 -166.59918 101.13534 C -155.59118 101.13534 -147.14641 95.182086 -147.14641 81.486086 L -147.14641 50.833248 L -156.42367 50.833248 L -156.42367 80.966784 C -156.42367 88.646784 -161.03118 92.040543 -166.59918 92.040543 C -172.23118 92.040543 -176.83082 88.646784 -176.83082 80.966784 L -176.83082 50.833248 L -186.12211 50.833248 z M -132.35333 50.833248 L -132.35333 100.23709 L -118.13569 100.23709 C -106.74369 100.23709 -99.202231 94.352359 -99.202231 85.584359 C -99.202231 79.440359 -102.32931 75.281399 -108.40931 73.233399 C -103.73731 71.057399 -101.37768 66.95459 -101.37768 62.53859 C -101.37768 55.88259 -106.88179 50.833248 -117.37779 50.833248 L -132.35333 50.833248 z M -86.837236 50.833248 L -86.837236 100.23709 L -58.289675 100.23709 L -58.289675 92.110719 L -77.616121 92.110719 L -77.616121 78.412381 L -61.237064 78.412381 L -61.237064 70.791277 L -77.616121 70.791277 L -77.616121 58.959618 L -58.486168 58.959618 L -58.486168 50.833248 L -86.837236 50.833248 z M -27.749119 50.833248 L -27.749119 100.23709 L -14.177097 100.23709 C 3.5509025 100.23709 13.149402 91.08155 13.149402 74.88955 C 13.149402 60.68155 3.2932191 50.833248 -14.050781 50.833248 L -27.749119 50.833248 z M 102.13246 50.833248 L 102.13246 100.23709 L 134.20285 100.23709 L 134.20285 91.717734 L 111.35357 91.717734 L 111.35357 50.833248 L 102.13246 50.833248 z M 144.64502 50.833248 L 144.64502 100.23709 L 153.86614 100.23709 L 153.86614 50.833248 L 144.64502 50.833248 z M 163.41006 50.833248 L 184.06985 100.23709 L 191.81727 100.23709 L 213.64198 50.833248 L 202.89103 50.833248 L 188.04181 87.366827 L 174.16101 50.833248 L 163.41006 50.833248 z M 223.1859 50.833248 L 223.1859 100.23709 L 232.40702 100.23709 L 232.40702 80.966784 L 235.41055 80.966784 L 250.00714 100.23709 L 261.71248 100.23709 L 244.95447 79.240457 C 251.67447 76.872457 255.83174 72.077978 255.83174 65.485978 C 255.83174 56.141978 248.98586 50.833248 237.52986 50.833248 L 223.1859 50.833248 z M -123.13222 58.187683 L -117.95323 58.187683 C -112.89723 58.187683 -110.40231 61.063234 -110.40231 64.391234 C -110.40231 68.231234 -112.88713 71.493036 -118.71113 71.493036 L -123.13222 71.493036 L -123.13222 58.187683 z M 47.718056 58.384176 C 56.294056 58.384176 62.567279 65.679169 62.567279 75.535169 C 62.567279 85.391169 56.358056 92.686161 47.718056 92.686161 C 39.078056 92.686161 32.812693 85.391169 32.812693 75.535169 C 32.812693 65.679169 39.014056 58.384176 47.718056 58.384176 z M 291.17233 58.384176 C 299.74833 58.384176 306.00751 65.679169 306.00751 75.535169 C 306.00751 85.391169 299.81233 92.686161 291.17233 92.686161 C 282.53233 92.686161 276.25293 85.391169 276.25293 75.535169 C 276.25293 65.679169 282.46833 58.384176 291.17233 58.384176 z M 232.40702 58.763126 L 236.43512 58.763126 C 242.70712 58.763126 246.28781 61.38437 246.28781 66.44037 C 246.28781 71.75237 242.00927 74.833409 233.30527 74.833409 L 232.40702 74.833409 L 232.40702 58.763126 z M -18.528004 59.268392 L -13.657796 59.268392 C -2.4577958 59.268392 3.6195136 66.24955 3.6195136 74.88955 C 3.6195136 85.76955 -2.4701476 91.717734 -13.798148 91.717734 L -18.528004 91.717734 L -18.528004 59.268392 z M -123.13222 78.342205 L -117.50411 78.342205 C -111.80811 78.342205 -108.73212 81.355866 -108.73212 85.387866 C -108.73212 89.547866 -111.67001 92.812478 -118.26201 92.812478 L -123.13222 92.812478 L -123.13222 78.342205 z "
           transform="matrix(0.03681921,0,0,0.03681921,31.183394,16.301946)" /><path
           id="text44"
           style="font-size:64px;line-height:1;font-family:'Doppio One';-inkscape-font-specification:'Doppio One';text-align:center;letter-spacing:3.59301px;word-spacing:0px;text-anchor:middle;fill:#ffffff;fill-opacity:1;stroke-width:7.18602"
           d="M -109.23929 49.86482 C -123.51129 49.86482 -133.6184 60.623169 -133.6184 75.535169 C -133.6184 90.447169 -123.57529 101.19148 -109.23929 101.19148 C -95.031287 101.19148 -84.860175 90.447169 -84.860175 75.535169 C -84.860175 60.623169 -94.967287 49.86482 -109.23929 49.86482 z M -72.49518 50.833248 L -72.49518 100.23709 L -63.470557 100.23709 L -63.470557 65.738611 L -34.866856 100.23709 L -27.372069 100.23709 L -27.372069 50.833248 L -36.396691 50.833248 L -36.396691 85.191374 L -65.000392 50.833248 L -72.49518 50.833248 z M 12.136969 50.833248 L 12.136969 100.23709 L 44.193326 100.23709 L 44.193326 91.717734 L 21.344049 91.717734 L 21.344049 50.833248 L 12.136969 50.833248 z M 54.635501 50.833248 L 54.635501 100.23709 L 63.856616 100.23709 L 63.856616 50.833248 L 54.635501 50.833248 z M 79.098824 50.833248 L 79.098824 100.23709 L 88.123446 100.23709 L 88.123446 65.738611 L 116.72715 100.23709 L 124.2079 100.23709 L 124.2079 50.833248 L 115.18328 50.833248 L 115.18328 85.191374 L 86.579576 50.833248 L 79.098824 50.833248 z M 139.39397 50.833248 L 139.39397 100.23709 L 167.94153 100.23709 L 167.94153 92.110719 L 148.60105 92.110719 L 148.60105 78.412381 L 164.99414 78.412381 L 164.99414 70.791277 L 148.60105 70.791277 L 148.60105 58.959618 L 167.74503 58.959618 L 167.74503 50.833248 L 139.39397 50.833248 z M -109.23929 58.384176 C -100.66329 58.384176 -94.390064 65.679169 -94.390064 75.535169 C -94.390064 85.391169 -100.59929 92.686161 -109.23929 92.686161 C -117.87929 92.686161 -124.14465 85.391169 -124.14465 75.535169 C -124.14465 65.679169 -117.94329 58.384176 -109.23929 58.384176 z M -15.779008 79.310633 L -15.779008 86.861561 L 0.47373287 86.861561 L 0.47373287 79.310633 L -15.779008 79.310633 z "
           transform="matrix(0.03681921,0,0,0.03681921,53.673564,16.301946)" /><g
           id="g49"
           transform="matrix(0.59519729,0,0,0.59519729,-3.7401159,-4.6408925)"
           style="stroke-width:1.68012"><path
             id="path47"
             style="baseline-shift:baseline;display:inline;overflow:visible;vector-effect:none;fill:#e26cb5;stroke-width:1.20998;stroke-linecap:round;stroke-linejoin:round;enable-background:accumulate;stop-color:#000000"
             d="m 8.5218552,15.57018 a 0.36012552,0.36012552 0 0 0 -0.3461118,0.47488 c 0.053711,0.156697 0.1349186,0.306506 0.2285082,0.457017 0.075801,0.121904 0.1367878,0.219658 0.191292,0.314478 C 8.4201048,16.599884 8.2398734,16.370592 8.0838191,16.244168 7.8591513,16.062157 7.6748232,15.959167 7.4764486,15.921874 c -0.053718,-0.0101 -0.098204,0.02066 -0.1503539,0.02345 a 0.36012552,0.36012552 0 0 0 -0.027168,-0.02717 h -0.00223 l -0.036844,0.03684 c -0.053467,0.0101 -0.1148992,-0.0066 -0.1604023,0.02345 l 0.090064,0.04689 a 0.36012552,0.36012552 0 0 0 -0.2519546,0.250093 0.36012552,0.36012552 0 0 0 0.00186,0.0019 0.36012552,0.36012552 0 0 0 -0.00186,0 c -4.47e-4,0.02313 -6.73e-5,0.04208 0.00186,0.0588 0.00399,0.03455 0.0114,0.06108 0.019725,0.09155 0.1649102,0.603597 0.096701,1.022286 -0.00782,1.292895 -0.052865,0.136876 -0.1171996,0.241621 -0.1682178,0.314478 -0.018756,0.0268 -0.030901,0.04236 -0.050614,0.06848 a 0.36012552,0.36012552 0 0 0 -0.068478,0.156309 c -0.017925,0.107521 -0.0216,0.201967 -0.015631,0.283216 0.00298,0.04062 0.00786,0.07732 0.017492,0.117232 0.00963,0.03992 0.0061,0.07254 0.078154,0.165984 0.016928,0.02195 0.138471,0.134993 0.246372,0.160031 0.107901,0.02504 0.1830903,0.01212 0.271307,-0.0037 0.2346867,-0.04214 0.45649,-0.16355 0.7246019,-0.367325 0.051354,-0.03903 0.1126146,-0.124611 0.1659848,-0.170079 -0.074192,0.123015 -0.1421273,0.243492 -0.1972465,0.349834 a 0.36012552,0.36012552 0 0 0 0.542614,0.449573 h 3.722e-4 v -3.72e-4 c 0.00266,-0.0011 0.023938,-0.01406 0.070339,-0.05285 0.2612161,-0.21831 0.4793513,-0.445507 0.5057699,-0.472647 A 0.36012552,0.36012552 0 0 0 9.1522998,18.60145 L 9.5099487,17.704908 A 0.36012552,0.36012552 0 0 0 9.531162,17.525526 L 9.4139306,16.628984 A 0.36012552,0.36012552 0 0 0 9.3651772,16.490168 C 9.3449129,16.456504 9.1673883,16.155544 8.9435162,15.863445 8.8702785,15.76789 8.8153885,15.723018 8.7831138,15.687411 A 0.36012552,0.36012552 0 0 0 8.5218552,15.57018 Z m -0.8682568,0.675104 c 2.667e-4,0.0019 4.489e-4,0.0041 7.443e-4,0.0067 5.663e-4,0.0049 0.00152,0.01556 0.00186,0.02345 5.65e-5,0.0013 -3.95e-5,0.0023 0,0.0037 l -0.00372,0.0041 c -0.00105,-0.0041 0.00107,-0.0056 0,-0.0097 l -3.722e-4,-3.73e-4 v -3.72e-4 l 3.722e-4,-3.72e-4 v -3.72e-4 -3.72e-4 -3.72e-4 c -0.00296,-0.01135 0.00144,-0.0168 0.00112,-0.02605 z m -0.4551557,0.29252 a 0.36012552,0.36012552 0 0 0 0.157425,0.0048 c 0.00213,0.01031 0.00395,0.02067 0.00595,0.03089 l -0.062896,0.06327 h -0.00223 z"
             transform="matrix(1.388542,0,0,1.388542,17.731937,9.7046299)" /><path
             id="path46"
             style="baseline-shift:baseline;display:inline;overflow:visible;vector-effect:none;fill:#e26cb5;stroke-width:1.20998;stroke-linecap:round;stroke-linejoin:round;enable-background:accumulate;stop-color:#000000"
             d="m 4.677781,8.5154533 c -0.059666,-0.00142 -0.1187499,0.012005 -0.1719395,0.039077 -0.047136,0.00138 -0.093542,0.011999 -0.1365839,0.031262 l 0.029029,-0.046893 c -2.713e-4,1.363e-4 -0.038409,0.023403 -0.046893,0.029401 -0.00848,0.006 -0.015233,0.010802 -0.021213,0.015631 -0.00635,0.00513 -0.012115,0.010462 -0.017864,0.015631 -0.00249,5.938e-4 -0.00497,0.00121 -0.00744,0.00186 h -0.00223 c -6.493e-4,0.0026 -0.00127,0.0052 -0.00186,0.00782 -0.00132,0.00127 -0.00239,0.00279 -0.00372,0.00409 -0.021269,0.020821 -0.043757,0.044574 -0.064756,0.07406 C 4.1903025,8.7463667 4.1520781,8.826313 4.1269793,8.9218556 3.8839319,9.8470471 3.4651028,10.36696 3.1035304,10.658369 c -0.2286749,0.184301 -0.3131511,0.210646 -0.4335702,0.25977 -0.1178975,0.04809 -0.3185513,0.18071 -0.4413856,0.382584 l 0.00372,-0.01377 c -0.0036,0.0053 -0.00205,0.0105 -0.00558,0.01563 -2.55e-4,4.25e-4 -0.00119,0.0012 -0.00149,0.0015 l -3.722e-4,3.72e-4 c -0.00134,8.78e-4 -0.00351,0.0017 -0.00484,0.0026 l -3.722e-4,3.72e-4 c -1.488e-4,1.57e-4 -6.068e-4,9.31e-4 -7.443e-4,0.0011 -0.00307,0.0103 -0.00568,0.02073 -0.00782,0.03126 -0.098559,0.142832 -0.1788968,0.244256 -0.1894311,0.451434 -9.176e-4,0.01805 -0.00442,0.04031 -0.00223,0.08783 0.00219,0.04752 0.017706,0.132474 0.062523,0.205062 0.089634,0.145178 0.1717423,0.162213 0.2344629,0.195385 0.2594871,0.137238 0.5405379,0.143505 0.9728347,0.09751 0.4322968,-0.046 0.985853,-0.177341 1.6483111,-0.451062 0.01365,-0.0056 0.022038,0.0029 0.031262,0.0097 0.00137,0.0069 0.00233,0.01229 0.00372,0.01935 0.00209,0.01063 0.00394,0.01916 0.00595,0.0294 -2.861e-4,3.35e-4 -0.00183,0.0018 -0.00261,0.0026 -8.532e-4,8.83e-4 -0.00185,0.0021 -0.00223,0.0026 v 3.72e-4 c -0.00271,0.0018 -0.00257,0.0017 -0.0067,0.0045 -0.012512,0.0085 -0.014501,0.0099 -0.015259,0.01042 -3.589e-4,1.9e-4 -0.00114,3.11e-4 -0.00261,0.0011 -0.013388,0.0073 -0.028848,0.01403 -0.06029,0.0294 -0.052229,0.02555 -0.1305498,0.06255 -0.2229258,0.107183 -0.1837548,0.08879 -0.4280137,0.210775 -0.6754763,0.347973 -0.1876565,0.104044 -0.3388765,0.209788 -0.4767411,0.30443 -0.3125246,0.213919 -0.1254368,0.703354 0.2500937,0.654263 0.033322,-0.0044 0.084742,-0.0016 0.1875703,-0.01935 0.4931745,-0.08596 0.9562108,-0.21912 0.9959089,-0.230369 0.031664,-0.0089 0.061967,-0.022 0.090063,-0.03908 0.03125,-0.01926 0.2142599,-0.128388 0.4625989,-0.304802 0.2829213,-0.200956 0.5703062,-0.420088 0.7480481,-0.654635 0.1705143,-0.225011 0.2932046,-0.538309 0.4045415,-0.849277 0.095624,-0.267083 0.1475875,-0.455014 0.1581694,-0.492372 0.00884,-0.03375 0.012723,-0.0686 0.011537,-0.103461 -7.855e-4,-0.0453 -0.0057,-0.575544 -0.075921,-1.1112794 -0.024501,-0.1869195 -0.06446,-0.308223 -0.090064,-0.4142177 -0.084857,-0.3475155 -0.5696395,-0.372121 -0.6892463,-0.034983 -0.00649,0.013039 -0.013459,0.013602 -0.017864,0.027168 -0.06881,0.2118776 -0.085758,0.4377125 -0.095646,0.6661722 -0.00993,0.2294409 0.0199,0.4379779 -0.034983,0.6073699 C 5.6544883,11.002196 5.3441186,9.5693833 5.2479351,9.2869477 5.1355014,8.9888574 5.0319684,8.8389808 4.8787491,8.6974411 l -0.00782,0.04466 c -0.00921,-0.04895 -0.02847,-0.095458 -0.056569,-0.1365839 l 0.027168,0.035355 c -0.00778,-0.014735 -0.012642,-0.033981 -0.025307,-0.043171 -0.016274,-0.011807 -0.026521,-0.019141 -0.034983,-0.025307 -0.00423,-0.00308 -0.00788,-0.00656 -0.015631,-0.011909 -0.00388,-0.00267 -0.0075,-0.00544 -0.017492,-0.011537 -0.00499,-0.00305 -0.021394,-0.011808 -0.021585,-0.011909 -1.914e-4,-1.003e-4 -0.048625,-0.02154 -0.048753,-0.021585 z m 0.1637518,0.1257912 c 0.00276,0.00518 0.00597,0.00964 0.010048,0.013026 z m -0.5582449,0.085225 c -0.00495,0.019908 -0.00818,0.040203 -0.00968,0.060663 -1.6e-6,6.203e-4 -1.6e-6,0.00124 0,0.00186 -0.037219,0.069997 -0.0503,0.1503187 -0.037216,0.2285082 3.07e-5,6.09e-5 0.00429,0.00956 0.00782,0.015631 0.00195,0.00263 0.00393,0.00524 0.00595,0.00782 0.015009,0.026252 0.033264,0.05051 0.054336,0.0722 L 4.2010398,9.0078253 V 8.861193 c -1.6e-6,-6.203e-4 -1.6e-6,-0.00124 0,-0.00186 z m 0.544847,0.2813554 -0.015631,0.1016006 -0.034983,0.00782 c -0.00192,-0.00347 -0.00367,-0.00703 -0.00558,-0.010421 0.023862,-0.02981 0.042831,-0.063226 0.056197,-0.098995 z"
             sodipodi:nodetypes="ccccsscccccsssccccscccccsssssccsccccsccccsccccccssccscccsssccccsscsscccccccccccccccccccc"
             transform="matrix(1.388542,0,0,1.388542,17.731937,9.7046299)" /><path
             id="path48"
             style="fill:#e26cb5;fill-opacity:1;stroke:none;stroke-width:4.96645;stroke-linecap:round;stroke-linejoin:round;stroke-dasharray:none;stroke-opacity:1;paint-order:stroke fill markers"
             d="m 106.94924,75.004113 a 4.6503709,8.5776874 24.469374 0 0 -4.41716,3.460051 8.6530199,4.748085 0 0 0 -5.705797,4.464098 8.6530199,4.748085 0 0 0 1.545261,2.708284 3.6173206,8.3770351 87.286032 0 0 -2.494796,2.625662 3.6173206,8.3770351 87.286032 0 0 8.253532,3.352761 3.6173206,8.3770351 87.286032 0 0 8.48374,-3.897529 3.6173206,8.3770351 87.286032 0 0 -0.79301,-1.559326 8.6530199,4.748085 0 0 0 2.31085,-3.229362 8.6530199,4.748085 0 0 0 -3.32087,-3.741041 4.6503709,8.5776874 24.469374 0 0 -1.88239,-3.998739 4.6503709,8.5776874 24.469374 0 0 -1.97936,-0.184859 z"
             transform="matrix(0.2700055,0.03582595,-0.03689998,0.2621466,6.7526148,-2.0998123)" /><path
             id="path27-6"
             style="baseline-shift:baseline;display:inline;overflow:visible;vector-effect:none;fill:#6c6753;stroke-width:1.20998;stroke-linecap:round;stroke-linejoin:round;enable-background:accumulate;stop-color:#000000"
             d="M 11.133325,7.8619346 C 10.810137,7.8827172 10.568914,8.0124082 10.3756,8.2553112 10.31824,8.3254372 10.238974,8.4116644 10.123274,8.4983338 9.8918734,8.6716734 9.5156813,8.8538808 8.8501032,8.85896 8.619139,8.86072 8.3832666,8.9692458 8.2676677,9.1760431 c -0.1155993,0.2067978 -0.091924,0.460666 0.018236,0.6829196 0.074715,0.1507423 0.2016526,0.2965393 0.3554159,0.4387803 -0.2008072,0.01572 -0.4100042,0.07001 -0.5723871,0.235579 -0.1009863,0.102975 -0.1501811,0.313617 -0.098251,0.448829 0.05193,0.135212 0.1358018,0.205236 0.218832,0.26833 0.1660671,0.12618 0.3698051,0.216996 0.5824355,0.301824 0.4878045,0.245874 0.8625724,0.317599 1.368072,0.243767 C 9.9848009,12.110825 9.8918379,12.385881 9.8489894,12.657258 9.385628,12.350768 8.8467748,12.167218 8.329819,12.04691 7.8109143,11.926148 7.3077786,11.870878 6.9282522,11.845942 6.9766882,11.728003 7.0195976,11.610144 7.0596258,11.498342 7.3512607,10.860227 7.2514392,10.279849 7.1757407,9.5880278 7.1365002,9.2886545 7.0864963,8.9980136 6.9792385,8.7447059 6.9256097,8.6180522 6.8634844,8.4884925 6.7075594,8.3781251 6.5516343,8.2677584 6.2665238,8.2617112 6.1020497,8.3572839 5.8474161,8.5052463 5.6968829,8.7352441 5.5985129,8.9672595 5.457161,8.6502855 5.2864733,8.4030556 5.070041,8.2460071 4.8160405,8.0616982 4.4655599,8.0204196 4.2029006,8.1525941 3.9402412,8.2847685 3.7799753,8.5341492 3.7071792,8.8113231 3.4841324,9.6603794 3.1290665,10.082568 2.8322234,10.321934 c -0.508797,0.410277 -0.734181,0.408603 -0.9475277,0.682919 -0.1834317,0.235852 -0.2825527,0.495208 -0.2962419,0.764424 -0.018252,0.358956 0.1986249,0.721452 0.5247502,0.893936 0.1886979,0.0998 0.4116308,0.149719 0.6550073,0.172684 -0.1101284,0.119957 -0.199636,0.260181 -0.2199485,0.469297 -0.019247,0.19823 0.1298245,0.436921 0.2754008,0.519168 0.1455771,0.08225 0.2708872,0.09536 0.3982147,0.103089 0.254655,0.01545 0.5289857,-0.02117 0.804617,-0.06922 0.710561,-0.05868 1.1692935,-0.268518 1.7242323,-0.650169 0.235995,-0.167644 0.4992514,-0.361782 0.7093432,-0.587274 0.3100864,0.0054 0.9932693,0.03734 1.6899933,0.19948 0.4720154,0.10985 0.9429221,0.281085 1.2921509,0.519912 0.2115952,0.144702 0.3773894,0.304994 0.4905111,0.497582 0.00908,0.02106 0.0198,0.04148 0.032378,0.06066 0.056081,0.109203 0.096861,0.228311 0.1202089,0.360254 0.1139,0.643628 0.35833,1.252534 0.666917,1.810202 -0.122196,0.03754 -0.240468,0.08863 -0.355416,0.147749 -0.289333,0.148828 -0.5593742,0.349417 -0.7822877,0.569782 l -0.031634,-0.242651 c -0.00482,-0.03617 -0.017023,-0.07102 -0.035728,-0.102345 0,0 -0.2137362,-0.361192 -0.4625989,-0.685897 C 8.9601342,15.593164 8.832479,15.440186 8.6837455,15.327901 8.6093795,15.271761 8.5290248,15.21665 8.4001571,15.204715 8.2712895,15.192775 8.1014224,15.285715 8.037298,15.397495 7.9341891,15.577242 7.938572,15.770658 7.973658,15.94718 7.814094,15.84936 7.6580556,15.775104 7.5103147,15.747329 7.2924861,15.706379 7.0684624,15.747824 6.9185751,15.89731 6.7686883,16.046796 6.7316935,16.275827 6.786085,16.474908 c 0.1567425,0.573702 0.091591,0.941374 -0.00149,1.182363 -0.046539,0.120494 -0.1013162,0.209836 -0.1477488,0.276145 -0.023219,0.03315 -0.043835,0.05963 -0.064012,0.08671 -0.020193,0.02707 -0.047016,0.01088 -0.078526,0.152214 -0.016093,0.07218 -0.026843,0.143473 -0.032006,0.212506 -0.015488,0.207098 0.022019,0.397136 0.1399334,0.550057 0.1572184,0.203896 0.4350637,0.268772 0.6903628,0.222926 0.1162322,-0.02087 0.2363822,-0.06502 0.3591375,-0.121325 -0.014801,0.04344 -0.036018,0.08711 -0.045404,0.131373 -0.021003,0.09905 -0.036084,0.209176 0.021958,0.336808 0.055855,0.122822 0.2250256,0.212074 0.3382964,0.211017 0.1132707,-0.0011 0.1906359,-0.03658 0.2679575,-0.07518 0.1546429,-0.07719 0.3033876,-0.191437 0.4488289,-0.31299 0.290883,-0.243105 0.5548954,-0.517679 0.5548954,-0.517679 0.02422,-0.02502 0.04322,-0.05478 0.056197,-0.08709 l 0.4052858,-1.016006 c 0.115521,-0.0063 0.2224139,-0.0627 0.2928925,-0.154448 0.1630116,-0.211277 0.4815106,-0.483387 0.7674006,-0.630444 0.142945,-0.07353 0.277319,-0.114382 0.363231,-0.122814 0.04317,-0.0042 0.0689,-0.0031 0.08523,3.72e-4 0.256865,0.368795 0.531879,0.70655 0.799034,1.006702 0.401262,0.450824 0.787717,0.81641 1.082251,1.070341 0.147267,0.126966 0.270946,0.225395 0.366209,0.29587 0.04763,0.03524 0.08645,0.06261 0.126535,0.08746 0.02004,0.01243 0.03885,0.02418 0.07294,0.03982 0.01705,0.0078 0.0364,0.01731 0.07964,0.02791 0.02162,0.0053 0.04955,0.01169 0.09565,0.01191 0.02305,1.06e-4 0.05101,-0.0015 0.0856,-0.0089 0.03459,-0.0074 0.120726,-0.04751 0.120953,-0.04764 0.188275,-0.111945 0.25021,-0.354978 0.138444,-0.543359 -0.04414,-0.07457 -0.111417,-0.1329 -0.191664,-0.165612 -0.01352,-0.0093 -0.03313,-0.02311 -0.0562,-0.04019 -0.07327,-0.0542 -0.185272,-0.142835 -0.320061,-0.259026 -0.269562,-0.232402 -0.633244,-0.575859 -1.007446,-0.996281 -0.748404,-0.840844 -1.527862,-1.993846 -1.733908,-3.158177 -0.03669,-0.207304 -0.103062,-0.398206 -0.192781,-0.572387 -0.150052,-0.735269 -0.139266,-0.865805 0.334947,-1.69111 0.04056,-0.0706 0.05825,-0.15225 0.05099,-0.233346 0.767906,-0.459813 1.077838,-0.821885 1.438784,-1.58616 0.08685,-0.193539 0.165436,-0.3879668 0.201712,-0.5779697 0.01814,-0.095002 0.03201,-0.189524 -0.0011,-0.3118728 -0.0332,-0.1223482 -0.180484,-0.2770286 -0.329737,-0.2999636 -0.155097,-0.023833 -0.269215,0.025496 -0.369558,0.078154 -0.04485,0.023534 -0.08534,0.059832 -0.127652,0.088947 0.02344,-0.1493169 0.03396,-0.2927196 0.02121,-0.4242661 C 11.865287,8.3013399 11.71105,8.022355 11.443724,7.9148005 11.343477,7.8744675 11.239617,7.8579815 11.13334,7.8619535 Z m 0.2305,0.7768487 c 0.04755,0.2040776 -0.273273,1.5516427 -0.367824,1.5942067 0.06846,0.274748 0.864155,-0.4139788 0.983255,-0.5254951 -0.01338,0.03217 -0.01555,0.051202 -0.03015,0.083737 -1.009133,2.2486931 -3.1674065,1.1405281 -3.1630159,1.0971371 0.014082,-0.139173 0.232652,-0.159678 0.4049137,-0.109788 0.7704463,-0.0086 1.7494742,0.11051 0.2307412,-0.654635 C 9.0693731,9.9162465 8.8867666,9.7167786 8.8247961,9.5917494 8.7846371,9.5107282 8.7907164,9.4776934 8.7927901,9.4707964 h -0.00112 v -7.443e-4 l 3.722e-4,-3.722e-4 7.443e-4,-3.722e-4 c 0.00463,-0.00293 0.020154,-0.00862 0.062151,-0.00893 C 9.6328867,9.4544377 10.156063,9.2257703 10.484268,8.979915 10.64837,8.8569874 10.7643,8.7304768 10.841545,8.6360361 c 0.09158,-0.1594332 0.459994,-0.2645847 0.52228,0.00275 z M 4.5583166,8.8552384 c 0.00204,7.188e-4 0.011851,0.00824 0.046148,0.033123 0.1891292,0.4116624 0.8092966,1.7824286 0.9892099,1.9300386 0.1223843,0.100412 0.4024011,0.178128 0.4633433,0.07815 0.074832,-0.122752 0.098953,-0.236136 0.1161149,-0.344623 0.034323,-0.216975 0.030181,-0.433425 0.039449,-0.6475649 0.00927,-0.2141402 0.03104,-0.4197524 0.079643,-0.5694098 0.00315,-0.0097 0.010182,-0.010203 0.013398,-0.019353 0.029691,0.1229154 0.062006,0.2178703 0.08262,0.3751406 0.066628,0.5083121 0.1177681,0.7160891 0.074805,1.0714581 -0.019694,0.162893 -0.058676,0.212495 -0.150354,0.468553 -0.1029999,0.287683 -0.2587544,0.629261 -0.3524386,0.752887 -0.1021793,0.134835 -0.4059684,0.390004 -0.6695217,0.577225 -0.2386649,0.169542 -0.27951,0.22272 -0.4417577,0.29252 -0.3013059,0.129623 -0.4899805,0.140486 -0.9586926,0.222182 -0.068919,0.01201 -0.1068754,0.008 -0.1730559,0.01675 0.1403472,-0.09635 0.2793925,-0.194403 0.4469681,-0.28731 0.2378651,-0.131877 0.4781688,-0.251237 0.6591011,-0.338669 0.090466,-0.04371 0.1662639,-0.07909 0.2229258,-0.10681 0.02833,-0.01386 0.050821,-0.02453 0.075549,-0.03796 0.012363,-0.0067 0.022902,-0.01275 0.048009,-0.02977 0.012554,-0.0085 0.027617,-0.01581 0.062896,-0.05136 0.00882,-0.0089 0.018871,-0.02024 0.031262,-0.0361 0.012384,-0.01587 0.0431,-0.06797 0.043171,-0.06811 7.09e-5,-1.43e-4 0.039811,-0.139815 0.039822,-0.139934 6.4e-6,-4e-5 -0.00556,-0.02829 -0.012654,-0.06438 -0.2983474,-0.04636 -2.6768577,0.120426 -2.8500262,0.02977 -0.1129768,-0.05914 -0.1074919,-0.06564 -0.1030892,-0.152215 0.07157,-0.261288 0.1819823,-0.381161 0.3944931,-0.525494 0.1458419,-0.068 0.3440105,-0.174872 0.5545232,-0.344623 0.4210256,-0.339506 0.8844423,-0.933914 1.1451463,-1.9263174 0.028609,-0.1089033 0.080142,-0.1492873 0.084481,-0.1514705 v -7.443e-4 h 7.443e-4 V 8.8600765 8.8593322 L 4.5598052,8.85896 C 4.5591756,8.85782 4.5582952,8.85631 4.5579452,8.85561 Z m 3.9579562,7.0733346 c 0.0501,0.05527 0.088901,0.0863 0.141422,0.15482 0.9193656,0.759899 0.3151914,2.716265 -0.3196882,2.83179 -0.031353,0.0057 -0.039583,0.02648 -0.064012,0.04578 0.067087,-0.129432 0.1524301,-0.444384 0.1948822,-0.606297 0.1872709,-0.714259 -1.0618096,0.235919 -1.2715505,0.273583 -0.1301738,0.02338 -0.1515231,9.9e-4 -0.1689621,-0.02158 -0.015781,-0.02047 -0.035535,-0.125158 -0.00856,-0.286938 0.01571,-0.02082 0.033288,-0.04292 0.057685,-0.07778 0.062532,-0.0893 0.1427764,-0.219868 0.2087836,-0.390771 0.1320175,-0.341806 0.2025575,-0.847121 0.019353,-1.517682 -0.00989,-0.0362 -0.00995,-0.05077 -0.00856,-0.05545 v -3.73e-4 h 7.443e-4 v -7.44e-4 h 3.721e-4 7.444e-4 v 0.0011 c 0.00484,-0.0032 0.031396,-0.01741 0.1120211,-0.0022 0.1796559,0.05773 1.3716511,1.581507 1.2569917,0.290879 -0.014181,-0.15962 -0.1128408,-0.524836 -0.1516668,-0.638108 z"
             sodipodi:nodetypes="scssssccsccccscccssscsscssssccsccccssccccccccsssscssssscsssscssccsccccsccsssscssscccccsscsccscsscsscsccscccsccccccsccscsssscssssssscscsccccsscsccssccccccccccscsscccssccccccccscscsc"
             transform="matrix(1.388542,0,0,1.388542,17.731937,9.7046299)" /></g></g></g></g></svg>
